<svg width="25" height="42" viewBox="0 0 25 42" fill="none" xmlns="http://www.w3.org/2000/svg">
<path d="M8.95701 2.13914V8.33603L8.45581 13.6672L8.95701 20.0008L10.7796 22.0968H16.9765C18.9282 22.0304 19.6046 21.7148 19.4826 20.2742V2.13914C19.2275 1.26428 18.6169 1.01519 18.3435 1H10.005C9.13016 1.14581 8.94182 1.82018 8.95701 2.13914Z" fill="white" stroke="black"/>
<path d="M20 9.04896C20.1367 9.04896 24.3794 8.4537 20 11.4143V9.04896Z" fill="#F7A381"/>
<path d="M5.60211 24.9508C5.12823 25.3518 1.33659 35.0826 0 38.5L4 40.5874L8 41.5C8 40.5522 12.1332 30.6617 12.6647 28.7328C14.4509 27.4205 15.8391 24.9964 16.31 23.9484L17.6314 22.5359H11.7079C11.8901 21.26 10.1131 17.3899 9.74856 17.5266C9.45694 17.636 9.8245 12.1621 10.0675 9.50415C10.1185 8.14737 9.23944 7.43698 8.79169 8.54728C8.50602 9.25566 7.56142 11.4179 7.47029 11.6002C7.39738 11.746 6.83237 14.6986 6.55898 16.1567C5.72058 16.9222 5.57173 22.3384 5.60211 24.9508Z" fill="#F7A381"/>
<path d="M13.3757 7C13.0111 7.00111 12.6618 7.16479 12.404 7.45526C12.1463 7.74572 12.001 8.13937 12 8.55015V14.8674C11.9997 14.8903 12.0047 14.9129 12.0146 14.9329C12.0245 14.9529 12.0388 14.9696 12.0563 14.9814C12.0737 14.9932 12.0935 14.9996 12.1138 15C12.1342 15.0004 12.1542 14.9948 12.172 14.9837L13.8915 13.2785C13.9186 13.2491 13.9512 13.2269 13.9869 13.2135C14.0226 13.2001 14.0605 13.1958 14.0979 13.201H23.6243C23.9889 13.1999 24.3382 13.0362 24.596 12.7458C24.8538 12.4553 24.999 12.0616 25 11.6509V8.55057C24.999 8.13979 24.8538 7.74615 24.596 7.45568C24.3382 7.16521 23.9889 7.00153 23.6243 7.00042L13.3757 7Z" fill="#FCEA2B"/>
<path d="M14.635 11.185C14.5283 11.1183 14.5133 11.025 14.59 10.905L14.86 10.49L14.375 10.51C14.3083 10.5167 14.255 10.505 14.215 10.475C14.175 10.4417 14.155 10.3967 14.155 10.34C14.155 10.2833 14.175 10.24 14.215 10.21C14.255 10.18 14.3083 10.1667 14.375 10.17L14.86 10.195L14.595 9.775C14.5183 9.65167 14.5333 9.56 14.64 9.5C14.6867 9.47 14.7333 9.46667 14.78 9.49C14.83 9.51 14.87 9.55167 14.9 9.615L15.13 10.07L15.36 9.615C15.39 9.55167 15.4283 9.51 15.475 9.49C15.525 9.46667 15.575 9.47 15.625 9.5C15.7283 9.56333 15.74 9.65667 15.66 9.78L15.395 10.195L15.88 10.17C15.95 10.1667 16.005 10.18 16.045 10.21C16.085 10.24 16.105 10.2833 16.105 10.34C16.105 10.4 16.085 10.445 16.045 10.475C16.005 10.505 15.95 10.5167 15.88 10.51L15.395 10.49L15.66 10.905C15.6967 10.9617 15.7117 11.015 15.705 11.065C15.7017 11.1117 15.675 11.15 15.625 11.18C15.5717 11.21 15.52 11.215 15.47 11.195C15.4233 11.1717 15.3867 11.13 15.36 11.07L15.13 10.61L14.895 11.07C14.865 11.13 14.8267 11.1717 14.78 11.195C14.7333 11.2183 14.685 11.215 14.635 11.185ZM16.7957 11.185C16.6891 11.1183 16.6741 11.025 16.7507 10.905L17.0207 10.49L16.5357 10.51C16.4691 10.5167 16.4157 10.505 16.3757 10.475C16.3357 10.4417 16.3157 10.3967 16.3157 10.34C16.3157 10.2833 16.3357 10.24 16.3757 10.21C16.4157 10.18 16.4691 10.1667 16.5357 10.17L17.0207 10.195L16.7557 9.775C16.6791 9.65167 16.6941 9.56 16.8007 9.5C16.8474 9.47 16.8941 9.46667 16.9407 9.49C16.9907 9.51 17.0307 9.55167 17.0607 9.615L17.2907 10.07L17.5207 9.615C17.5507 9.55167 17.5891 9.51 17.6357 9.49C17.6857 9.46667 17.7357 9.47 17.7857 9.5C17.8891 9.56333 17.9007 9.65667 17.8207 9.78L17.5557 10.195L18.0407 10.17C18.1107 10.1667 18.1657 10.18 18.2057 10.21C18.2457 10.24 18.2657 10.2833 18.2657 10.34C18.2657 10.4 18.2457 10.445 18.2057 10.475C18.1657 10.505 18.1107 10.5167 18.0407 10.51L17.5557 10.49L17.8207 10.905C17.8574 10.9617 17.8724 11.015 17.8657 11.065C17.8624 11.1117 17.8357 11.15 17.7857 11.18C17.7324 11.21 17.6807 11.215 17.6307 11.195C17.5841 11.1717 17.5474 11.13 17.5207 11.07L17.2907 10.61L17.0557 11.07C17.0257 11.13 16.9874 11.1717 16.9407 11.195C16.8941 11.2183 16.8457 11.215 16.7957 11.185ZM18.9565 11.185C18.8498 11.1183 18.8348 11.025 18.9115 10.905L19.1815 10.49L18.6965 10.51C18.6298 10.5167 18.5765 10.505 18.5365 10.475C18.4965 10.4417 18.4765 10.3967 18.4765 10.34C18.4765 10.2833 18.4965 10.24 18.5365 10.21C18.5765 10.18 18.6298 10.1667 18.6965 10.17L19.1815 10.195L18.9165 9.775C18.8398 9.65167 18.8548 9.56 18.9615 9.5C19.0082 9.47 19.0548 9.46667 19.1015 9.49C19.1515 9.51 19.1915 9.55167 19.2215 9.615L19.4515 10.07L19.6815 9.615C19.7115 9.55167 19.7498 9.51 19.7965 9.49C19.8465 9.46667 19.8965 9.47 19.9465 9.5C20.0498 9.56333 20.0615 9.65667 19.9815 9.78L19.7165 10.195L20.2015 10.17C20.2715 10.1667 20.3265 10.18 20.3665 10.21C20.4065 10.24 20.4265 10.2833 20.4265 10.34C20.4265 10.4 20.4065 10.445 20.3665 10.475C20.3265 10.505 20.2715 10.5167 20.2015 10.51L19.7165 10.49L19.9815 10.905C20.0182 10.9617 20.0332 11.015 20.0265 11.065C20.0232 11.1117 19.9965 11.15 19.9465 11.18C19.8932 11.21 19.8415 11.215 19.7915 11.195C19.7448 11.1717 19.7082 11.13 19.6815 11.07L19.4515 10.61L19.2165 11.07C19.1865 11.13 19.1482 11.1717 19.1015 11.195C19.0548 11.2183 19.0065 11.215 18.9565 11.185ZM21.1172 11.185C21.0106 11.1183 20.9956 11.025 21.0722 10.905L21.3422 10.49L20.8572 10.51C20.7906 10.5167 20.7372 10.505 20.6972 10.475C20.6572 10.4417 20.6372 10.3967 20.6372 10.34C20.6372 10.2833 20.6572 10.24 20.6972 10.21C20.7372 10.18 20.7906 10.1667 20.8572 10.17L21.3422 10.195L21.0772 9.775C21.0006 9.65167 21.0156 9.56 21.1222 9.5C21.1689 9.47 21.2156 9.46667 21.2622 9.49C21.3122 9.51 21.3522 9.55167 21.3822 9.615L21.6122 10.07L21.8422 9.615C21.8722 9.55167 21.9106 9.51 21.9572 9.49C22.0072 9.46667 22.0572 9.47 22.1072 9.5C22.2106 9.56333 22.2222 9.65667 22.1422 9.78L21.8772 10.195L22.3622 10.17C22.4322 10.1667 22.4872 10.18 22.5272 10.21C22.5672 10.24 22.5872 10.2833 22.5872 10.34C22.5872 10.4 22.5672 10.445 22.5272 10.475C22.4872 10.505 22.4322 10.5167 22.3622 10.51L21.8772 10.49L22.1422 10.905C22.1789 10.9617 22.1939 11.015 22.1872 11.065C22.1839 11.1117 22.1572 11.15 22.1072 11.18C22.0539 11.21 22.0022 11.215 21.9522 11.195C21.9056 11.1717 21.8689 11.13 21.8422 11.07L21.6122 10.61L21.3772 11.07C21.3472 11.13 21.3089 11.1717 21.2622 11.195C21.2156 11.2183 21.1672 11.215 21.1172 11.185Z" fill="black"/>
</svg>
