<svg width="32" height="42" viewBox="0 0 32 42" fill="none" xmlns="http://www.w3.org/2000/svg">
<path d="M8.95701 2.13914V8.33603L8.45581 13.6672L8.95701 20.0008L10.7796 22.0968H16.9765C18.9282 22.0304 19.6046 21.7148 19.4826 20.2742V2.13914C19.2275 1.26428 18.6169 1.01519 18.3435 1H10.005C9.13016 1.14581 8.94182 1.82018 8.95701 2.13914Z" fill="white" stroke="black"/>
<path d="M20.0953 14.2412C21.5686 14.7576 23.6312 15.9545 20.0953 16.6106C21.4623 17.0815 23.376 18.1781 20.0953 18.7978V16.6106V14.2412Z" fill="#F7A381"/>
<path d="M19.1385 25.9515C19.2059 26.3728 19.4422 28.4272 19.6852 29.4145C19.1749 29.3416 18.8954 28.1387 18.8195 27.5463C17.1791 22.443 16.769 25.4199 16.769 27.5463C16.3316 28.0202 16.4349 28.8373 16.5412 29.1867L17.5892 31.7839C17.8808 33.0233 20.6573 40.6494 21.3712 41.5L27.5 39.5L32 36.5C30.6877 35.8803 29.5577 27.0603 29.1628 23.0353C29.0535 22.3427 27.4769 21.9873 26.7023 21.8962C26.6294 20.2923 24.8493 19.7394 23.9684 19.6635C22.8019 17.4764 21.2041 18.3573 20.551 19.0711C18.8377 20.3105 20.3839 20.59 21.3712 20.5748C22.3918 22.2881 22.2521 24.4175 22.0547 25.268C9.70161 3.96507 19.0161 25.1872 19.1385 25.9515Z" fill="#F7A381"/>
<path d="M20.166 9.21644C20.3027 9.21644 24.5454 8.62118 20.166 11.5818V9.21644Z" fill="#F7A381"/>
<path d="M5.60211 23.8634C5.12823 24.2644 1.33659 33.0826 0 36.5L4 39.5L8.79169 41C8.79169 40.0522 12.1332 29.5743 12.6647 27.6454C14.4509 26.3331 15.8391 23.909 16.31 22.861L17.6314 21.4485H11.7079C11.8901 20.1726 10.1131 16.3025 9.74856 16.4392C9.45694 16.5486 9.8245 11.0747 10.0675 8.41675C10.1185 7.05997 9.23944 6.34957 8.79169 7.45988C8.50602 8.16826 7.56142 10.3305 7.47029 10.5128C7.39738 10.6586 6.83237 13.6112 6.55898 15.0693C5.72058 15.8348 5.57173 21.251 5.60211 23.8634Z" fill="#F7A381"/>
<circle cx="11" cy="8" r="1" fill="black"/>
<circle cx="11" cy="11" r="1" fill="black"/>
<circle cx="11" cy="14" r="1" fill="black"/>
<circle cx="14" cy="11" r="1" fill="black"/>
<circle cx="17" cy="11" r="1" fill="black"/>
<circle cx="14" cy="14" r="1" fill="black"/>
<circle cx="17" cy="14" r="1" fill="black"/>
<circle cx="14" cy="17" r="1" fill="#07A416"/>
<circle cx="14" cy="8" r="1" fill="black"/>
<circle cx="17" cy="8" r="1" fill="black"/>
</svg>
