<svg width="30" height="24" viewBox="0 0 30 24" fill="none" xmlns="http://www.w3.org/2000/svg">
<path d="M27.2222 3.69231H22.5L21.375 0.698901C21.2973 0.494071 21.1548 0.317017 20.9672 0.191926C20.7795 0.0668353 20.5557 -0.000192072 20.3264 4.13416e-07H9.67361C9.20486 4.13416e-07 8.78472 0.28022 8.62847 0.698901L7.5 3.69231H2.77778C1.24306 3.69231 0 4.87253 0 6.32967V21.3626C0 22.8198 1.24306 24 2.77778 24H27.2222C28.7569 24 30 22.8198 30 21.3626V6.32967C30 4.87253 28.7569 3.69231 27.2222 3.69231ZM15 18.7253C11.9306 18.7253 9.44444 16.3648 9.44444 13.4506C9.44444 10.5363 11.9306 8.17583 15 8.17583C18.0694 8.17583 20.5556 10.5363 20.5556 13.4506C20.5556 16.3648 18.0694 18.7253 15 18.7253ZM11.6667 13.4506C11.6667 14.2899 12.0179 15.0949 12.643 15.6884C13.2681 16.2819 14.1159 16.6154 15 16.6154C15.8841 16.6154 16.7319 16.2819 17.357 15.6884C17.9821 15.0949 18.3333 14.2899 18.3333 13.4506C18.3333 12.6112 17.9821 11.8062 17.357 11.2127C16.7319 10.6192 15.8841 10.2857 15 10.2857C14.1159 10.2857 13.2681 10.6192 12.643 11.2127C12.0179 11.8062 11.6667 12.6112 11.6667 13.4506Z" fill="#9378FF"/>
</svg>
