<svg width="180" height="137" viewBox="0 0 180 137" fill="none" xmlns="http://www.w3.org/2000/svg">
<g clip-path="url(#clip0_412_1074)">
<path d="M72.0265 28.4509H71.3699V10.4622C71.3699 9.09493 71.1006 7.74108 70.5773 6.47791C70.0541 5.21474 69.2872 4.067 68.3204 3.10021C67.3537 2.13342 66.2059 1.36653 64.9427 0.843304C63.6796 0.320082 62.3257 0.0507824 60.9585 0.0507813H22.8469C20.0857 0.050776 17.4375 1.14768 15.485 3.10019C13.5325 5.0527 12.4356 7.70087 12.4355 10.4621V109.15C12.4355 110.517 12.7048 111.871 13.2281 113.134C13.7513 114.397 14.5182 115.545 15.485 116.512C16.4517 117.478 17.5995 118.245 18.8627 118.769C20.1258 119.292 21.4797 119.561 22.8469 119.561H60.9584C63.7197 119.561 66.3679 118.464 68.3204 116.512C70.2729 114.559 71.3698 111.911 71.3698 109.15V41.2556H72.0265V28.4509Z" fill="#3F3D56"/>
<path d="M61.3788 2.75952H56.4039C56.6327 3.32041 56.7201 3.92896 56.6582 4.53156C56.5964 5.13415 56.3874 5.7123 56.0495 6.21506C55.7116 6.71783 55.2553 7.12978 54.7207 7.41464C54.1861 7.6995 53.5896 7.84852 52.9839 7.84856H31.1503C30.5445 7.84852 29.9481 7.6995 29.4135 7.41465C28.8789 7.12979 28.4225 6.71783 28.0846 6.21507C27.7468 5.7123 27.5377 5.13415 27.4759 4.53156C27.4141 3.92896 27.5014 3.32041 27.7302 2.75952H23.0837C22.0627 2.75952 21.0516 2.96063 20.1083 3.35136C19.165 3.7421 18.3079 4.31481 17.5859 5.03679C16.8639 5.75878 16.2912 6.6159 15.9004 7.55922C15.5097 8.50253 15.3086 9.51358 15.3086 10.5346V109.077C15.3086 110.098 15.5097 111.109 15.9004 112.053C16.2912 112.996 16.8639 113.853 17.5859 114.575C18.3078 115.297 19.165 115.87 20.1083 116.261C21.0516 116.651 22.0626 116.852 23.0837 116.852H61.3788C62.3998 116.852 63.4108 116.651 64.3542 116.261C65.2975 115.87 66.1546 115.297 66.8766 114.575C67.5986 113.853 68.1713 112.996 68.562 112.053C68.9528 111.109 69.1539 110.098 69.1539 109.077V10.5346C69.1539 9.51358 68.9528 8.50254 68.562 7.55922C68.1713 6.6159 67.5986 5.75878 66.8766 5.03679C66.1546 4.31481 65.2975 3.7421 64.3542 3.35136C63.4108 2.96063 62.3998 2.75952 61.3788 2.75952Z" fill="white"/>
<path d="M84.2425 119.578H0.22053C0.162042 119.578 0.105949 119.555 0.0645916 119.513C0.0232342 119.472 0 119.416 0 119.357C0 119.299 0.0232342 119.243 0.0645916 119.202C0.105949 119.16 0.162042 119.137 0.22053 119.137H84.2425C84.3009 119.137 84.357 119.16 84.3984 119.202C84.4398 119.243 84.463 119.299 84.463 119.357C84.463 119.416 84.4398 119.472 84.3984 119.513C84.357 119.555 84.3009 119.578 84.2425 119.578Z" fill="#CBCBCB"/>
<path d="M42.2323 76.2835C52.5174 76.2835 60.8552 67.9457 60.8552 57.6605C60.8552 47.3754 52.5174 39.0376 42.2323 39.0376C31.9471 39.0376 23.6094 47.3754 23.6094 57.6605C23.6094 67.9457 31.9471 76.2835 42.2323 76.2835Z" fill="#3751AE"/>
<path d="M40.3855 64.7647C39.9665 64.7654 39.5587 64.6299 39.2235 64.3785L39.2027 64.3629L34.8261 61.0149C34.6233 60.8595 34.4532 60.6657 34.3254 60.4446C34.1976 60.2235 34.1146 59.9793 34.0812 59.7261C34.0478 59.4729 34.0645 59.2156 34.1305 58.9688C34.1965 58.7221 34.3105 58.4908 34.4659 58.2881C34.6213 58.0854 34.8151 57.9153 35.0362 57.7875C35.2573 57.6597 35.5015 57.5767 35.7547 57.5432C36.0079 57.5098 36.2652 57.5265 36.512 57.5925C36.7587 57.6585 36.99 57.7725 37.1927 57.9279L40.0276 60.1018L46.7264 51.3624C46.8818 51.1597 47.0755 50.9897 47.2965 50.862C47.5176 50.7342 47.7616 50.6512 48.0147 50.6178C48.2679 50.5844 48.5251 50.6011 48.7717 50.6671C49.0183 50.7331 49.2496 50.847 49.4522 51.0023L49.4528 51.0027L49.4112 51.0605L49.4539 51.0027C49.8626 51.3169 50.1301 51.7804 50.1975 52.2915C50.2649 52.8026 50.1268 53.3196 49.8135 53.729L41.9342 64.0039C41.7519 64.2407 41.5175 64.4322 41.2492 64.5638C40.9809 64.6953 40.686 64.7633 40.3872 64.7624L40.3855 64.7647Z" fill="white"/>
<path d="M153.102 121.408C153.329 121.042 153.595 120.702 153.897 120.395C154.022 120.266 154.153 120.144 154.289 120.026C155.112 119.293 156.116 118.793 157.197 118.576C158.278 118.36 159.397 118.435 160.439 118.795C161.481 119.154 162.408 119.785 163.126 120.622C163.843 121.458 164.325 122.471 164.522 123.556C165.431 120.192 163.064 116.879 160.683 114.334C158.301 111.79 155.579 108.999 155.593 105.514C155.6 103.574 156.549 101.843 157.981 100.56C158.025 100.522 158.07 100.483 158.115 100.445C159.846 98.961 162.074 98.1846 164.353 98.2712C168.587 98.498 172.284 101.344 174.851 104.719C178.984 110.15 180.795 117.774 177.902 123.956C175.357 129.393 169.93 132.622 164.391 135.218C163.617 135.581 162.845 135.932 162.075 136.273C162.07 136.274 162.064 136.278 162.059 136.279C162.022 136.296 161.985 136.312 161.95 136.329C161.791 136.399 161.632 136.469 161.475 136.538L161.548 136.586L161.775 136.734C161.697 136.686 161.618 136.639 161.539 136.592C161.516 136.577 161.491 136.563 161.468 136.549C158.747 134.917 155.989 133.19 154.11 130.641C152.161 127.996 151.377 124.206 153.102 121.408Z" fill="#CDCDCD"/>
<path d="M171.251 115.264C171.854 116.634 172.253 118.085 172.437 119.571C172.582 120.895 172.527 122.234 172.276 123.543C171.736 126.232 170.557 128.752 168.84 130.891C167.545 132.515 166.05 133.969 164.39 135.218C163.616 135.581 162.845 135.932 162.074 136.273C162.069 136.274 162.063 136.278 162.058 136.279C162.021 136.296 161.984 136.312 161.949 136.329C161.79 136.399 161.631 136.469 161.474 136.538L161.547 136.586L161.775 136.734C161.696 136.686 161.617 136.639 161.539 136.592C161.515 136.577 161.49 136.563 161.467 136.549C162.065 134.455 162.153 132.248 161.723 130.112C161.293 127.977 160.358 125.976 158.995 124.277C157.625 122.599 155.878 121.269 153.896 120.395C154.021 120.266 154.152 120.144 154.288 120.026C155.051 120.376 155.782 120.794 156.472 121.273C158.939 122.978 160.791 125.432 161.755 128.273C162.616 130.849 162.723 133.618 162.065 136.253C162.202 136.164 162.339 136.072 162.472 135.981C165.006 134.272 167.342 132.22 169.101 129.702C170.619 127.575 171.59 125.107 171.929 122.517C172.266 119.686 171.558 116.903 170.294 114.378C168.899 111.676 167.141 109.178 165.069 106.953C162.987 104.666 160.634 102.642 158.061 100.927C158.003 100.888 157.962 100.828 157.947 100.76C157.932 100.692 157.944 100.62 157.98 100.56C158.008 100.506 158.056 100.465 158.114 100.445C158.143 100.438 158.174 100.437 158.204 100.443C158.233 100.449 158.261 100.462 158.286 100.48C158.603 100.692 158.918 100.906 159.229 101.126C161.82 102.961 164.173 105.11 166.234 107.525C168.226 109.853 170.039 112.439 171.251 115.264Z" fill="white"/>
<path d="M115.787 8.69784C117.971 8.69784 119.742 6.92713 119.742 4.74284C119.742 2.55856 117.971 0.787842 115.787 0.787842C113.603 0.787842 111.832 2.55856 111.832 4.74284C111.832 6.92713 113.603 8.69784 115.787 8.69784Z" fill="#CDCDCD"/>
<path d="M164.966 61.6251C166.298 61.6251 167.377 60.5455 167.377 59.2138C167.377 57.8821 166.298 56.8025 164.966 56.8025C163.634 56.8025 162.555 57.8821 162.555 59.2138C162.555 60.5455 163.634 61.6251 164.966 61.6251Z" fill="#CDCDCD"/>
<path d="M94.3957 68.241C95.7274 68.241 96.807 67.1615 96.807 65.8297C96.807 64.498 95.7274 63.4185 94.3957 63.4185C93.0639 63.4185 91.9844 64.498 91.9844 65.8297C91.9844 67.1615 93.0639 68.241 94.3957 68.241Z" fill="#CDCDCD"/>
<path d="M95.7576 137H179.78C179.838 137 179.894 136.977 179.936 136.935C179.977 136.894 180 136.838 180 136.779C180 136.721 179.977 136.665 179.936 136.623C179.894 136.582 179.838 136.559 179.78 136.559H95.7576C95.6992 136.559 95.6431 136.582 95.6017 136.623C95.5603 136.665 95.5371 136.721 95.5371 136.779C95.5371 136.838 95.5603 136.894 95.6017 136.935C95.6431 136.977 95.6992 137 95.7576 137Z" fill="#CBCBCB"/>
<path d="M170.508 21.3616C170.618 20.5783 170.437 19.7817 169.999 19.1228C169.562 18.464 168.897 17.9885 168.132 17.7867C167.368 17.5848 166.555 17.6705 165.849 18.0276C165.144 18.3846 164.593 18.9882 164.303 19.7239L157.484 27.5404L159.485 33.1279L166.342 23.9946C166.789 24.138 167.263 24.1814 167.729 24.122C168.195 24.0626 168.642 23.9017 169.039 23.6506C169.437 23.3996 169.774 23.0645 170.027 22.669C170.281 22.2735 170.445 21.8272 170.508 21.3616Z" fill="#FFB7B7"/>
<path d="M142.245 51.7759L164.878 27.6215L161.825 22.7681L133.438 46.7759L142.245 51.7759Z" fill="#3F3D56"/>
<path d="M137.193 37.0999C141.578 37.0999 145.132 33.5454 145.132 29.1608C145.132 24.7761 141.578 21.2217 137.193 21.2217C132.808 21.2217 129.254 24.7761 129.254 29.1608C129.254 33.5454 132.808 37.0999 137.193 37.0999Z" fill="#2F2E41"/>
<path d="M137.832 24.6759C139.54 22.9435 141.608 21.6067 143.888 20.7595C145.353 20.2171 146.946 19.882 148.477 20.19C150.007 20.498 151.455 21.5569 151.882 23.0586C152.231 24.2866 151.87 25.6088 151.328 26.7647C150.787 27.9207 150.063 28.9926 149.625 30.1917C149.178 31.4153 149.043 32.7311 149.234 34.0197C149.424 35.3084 149.933 36.5291 150.715 37.571C151.497 38.6129 152.527 39.4431 153.711 39.9861C154.895 40.5292 156.196 40.7679 157.495 40.6807C155.992 40.8823 154.605 41.589 153.135 41.9652C151.665 42.3414 149.93 42.3159 148.838 41.2628C147.682 40.1486 147.659 38.337 147.715 36.7325C147.798 34.3475 147.881 31.9625 147.964 29.5775C148.007 28.3611 148.043 27.1058 147.604 25.9706C147.165 24.8353 146.123 23.8412 144.906 23.8515C143.984 23.8594 143.167 24.4181 142.428 24.9692C141.688 25.5202 140.905 26.1082 139.986 26.1901C139.067 26.2721 138.018 25.5922 138.087 24.6723L137.832 24.6759Z" fill="#2F2E41"/>
<path d="M107.039 82.4679C106.277 82.6796 105.464 82.6044 104.754 82.2565C104.043 81.9086 103.485 81.3122 103.185 80.5803C102.885 79.8484 102.864 79.0318 103.125 78.2854C103.387 77.5389 103.914 76.9144 104.605 76.5301L111.464 68.749L117.265 70.0023L109.106 77.9939C109.306 78.4188 109.411 78.8825 109.413 79.3523C109.415 79.8221 109.314 80.2867 109.117 80.7132C108.92 81.1398 108.632 81.518 108.273 81.8211C107.914 82.1243 107.493 82.345 107.039 82.4679H107.039Z" fill="#FFB7B7"/>
<path d="M129.606 54.6111L112.511 76.0687L107.301 73.6763L127.393 42.3953L129.606 54.6111Z" fill="#3F3D56"/>
<path d="M115.965 119.404L111.891 119.34L112.381 133.226H115.964L115.965 119.404Z" fill="#FFB7B7"/>
<path d="M116.879 132.056L109.822 132.056H109.822C108.629 132.056 107.485 132.53 106.642 133.373C105.798 134.217 105.324 135.36 105.324 136.553V136.699L116.879 136.7L116.879 132.056Z" fill="#2F2E41"/>
<path d="M142.941 115.721L138.49 118.578L147.393 129.288L150.408 127.352L142.941 115.721Z" fill="#FFB7B7"/>
<path d="M150.543 125.874L144.605 129.687L144.605 129.687C143.601 130.331 142.894 131.348 142.64 132.513C142.386 133.679 142.606 134.897 143.25 135.901L143.329 136.024L153.052 129.782L150.543 125.874Z" fill="#2F2E41"/>
<path d="M144.526 73.3197C144.526 73.3197 134.638 40.4768 131.46 40.033C128.282 39.5891 123.162 48.4601 123.162 48.4601C116.523 56.9302 109.678 84.367 109.678 84.367C109.678 84.367 121.089 85.0811 129.431 89.5193C137.773 93.9576 147.618 89.2946 147.618 89.2946L144.526 73.3197Z" fill="#3F3D56"/>
<path opacity="0.1" d="M144.526 73.3196C144.526 73.3196 134.638 40.4766 131.46 40.0328C128.282 39.589 124.462 48.55 124.462 48.55C121.154 62.2228 109.678 84.3668 109.678 84.3668C109.678 84.3668 121.089 85.0809 129.431 89.5192C137.773 93.9574 147.618 89.2945 147.618 89.2945L144.526 73.3196Z" fill="black"/>
<path d="M136.413 63.4934V79.9968L138.355 103.903L148.058 121.987L143.427 125.295L130.196 108.093L124.962 91.0133L116.743 128.823L110.568 128.382L114.857 75.9595L122.995 61.2039L136.413 63.4934Z" fill="#2F2E41"/>
<path d="M126.442 47.5307C123.355 50.6182 126.222 53.9261 126.222 53.9261L122.693 61.8652L136.587 65.6142L141.442 43.9188L138.134 40.3904C131.518 40.1698 131.515 40.0327 131.515 40.0327C130.355 41.1671 126.442 47.5307 126.442 47.5307Z" fill="#6C63FF"/>
<path d="M142.002 41.6712C141.371 41.2054 140.654 40.8695 139.892 40.6828C139.13 40.4962 138.339 40.4625 137.564 40.5838C136.789 40.7051 136.046 40.9789 135.378 41.3894C134.71 41.7999 134.13 42.3389 133.671 42.9752C130.178 47.8384 126.949 55.6912 131.399 65.4851C138.544 81.211 144.761 89.2614 147.289 89.2606C147.399 89.2615 147.509 89.2443 147.614 89.2095C149.17 88.6817 151.419 86.0489 151.826 83.7288C151.972 82.8984 151.938 81.7417 150.944 80.9474C148.092 78.6658 142.971 71.5613 141.373 62.2103C140.49 57.0434 142.202 52.3368 143.794 49.2983C144.466 48.0411 144.663 46.5837 144.348 45.1932C144.033 43.8028 143.227 42.5724 142.079 41.7277V41.7277L142.002 41.6712Z" fill="#3F3D56"/>
<path d="M137.601 36.3198C140.434 34.7717 141.474 31.2208 139.926 28.3888C138.378 25.5567 134.827 24.5159 131.995 26.064C129.163 27.6122 128.122 31.163 129.67 33.9951C131.219 36.8272 134.769 37.868 137.601 36.3198Z" fill="#FFB7B7"/>
<path d="M126.58 30.7501H135.019L135.105 29.5385L135.538 30.7501H136.837L137.009 28.3488L137.866 30.7501H140.381V30.6311C140.379 28.9594 139.714 27.3567 138.532 26.1746C137.35 24.9925 135.747 24.3276 134.075 24.3257H132.886C131.214 24.3276 129.611 24.9925 128.429 26.1746C127.247 27.3567 126.582 28.9594 126.58 30.6311V30.7501Z" fill="#2F2E41"/>
<path d="M139.105 35.1049L142.706 33.9364V25.1912H135.904L136.073 25.3593C138.416 27.6993 141.022 36.0014 139.105 35.1049Z" fill="#2F2E41"/>
</g>
<defs>
<clipPath id="clip0_412_1074">
<rect width="180" height="136.949" fill="white" transform="translate(0 0.0507812)"/>
</clipPath>
</defs>
</svg>
