<svg width="24" height="30" viewBox="0 0 24 30" fill="none" xmlns="http://www.w3.org/2000/svg">
<path d="M3.3 0C2.42479 0 1.58542 0.434597 0.966548 1.20818C0.347678 1.98177 0 3.03098 0 4.125V22.875C0 23.969 0.347678 25.0182 0.966548 25.7918C1.58542 26.5654 2.42479 27 3.3 27H10.8264C10.4667 26.2987 10.1808 25.5425 9.9756 24.75H3.3C2.472 24.75 1.8 23.91 1.8 22.875V4.125C1.8 3.09 2.472 2.25 3.3 2.25H18.3C19.128 2.25 19.8 3.09 19.8 4.125V12.4695C20.434 12.726 21.039 13.0834 21.6 13.533V4.125C21.6 3.03098 21.2523 1.98177 20.6335 1.20818C20.0146 0.434597 19.1752 0 18.3 0H3.3ZM17.9484 12.024C18 11.8537 18.0176 11.6702 17.9998 11.4894C17.9821 11.3087 17.9294 11.136 17.8464 10.9864C17.7634 10.8367 17.6525 10.7145 17.5233 10.6303C17.3941 10.5461 17.2505 10.5024 17.1048 10.503H11.1C10.8613 10.503 10.6324 10.6215 10.4636 10.8325C10.2948 11.0435 10.2 11.3296 10.2 11.628C10.2 11.9264 10.2948 12.2125 10.4636 12.4235C10.6324 12.6345 10.8613 12.753 11.1 12.753H14.3904C15.5143 12.1649 16.7331 11.9152 17.9484 12.024ZM6.3 8.253C5.58392 8.253 4.89716 8.60858 4.39081 9.24151C3.88446 9.87445 3.6 10.7329 3.6 11.628C3.6 12.5231 3.88446 13.3815 4.39081 14.0145C4.89716 14.6474 5.58392 15.003 6.3 15.003C7.01608 15.003 7.70284 14.6474 8.20919 14.0145C8.71554 13.3815 9 12.5231 9 11.628C9 10.7329 8.71554 9.87445 8.20919 9.24151C7.70284 8.60858 7.01608 8.253 6.3 8.253ZM5.4 11.628C5.4 11.3296 5.49482 11.0435 5.6636 10.8325C5.83239 10.6215 6.06131 10.503 6.3 10.503C6.5387 10.503 6.76761 10.6215 6.9364 10.8325C7.10518 11.0435 7.2 11.3296 7.2 11.628C7.2 11.9264 7.10518 12.2125 6.9364 12.4235C6.76761 12.6345 6.5387 12.753 6.3 12.753C6.06131 12.753 5.83239 12.6345 5.6636 12.4235C5.49482 12.2125 5.4 11.9264 5.4 11.628ZM3.6 19.875C3.6 19.4318 3.66984 18.9929 3.80553 18.5834C3.94121 18.174 4.14009 17.8019 4.39081 17.4885C4.64153 17.1751 4.93918 16.9265 5.26676 16.7569C5.59433 16.5873 5.94543 16.5 6.3 16.5C6.65457 16.5 7.00567 16.5873 7.33325 16.7569C7.66083 16.9265 7.95847 17.1751 8.20919 17.4885C8.45991 17.8019 8.65879 18.174 8.79447 18.5834C8.93016 18.9929 9 19.4318 9 19.875C9 20.7701 8.71554 21.6285 8.20919 22.2615C7.70284 22.8944 7.01608 23.25 6.3 23.25C5.58392 23.25 4.89716 22.8944 4.39081 22.2615C3.88446 21.6285 3.6 20.7701 3.6 19.875ZM6.3 18.75C6.06131 18.75 5.83239 18.8685 5.6636 19.0795C5.49482 19.2905 5.4 19.5766 5.4 19.875C5.4 20.1734 5.49482 20.4595 5.6636 20.6705C5.83239 20.8815 6.06131 21 6.3 21C6.5387 21 6.76761 20.8815 6.9364 20.6705C7.10518 20.4595 7.2 20.1734 7.2 19.875C7.2 19.5766 7.10518 19.2905 6.9364 19.0795C6.76761 18.8685 6.5387 18.75 6.3 18.75ZM17.1048 6.75H4.5048C4.26611 6.75 4.03719 6.63147 3.8684 6.4205C3.69962 6.20952 3.6048 5.92337 3.6048 5.625C3.6048 5.32663 3.69962 5.04048 3.8684 4.8295C4.03719 4.61853 4.26611 4.5 4.5048 4.5H17.1048C17.3435 4.5 17.5724 4.61853 17.7412 4.8295C17.91 5.04048 18.0048 5.32663 18.0048 5.625C18.0048 5.92337 17.91 6.20952 17.7412 6.4205C17.5724 6.63147 17.3435 6.75 17.1048 6.75ZM24 21.75C24 19.562 23.3046 17.4635 22.0669 15.9164C20.8292 14.3692 19.1504 13.5 17.4 13.5C15.6496 13.5 13.9708 14.3692 12.7331 15.9164C11.4954 17.4635 10.8 19.562 10.8 21.75C10.8 23.938 11.4954 26.0365 12.7331 27.5836C13.9708 29.1308 15.6496 30 17.4 30C19.1504 30 20.8292 29.1308 22.0669 27.5836C23.3046 26.0365 24 23.938 24 21.75ZM18.0012 26.2545C18.0012 26.4534 17.938 26.6442 17.8255 26.7848C17.7129 26.9255 17.5603 27.0045 17.4012 27.0045C17.2421 27.0045 17.0895 26.9255 16.9769 26.7848C16.8644 26.6442 16.8012 26.4534 16.8012 26.2545V22.5H13.7952C13.6361 22.5 13.4835 22.421 13.3709 22.2803C13.2584 22.1397 13.1952 21.9489 13.1952 21.75C13.1952 21.5511 13.2584 21.3603 13.3709 21.2197C13.4835 21.079 13.6361 21 13.7952 21H16.8V17.25C16.8 17.0511 16.8632 16.8603 16.9757 16.7197C17.0883 16.579 17.2409 16.5 17.4 16.5C17.5591 16.5 17.7117 16.579 17.8243 16.7197C17.9368 16.8603 18 17.0511 18 17.25V21H21.0036C21.1627 21 21.3153 21.079 21.4279 21.2197C21.5404 21.3603 21.6036 21.5511 21.6036 21.75C21.6036 21.9489 21.5404 22.1397 21.4279 22.2803C21.3153 22.421 21.1627 22.5 21.0036 22.5H18.0012V26.2545Z" fill="#9378FF"/>
</svg>
