<svg width="26" height="26" viewBox="0 0 26 26" fill="none" xmlns="http://www.w3.org/2000/svg">
<path fill-rule="evenodd" clip-rule="evenodd" d="M17.7272 9.45481C17.7272 10.7086 17.2292 11.911 16.3427 12.7975C15.4561 13.684 14.2537 14.1821 13 14.1821C11.7462 14.1821 10.5438 13.684 9.65729 12.7975C8.77076 11.911 8.27271 10.7086 8.27271 9.45481C8.27271 8.20106 8.77076 6.99866 9.65729 6.11212C10.5438 5.22559 11.7462 4.72754 13 4.72754C14.2537 4.72754 15.4561 5.22559 16.3427 6.11212C17.2292 6.99866 17.7272 8.20106 17.7272 9.45481V9.45481ZM15.3636 9.45481C15.3636 10.0817 15.1146 10.6829 14.6713 11.1262C14.2281 11.5694 13.6269 11.8184 13 11.8184C12.3731 11.8184 11.7719 11.5694 11.3286 11.1262C10.8854 10.6829 10.6363 10.0817 10.6363 9.45481C10.6363 8.82794 10.8854 8.22674 11.3286 7.78347C11.7719 7.3402 12.3731 7.09118 13 7.09118C13.6269 7.09118 14.2281 7.3402 14.6713 7.78347C15.1146 8.22674 15.3636 8.82794 15.3636 9.45481V9.45481Z" fill="#9378FF"/>
<path fill-rule="evenodd" clip-rule="evenodd" d="M13 0C5.82045 0 0 5.82045 0 13C0 20.1795 5.82045 26 13 26C20.1795 26 26 20.1795 26 13C26 5.82045 20.1795 0 13 0ZM2.36364 13C2.36364 15.47 3.20627 17.7438 4.61855 19.5496C5.61036 18.2472 6.88988 17.1916 8.35715 16.4655C9.82441 15.7393 11.4397 15.3622 13.0768 15.3636C14.6928 15.3621 16.2877 15.7294 17.7402 16.4377C19.1927 17.1459 20.4643 18.1763 21.4583 19.4504C22.4823 18.1073 23.1717 16.5398 23.4696 14.8774C23.7675 13.215 23.6652 11.5056 23.1713 9.89062C22.6774 8.2756 21.806 6.80142 20.6292 5.59004C19.4524 4.37867 18.0041 3.46492 16.4041 2.92442C14.8041 2.38391 13.0983 2.23218 11.428 2.48179C9.75771 2.73139 8.17084 3.37514 6.79873 4.35979C5.42661 5.34444 4.30869 6.64166 3.53745 8.14414C2.76622 9.64662 2.36385 11.3111 2.36364 13V13ZM13 23.6364C10.5583 23.64 8.19031 22.8 6.29673 21.2585C7.05892 20.1674 8.0734 19.2765 9.25386 18.6617C10.4343 18.0469 11.7458 17.7263 13.0768 17.7273C14.3912 17.7262 15.6868 18.0388 16.8562 18.639C18.0255 19.2391 19.0348 20.1096 19.8002 21.1782C17.8919 22.7697 15.4849 23.6398 13 23.6364V23.6364Z" fill="#9378FF"/>
</svg>
