<svg width="250" height="185" viewBox="0 0 250 185" fill="none" xmlns="http://www.w3.org/2000/svg">
<g clip-path="url(#clip0_412_2813)">
<path d="M248.615 10.9687H1.38482C1.01766 10.9683 0.665663 10.8216 0.406046 10.5607C0.14643 10.2998 0.0004013 9.94608 0 9.57714V1.39156C0.0004013 1.02262 0.14643 0.668903 0.406046 0.408022C0.665663 0.14714 1.01766 0.000402428 1.38482 0H248.615C248.982 0.000403257 249.334 0.147144 249.594 0.408026C249.854 0.668908 250 1.02262 250 1.39156V9.57716C250 9.94609 249.854 10.2998 249.594 10.5607C249.334 10.8216 248.982 10.9683 248.615 10.9687Z" fill="#E4E4E4"/>
<path d="M8.0364 7.06073C9.12225 7.06073 10.0025 6.17619 10.0025 5.08505C10.0025 3.99392 9.12225 3.10938 8.0364 3.10938C6.95056 3.10938 6.07031 3.99392 6.07031 5.08505C6.07031 6.17619 6.95056 7.06073 8.0364 7.06073Z" fill="black"/>
<path d="M15.4993 7.06073C16.5851 7.06073 17.4654 6.17619 17.4654 5.08505C17.4654 3.99392 16.5851 3.10938 15.4993 3.10938C14.4135 3.10938 13.5332 3.99392 13.5332 5.08505C13.5332 6.17619 14.4135 7.06073 15.4993 7.06073Z" fill="black"/>
<path d="M22.9622 7.06073C24.048 7.06073 24.9283 6.17619 24.9283 5.08505C24.9283 3.99392 24.048 3.10938 22.9622 3.10938C21.8763 3.10938 20.9961 3.99392 20.9961 5.08505C20.9961 6.17619 21.8763 7.06073 22.9622 7.06073Z" fill="black"/>
<path d="M241.303 3.72536H232.709C232.541 3.72499 232.379 3.65743 232.26 3.53751C232.141 3.41759 232.074 3.2551 232.074 3.0857C232.074 2.9163 232.141 2.75382 232.26 2.6339C232.379 2.51398 232.541 2.44642 232.709 2.44605H241.303C241.472 2.44592 241.633 2.5131 241.753 2.63281C241.872 2.75252 241.94 2.91498 241.94 3.0845C241.94 3.25402 241.874 3.41674 241.755 3.5369C241.636 3.65706 241.474 3.72485 241.305 3.72536H241.303Z" fill="black"/>
<path d="M241.303 6.12404H232.709C232.541 6.12367 232.379 6.05611 232.26 5.93619C232.141 5.81627 232.074 5.65379 232.074 5.48439C232.074 5.31498 232.141 5.1525 232.26 5.03258C232.379 4.91266 232.541 4.8451 232.709 4.84473H241.303C241.472 4.84461 241.633 4.91178 241.753 5.03149C241.872 5.1512 241.94 5.31367 241.94 5.48318C241.94 5.6527 241.874 5.81542 241.755 5.93558C241.636 6.05574 241.474 6.12353 241.305 6.12404H241.303Z" fill="black"/>
<path d="M241.303 8.52273H232.71C232.541 8.52273 232.379 8.45534 232.26 8.33538C232.14 8.21542 232.073 8.05272 232.073 7.88307C232.073 7.71342 232.14 7.55072 232.26 7.43076C232.379 7.3108 232.541 7.24341 232.71 7.24341H241.303C241.472 7.24309 241.634 7.31018 241.754 7.42991C241.873 7.54965 241.941 7.71222 241.941 7.88187C241.941 8.05152 241.875 8.21434 241.755 8.33453C241.636 8.45471 241.475 8.52241 241.306 8.52273H241.303Z" fill="black"/>
<path d="M70.4946 162.66C71.4043 155.31 75.9379 148.067 82.9145 145.675C80.1631 153.241 80.1637 161.541 82.9161 169.107C83.9882 172.021 85.4825 175.149 84.4741 178.086C83.8467 179.914 82.3118 181.312 80.5962 182.186C78.8804 183.06 76.9763 183.477 75.0959 183.885L74.7259 184.193C71.7409 177.42 69.5849 170.011 70.4946 162.66Z" fill="#C1C1C1"/>
<path d="M82.9837 145.814C78.9209 150.388 76.3957 156.133 75.7669 162.231C75.6083 163.542 75.6563 164.869 75.9091 166.165C76.1959 167.419 76.8117 168.573 77.6924 169.507C78.4961 170.394 79.4206 171.208 79.9957 172.276C80.282 172.828 80.4491 173.434 80.486 174.054C80.523 174.675 80.429 175.296 80.2102 175.878C79.7024 177.341 78.7017 178.534 77.6827 179.667C76.5513 180.924 75.3563 182.212 74.8753 183.878C74.8171 184.08 74.5087 183.978 74.5668 183.776C75.4036 180.876 78.2049 179.229 79.5408 176.617C80.1641 175.398 80.4258 173.984 79.8414 172.697C79.3304 171.572 78.3778 170.732 77.5563 169.84C76.6838 168.942 76.0436 167.842 75.6914 166.638C75.3738 165.36 75.275 164.036 75.3993 162.725C75.6321 159.767 76.3262 156.865 77.4562 154.124C78.7286 150.989 80.5254 148.095 82.7687 145.569C82.9076 145.413 83.1217 145.658 82.9837 145.814L82.9837 145.814Z" fill="white"/>
<path d="M75.8542 160.255C74.8503 160.011 73.9657 159.415 73.3584 158.575C72.7511 157.735 72.4606 156.706 72.5389 155.671C72.5425 155.629 72.5622 155.589 72.5939 155.562C72.6257 155.534 72.6669 155.519 72.709 155.521C72.7511 155.524 72.7907 155.542 72.8195 155.573C72.8483 155.604 72.8641 155.645 72.8635 155.687C72.7888 156.651 73.0595 157.61 73.6266 158.391C74.1937 159.171 75.0199 159.723 75.9561 159.945C76.1595 159.994 76.0564 160.304 75.8542 160.255Z" fill="white"/>
<path d="M77.2254 169.11C79.0387 168.023 80.3772 166.288 80.9742 164.252C81.0332 164.051 81.3416 164.153 81.2827 164.355C80.6575 166.472 79.2609 168.274 77.3715 169.402C77.1914 169.509 77.0462 169.217 77.2254 169.11Z" fill="white"/>
<path d="M79.0294 151.298C79.3982 151.474 79.8048 151.555 80.2126 151.535C80.6204 151.514 81.0166 151.391 81.3658 151.179C81.5445 151.069 81.6895 151.361 81.5119 151.47C81.1251 151.704 80.6873 151.838 80.2368 151.862C79.7863 151.886 79.3368 151.799 78.9276 151.608C78.8875 151.593 78.8545 151.564 78.8353 151.525C78.8161 151.487 78.8122 151.443 78.8242 151.402C78.8379 151.361 78.8672 151.327 78.9056 151.307C78.944 151.288 78.9885 151.285 79.0294 151.298Z" fill="white"/>
<path d="M104.179 158.804C104.07 158.876 103.96 158.947 103.85 159.022C102.381 159.993 100.993 161.082 99.6991 162.279C99.5976 162.37 99.4961 162.463 99.3974 162.557C96.3111 165.474 93.7905 168.941 91.9637 172.782C91.2382 174.312 90.6296 175.894 90.143 177.516C89.4711 179.756 88.9201 182.239 87.5901 184.071C87.4535 184.264 87.3052 184.448 87.1459 184.622H75.1275C75.1002 184.609 75.0727 184.598 75.0453 184.584L74.5654 184.606C74.5847 184.52 74.6065 184.432 74.6258 184.347C74.6368 184.297 74.6505 184.248 74.6614 184.198C74.6696 184.165 74.6779 184.132 74.6834 184.102C74.6861 184.091 74.6889 184.08 74.6916 184.071C74.6971 184.041 74.7054 184.013 74.7108 183.986C74.8315 183.493 74.9558 182.999 75.0837 182.506C75.0837 182.503 75.0837 182.503 75.0864 182.501C76.0256 178.733 77.4063 175.091 79.1995 171.65C79.2544 171.548 79.3091 171.443 79.3695 171.341C80.1999 169.818 81.1527 168.366 82.2185 166.999C82.8045 166.252 83.4278 165.536 84.0859 164.852C85.7897 163.09 87.7587 161.608 89.9209 160.46C94.2314 158.173 99.2219 157.297 103.829 158.694C103.946 158.73 104.062 158.766 104.179 158.804Z" fill="#C1C1C1"/>
<path d="M104.153 158.958C98.1686 160.152 92.7105 163.211 88.5544 167.7C87.6427 168.65 86.8856 169.739 86.3113 170.927C85.789 172.101 85.5893 173.395 85.7329 174.674C85.8429 175.869 86.0932 177.078 85.9124 178.279C85.8107 178.892 85.5812 179.477 85.2388 179.995C84.8964 180.513 84.449 180.952 83.9258 181.284C82.6436 182.145 81.1299 182.492 79.6378 182.78C77.9812 183.099 76.2555 183.405 74.8729 184.444C74.7054 184.57 74.5206 184.302 74.6879 184.176C77.0934 182.367 80.3169 182.747 82.9485 181.469C84.1764 180.873 85.233 179.902 85.5372 178.521C85.8032 177.314 85.5462 176.067 85.4243 174.858C85.266 173.613 85.4135 172.347 85.854 171.173C86.3663 169.96 87.0803 168.843 87.9654 167.871C89.9233 165.651 92.2164 163.753 94.7608 162.249C97.6552 160.515 100.823 159.292 104.128 158.632C104.333 158.591 104.356 158.917 104.153 158.958H104.153Z" fill="white"/>
<path d="M89.808 166.175C89.1532 165.372 88.8037 164.362 88.822 163.324C88.8403 162.286 89.2251 161.288 89.9078 160.509C90.0465 160.352 90.2961 160.561 90.1572 160.718C89.5201 161.443 89.1617 162.372 89.1467 163.339C89.1316 164.305 89.4609 165.245 90.0751 165.989C90.2084 166.151 89.9405 166.336 89.808 166.175Z" fill="white"/>
<path d="M85.597 174.075C87.6966 174.304 89.8047 173.728 91.501 172.464C91.6689 172.339 91.8537 172.607 91.686 172.733C89.9183 174.045 87.7233 174.639 85.5389 174.397C85.3307 174.373 85.3899 174.052 85.597 174.075Z" fill="white"/>
<path d="M97.71 160.944C97.8989 161.308 98.1748 161.619 98.5129 161.849C98.8509 162.079 99.2406 162.221 99.6468 162.263C99.8552 162.283 99.7958 162.604 99.5888 162.584C99.1402 162.536 98.7101 162.379 98.336 162.125C97.9619 161.872 97.6553 161.53 97.4429 161.13C97.4197 161.094 97.4111 161.051 97.4187 161.009C97.4263 160.966 97.4497 160.929 97.4839 160.903C97.5194 160.879 97.5631 160.869 97.6054 160.877C97.6477 160.885 97.6853 160.909 97.71 160.944L97.71 160.944Z" fill="white"/>
<path d="M81.0328 57.0741H41.2703C40.0416 57.0727 38.8635 56.5815 37.9947 55.7084C37.1258 54.8353 36.6371 53.6515 36.6357 52.4168V30.6546C36.6371 29.4199 37.1259 28.2361 37.9947 27.363C38.8636 26.49 40.0416 25.9989 41.2703 25.9976H81.0328C82.2616 25.9989 83.4396 26.49 84.3084 27.363C85.1773 28.2361 85.666 29.4199 85.6674 30.6546V52.4167C85.6661 53.6515 85.1773 54.8353 84.3085 55.7084C83.4396 56.5815 82.2616 57.0727 81.0328 57.0741Z" fill="#E6E6E6"/>
<path d="M141.738 57.0741H101.975C100.747 57.0727 99.5686 56.5815 98.6998 55.7084C97.8309 54.8353 97.3422 53.6515 97.3408 52.4168V30.6546C97.3422 29.4199 97.8309 28.2361 98.6998 27.363C99.5686 26.49 100.747 25.9989 101.975 25.9976H141.738C142.967 25.9989 144.145 26.49 145.014 27.363C145.882 28.2361 146.371 29.4199 146.372 30.6546V52.4167C146.371 53.6515 145.882 54.8353 145.014 55.7084C144.145 56.5815 142.967 57.0727 141.738 57.0741Z" fill="#131254"/>
<path d="M202.444 57.0741H162.681C161.453 57.0727 160.275 56.5815 159.406 55.7084C158.537 54.8353 158.048 53.6515 158.047 52.4168V30.6546C158.048 29.4199 158.537 28.2361 159.406 27.363C160.275 26.49 161.453 25.9989 162.681 25.9976H202.444C203.673 25.9989 204.851 26.49 205.72 27.363C206.588 28.2361 207.077 29.4199 207.079 30.6546V52.4167C207.077 53.6515 206.588 54.8353 205.72 55.7084C204.851 56.5815 203.673 57.0727 202.444 57.0741Z" fill="#E6E6E6"/>
<path d="M81.0328 105.563H41.2703C40.0416 105.561 38.8635 105.07 37.9947 104.197C37.1258 103.324 36.6371 102.14 36.6357 100.906V79.1434C36.6371 77.9086 37.1259 76.7249 37.9947 75.8518C38.8636 74.9788 40.0416 74.4877 41.2703 74.4863H81.0328C82.2616 74.4877 83.4396 74.9788 84.3084 75.8518C85.1773 76.7249 85.666 77.9086 85.6674 79.1433V100.906C85.6661 102.14 85.1773 103.324 84.3085 104.197C83.4396 105.07 82.2616 105.561 81.0328 105.563Z" fill="#F2F2F2"/>
<path d="M141.738 105.563H101.975C100.747 105.561 99.5686 105.07 98.6998 104.197C97.8309 103.324 97.3422 102.14 97.3408 100.906V79.1434C97.3422 77.9086 97.8309 76.7249 98.6998 75.8518C99.5686 74.9788 100.747 74.4877 101.975 74.4863H141.738C142.967 74.4877 144.145 74.9788 145.014 75.8518C145.882 76.7249 146.371 77.9086 146.372 79.1433V100.906C146.371 102.14 145.882 103.324 145.014 104.197C144.145 105.07 142.967 105.561 141.738 105.563Z" fill="#E6E6E6"/>
<path d="M144.546 109.567C148.468 109.567 151.648 106.372 151.648 102.431C151.648 98.4897 148.468 95.2947 144.546 95.2947C140.624 95.2947 137.444 98.4897 137.444 102.431C137.444 106.372 140.624 109.567 144.546 109.567Z" fill="#131254"/>
<path d="M147.496 101.832H145.081V99.4054C145.081 99.3305 145.066 99.2562 145.038 99.1869C145.009 99.1177 144.967 99.0547 144.915 99.0017C144.862 98.9487 144.799 98.9066 144.73 98.8779C144.661 98.8492 144.587 98.8345 144.513 98.8345C144.438 98.8345 144.364 98.8492 144.295 98.8779C144.226 98.9066 144.164 98.9487 144.111 99.0017C144.058 99.0547 144.016 99.1177 143.988 99.1869C143.959 99.2562 143.945 99.3305 143.945 99.4054V101.832H141.53C141.455 101.832 141.382 101.847 141.313 101.875C141.244 101.904 141.181 101.946 141.128 101.999C141.076 102.052 141.034 102.115 141.005 102.184C140.977 102.254 140.962 102.328 140.962 102.403C140.962 102.478 140.977 102.552 141.005 102.621C141.034 102.69 141.076 102.753 141.128 102.806C141.181 102.859 141.244 102.902 141.313 102.93C141.382 102.959 141.455 102.974 141.53 102.974H143.945V105.4C143.945 105.475 143.959 105.549 143.988 105.619C144.016 105.688 144.058 105.751 144.111 105.804C144.164 105.857 144.226 105.899 144.295 105.928C144.364 105.956 144.438 105.971 144.513 105.971C144.664 105.971 144.808 105.911 144.915 105.804C145.021 105.697 145.081 105.551 145.081 105.4V102.974H147.496C147.57 102.974 147.644 102.959 147.713 102.93C147.782 102.902 147.845 102.859 147.897 102.806C147.95 102.753 147.992 102.69 148.02 102.621C148.049 102.552 148.064 102.478 148.064 102.403C148.064 102.328 148.049 102.253 148.02 102.184C147.992 102.115 147.95 102.052 147.897 101.999C147.845 101.946 147.782 101.904 147.713 101.875C147.644 101.847 147.57 101.832 147.496 101.832L147.496 101.832Z" fill="white"/>
<path d="M206.186 62.3298C210.108 62.3298 213.287 59.1348 213.287 55.1935C213.287 51.2522 210.108 48.0571 206.186 48.0571C202.264 48.0571 199.084 51.2522 199.084 55.1935C199.084 59.1348 202.264 62.3298 206.186 62.3298Z" fill="#131254"/>
<path d="M209.135 54.5942H206.721V52.1679C206.721 52.0929 206.706 52.0187 206.677 51.9494C206.649 51.8801 206.607 51.8172 206.554 51.7642C206.501 51.7111 206.439 51.6691 206.37 51.6404C206.301 51.6117 206.227 51.5969 206.152 51.5969C206.078 51.5969 206.004 51.6117 205.935 51.6404C205.866 51.6691 205.803 51.7111 205.751 51.7642C205.698 51.8172 205.656 51.8801 205.628 51.9494C205.599 52.0187 205.584 52.0929 205.584 52.1679V54.5942H203.17C203.095 54.5942 203.021 54.609 202.952 54.6377C202.883 54.6664 202.821 54.7084 202.768 54.7615C202.715 54.8145 202.673 54.8774 202.645 54.9467C202.616 55.016 202.602 55.0902 202.602 55.1652C202.602 55.2402 202.616 55.3144 202.645 55.3837C202.673 55.4529 202.715 55.5159 202.768 55.5689C202.821 55.6219 202.883 55.664 202.952 55.6927C203.021 55.7214 203.095 55.7361 203.17 55.7361H205.584V58.1625C205.584 58.2375 205.599 58.3117 205.628 58.381C205.656 58.4502 205.698 58.5132 205.751 58.5662C205.803 58.6192 205.866 58.6613 205.935 58.69C206.004 58.7187 206.078 58.7334 206.152 58.7334C206.303 58.7334 206.448 58.6733 206.554 58.5662C206.661 58.4591 206.721 58.3139 206.721 58.1625V55.7361H209.135C209.21 55.7361 209.284 55.7213 209.353 55.6926C209.422 55.664 209.484 55.6219 209.537 55.5689C209.59 55.5159 209.632 55.4529 209.66 55.3837C209.689 55.3144 209.703 55.2401 209.703 55.1652C209.703 55.0902 209.689 55.0159 209.66 54.9467C209.632 54.8774 209.59 54.8145 209.537 54.7614C209.484 54.7084 209.422 54.6664 209.353 54.6377C209.284 54.609 209.21 54.5942 209.135 54.5942L209.135 54.5942Z" fill="white"/>
<path d="M83.84 61.7044C87.7622 61.7044 90.9417 58.5093 90.9417 54.568C90.9417 50.6267 87.7622 47.4316 83.84 47.4316C79.9178 47.4316 76.7383 50.6267 76.7383 54.568C76.7383 58.5093 79.9178 61.7044 83.84 61.7044Z" fill="#131254"/>
<path d="M86.7886 53.9687H84.374V51.5424C84.374 51.4674 84.3593 51.3932 84.3307 51.3239C84.3022 51.2546 84.2603 51.1917 84.2076 51.1387C84.1548 51.0856 84.0922 51.0436 84.0232 51.0149C83.9543 50.9862 83.8804 50.9714 83.8058 50.9714C83.7312 50.9714 83.6573 50.9862 83.5884 51.0149C83.5195 51.0436 83.4568 51.0856 83.4041 51.1387C83.3513 51.1917 83.3094 51.2546 83.2809 51.3239C83.2523 51.3932 83.2376 51.4674 83.2376 51.5424V53.9687H80.8231C80.7484 53.9687 80.6746 53.9835 80.6056 54.0122C80.5367 54.0409 80.4741 54.0829 80.4213 54.136C80.3685 54.189 80.3267 54.2519 80.2981 54.3212C80.2696 54.3905 80.2549 54.4647 80.2549 54.5397C80.2549 54.6911 80.3147 54.8363 80.4213 54.9434C80.5278 55.0505 80.6724 55.1106 80.8231 55.1106H83.2376V57.537C83.2376 57.612 83.2523 57.6862 83.2809 57.7555C83.3094 57.8248 83.3513 57.8877 83.404 57.9407C83.4568 57.9937 83.5194 58.0358 83.5884 58.0645C83.6573 58.0932 83.7312 58.1079 83.8058 58.1079C83.8804 58.1079 83.9543 58.0932 84.0232 58.0645C84.0922 58.0358 84.1548 57.9937 84.2076 57.9407C84.2603 57.8877 84.3022 57.8248 84.3307 57.7555C84.3593 57.6862 84.374 57.612 84.374 57.537V55.1106H86.7886C86.8632 55.1106 86.9371 55.0958 87.006 55.0672C87.0749 55.0385 87.1376 54.9964 87.1903 54.9434C87.2431 54.8904 87.2849 54.8274 87.3135 54.7582C87.342 54.6889 87.3567 54.6146 87.3567 54.5397C87.3567 54.3882 87.2969 54.243 87.1903 54.1359C87.0838 54.0289 86.9392 53.9687 86.7886 53.9687V53.9687Z" fill="white"/>
<path d="M137.009 44.7096C137.139 45.1034 137.181 45.521 137.132 45.9329C137.084 46.3448 136.946 46.7411 136.729 47.0938C136.512 47.4464 136.22 47.7469 135.875 47.9741C135.529 48.2013 135.139 48.3496 134.73 48.4086L131.446 70.9326L126.06 68.2889L131.478 45.8057C131.424 45.1094 131.627 44.4177 132.048 43.8617C132.468 43.3056 133.077 42.9239 133.759 42.7888C134.441 42.6537 135.148 42.7746 135.747 43.1286C136.346 43.4826 136.795 44.0451 137.009 44.7096L137.009 44.7096Z" fill="#E2BEC3"/>
<path d="M97.788 116.848C98.0278 116.511 98.191 116.124 98.2662 115.716C98.3413 115.309 98.3265 114.889 98.2229 114.488C98.1192 114.086 97.9292 113.712 97.6663 113.393C97.4033 113.073 97.0738 112.815 96.7009 112.637L98.9163 88.6785L94.2763 91.0684L92.8274 114.156C92.5715 114.805 92.5615 115.526 92.7993 116.182C93.037 116.838 93.5061 117.384 94.1175 117.716C94.729 118.048 95.4404 118.143 96.1168 117.983C96.7933 117.823 97.3879 117.419 97.788 116.848H97.788Z" fill="#E2BEC3"/>
<path d="M100.958 104.731L120.869 103.961L122.018 83.1826H99.043L100.958 104.731Z" fill="#E2BEC3"/>
<path d="M97.2623 178.111L100.665 178.111L102.284 164.923H97.2617L97.2623 178.111Z" fill="#E2BEC3"/>
<path d="M96.4184 176.425L101.797 176.102V178.418L106.911 181.967C107.164 182.142 107.354 182.394 107.454 182.685C107.554 182.977 107.559 183.293 107.467 183.588C107.376 183.882 107.193 184.139 106.946 184.322C106.699 184.505 106.4 184.604 106.093 184.604H99.6894L98.5856 182.313L98.1546 184.604H95.7402L96.4184 176.425Z" fill="#2F2E41"/>
<path d="M112.396 178.111L115.799 178.111L117.417 164.923H112.396L112.396 178.111Z" fill="#E2BEC3"/>
<path d="M100.681 99.8528C100.681 99.8528 94.7236 104.686 97.9533 121.947C97.4615 122.006 98.0184 122.981 98.0184 122.981L98.4844 137.045L98.8446 138.657L97.6472 141.258L98.1408 144.084L96.6191 169.734L102.241 170.464L107.62 143.829L108.645 140.834L109.672 138.209L109.118 135.41L109.573 131.066L112.674 116.416L113.433 141.824L112.374 144.249L112.963 146.912L111.65 148.325L111.131 172.097L117.125 172.379L122.084 148.415L121.7 145.357L122.36 143.096V137.815L123.49 135.322L125.953 121.73C125.953 121.73 126.697 111.107 121.274 98.6062L100.681 99.8528Z" fill="#2F2E41"/>
<path d="M103.11 65.9136C103.11 65.9136 95.5846 67.409 94.288 73.8578C92.9914 80.3065 92.1572 94.8996 92.1572 94.8996L92.4412 96.9319L99.7202 98.628L104.366 78.1805L103.11 65.9136Z" fill="#944E4E"/>
<path d="M120.283 68.0903C120.283 68.0903 121.046 67.0163 125.317 66.8506C125.493 66.8438 125.276 66.4932 125.276 66.4932L127.33 56.4036L134.176 60.2124L133.02 70.7901L121.771 83.6476L120.283 68.0903Z" fill="#944E4E"/>
<path d="M116.016 98.1693C112.793 98.1695 107.942 97.8121 100.638 96.7226C100.168 96.6513 99.7325 96.4307 99.3956 96.0931C99.0588 95.7555 98.8383 95.3185 98.7662 94.846C98.5276 94.5929 98.3725 94.2722 98.3217 93.9274C98.2709 93.5826 98.3271 93.2305 98.4824 92.9189L98.4892 92.9055L98.3238 92.7095C98.0678 92.4074 97.9175 92.0294 97.8957 91.6332C97.874 91.2371 97.982 90.8447 98.2033 90.5161L95.9416 74.2568C95.712 72.6422 96.0634 70.9983 96.9324 69.6208C97.8014 68.2432 99.131 67.2225 100.682 66.7422L101.517 66.481L104.675 62.3308L104.737 62.3315L114.873 62.4671L118.163 66.6648L123.48 67.9247L123.494 68.0061L124.729 75.1742C125.371 78.9025 123.898 80.3691 122.019 83.6477L122.57 92.8556L122.821 93.3126C122.96 93.5656 123.006 93.8594 122.952 94.1432C122.898 94.427 122.747 94.6829 122.526 94.8667C122.693 95.3483 122.705 95.871 122.558 96.3596L122.428 96.7915C122.428 96.8039 122.394 96.9795 122.113 97.1937C121.607 97.5801 120.153 98.1693 116.016 98.1693Z" fill="#944E4E"/>
<path d="M111.552 176.425L116.931 176.102V178.418L122.045 181.967C122.297 182.142 122.488 182.394 122.588 182.685C122.688 182.977 122.693 183.293 122.601 183.588C122.51 183.882 122.327 184.139 122.08 184.322C121.833 184.505 121.534 184.604 121.227 184.604H114.823L113.719 182.313L113.288 184.604H110.874L111.552 176.425Z" fill="#2F2E41"/>
<path d="M117.201 53.2867C117.904 48.9334 114.962 44.8316 110.63 44.1252C106.298 43.4187 102.216 46.3751 101.513 50.7285C100.81 55.0818 103.752 59.1835 108.084 59.89C112.417 60.5964 116.498 57.64 117.201 53.2867Z" fill="#E2BEC3"/>
<path d="M114.004 44.2049C111.092 42.192 108.527 41.8853 106.42 42.4563C106.147 42.0317 105.764 41.69 105.312 41.4677C103.669 37.307 98.6681 34.8083 94.3766 36.023C90.0573 37.2455 87.077 42.0533 87.8898 46.488C88.3934 49.2368 90.115 51.6171 90.8075 54.3242C92.1479 59.5645 88.878 65.5674 83.7627 67.2566C88.606 68.2338 93.9372 65.261 95.6747 60.6141C96.5187 58.357 96.5696 55.8928 96.6769 53.4841C96.7051 51.8215 96.9078 50.1665 97.2816 48.5466C97.4671 47.8199 97.7292 47.1152 98.0635 46.4443C98.7917 44.9698 100.001 43.7907 101.49 43.104C101.356 43.5183 101.323 43.9586 101.393 44.3884C101.462 44.8183 101.632 45.2254 101.889 45.5761C100.753 47.0059 100.135 48.5522 100.135 49.4781C97.7752 53.8117 101.149 57.534 105.462 59.905C107.182 60.8556 109.168 61.2036 111.107 60.8939L111.287 60.12L111.532 60.8171L112.348 63.1543C113.289 63.612 114.222 64.1136 115.147 64.6592C114.796 63.0008 114.512 61.3454 114.316 59.7268C114.045 57.5239 114.989 54.2443 115.671 52.2499C116.093 51.0207 116.31 49.7297 116.312 48.4294V48.3725L116.975 50.5131L119.39 49.4781C118.94 46.8891 119.39 43.9499 114.004 44.2049Z" fill="#2F2E41"/>
<path d="M213.302 185H36.6969C36.599 185 36.5052 184.96 36.436 184.89C36.3669 184.821 36.3281 184.726 36.3281 184.628C36.3281 184.529 36.3669 184.435 36.436 184.365C36.5052 184.295 36.599 184.256 36.6969 184.255H213.302C213.4 184.256 213.494 184.295 213.563 184.365C213.633 184.435 213.671 184.529 213.671 184.628C213.671 184.726 213.633 184.821 213.563 184.89C213.494 184.96 213.4 185 213.302 185Z" fill="#CCCCCC"/>
<path d="M83.0285 110.505C86.9507 110.505 90.1302 107.31 90.1302 103.369C90.1302 99.4275 86.9507 96.2324 83.0285 96.2324C79.1063 96.2324 75.9268 99.4275 75.9268 103.369C75.9268 107.31 79.1063 110.505 83.0285 110.505Z" fill="#E6E6E6"/>
<path d="M189.882 99.2675H164.973C164.203 99.2666 163.465 98.9589 162.921 98.412C162.376 97.865 162.07 97.1234 162.069 96.3499V82.7172C162.07 81.9437 162.376 81.2021 162.921 80.6552C163.465 80.1083 164.203 79.8006 164.973 79.7998H189.882C190.651 79.8006 191.389 80.1083 191.934 80.6552C192.478 81.2021 192.784 81.9437 192.785 82.7172V96.3499C192.784 97.1234 192.478 97.865 191.934 98.412C191.389 98.9589 190.651 99.2666 189.882 99.2675Z" fill="#F2F2F2"/>
<path d="M190.248 93.7297C192.331 93.7297 194.019 92.033 194.019 89.9399C194.019 87.8469 192.331 86.1501 190.248 86.1501C188.165 86.1501 186.477 87.8469 186.477 89.9399C186.477 92.033 188.165 93.7297 190.248 93.7297Z" fill="#131254"/>
<path d="M191.814 89.6218H190.532V88.3332C190.532 88.2934 190.524 88.254 190.509 88.2172C190.494 88.1804 190.472 88.147 190.444 88.1188C190.416 88.0907 190.383 88.0683 190.346 88.0531C190.309 88.0379 190.27 88.03 190.23 88.03C190.15 88.03 190.074 88.062 190.017 88.1188C189.961 88.1757 189.929 88.2528 189.929 88.3332V89.6218H188.646C188.566 89.6218 188.49 89.6537 188.433 89.7106C188.377 89.7674 188.345 89.8445 188.345 89.925C188.345 89.9648 188.353 90.0042 188.368 90.041C188.383 90.0778 188.405 90.1112 188.433 90.1394C188.461 90.1675 188.494 90.1899 188.531 90.2051C188.568 90.2203 188.607 90.2282 188.646 90.2282H189.929V91.5167C189.929 91.5565 189.937 91.5959 189.952 91.6327C189.967 91.6695 189.989 91.7029 190.017 91.7311C190.045 91.7592 190.078 91.7816 190.115 91.7968C190.152 91.812 190.191 91.8199 190.23 91.8199C190.311 91.8199 190.387 91.7879 190.444 91.7311C190.5 91.6742 190.532 91.5971 190.532 91.5167V90.2282H191.815C191.895 90.2282 191.971 90.1962 192.028 90.1394C192.084 90.0825 192.116 90.0054 192.116 89.925C192.116 89.8852 192.108 89.8457 192.093 89.8089C192.078 89.7722 192.056 89.7387 192.028 89.7106C192 89.6824 191.967 89.6601 191.93 89.6448C191.893 89.6296 191.854 89.6218 191.815 89.6218L191.814 89.6218Z" fill="white"/>
<path d="M200.029 95.3986H179.502C178.631 95.3976 177.796 95.0494 177.179 94.4304C176.563 93.8113 176.217 92.972 176.216 92.0965V79.7835C176.216 79.6224 176.28 79.468 176.394 79.3542C176.507 79.2404 176.661 79.1765 176.821 79.1765C176.982 79.1765 177.135 79.2404 177.249 79.3542C177.362 79.468 177.426 79.6224 177.427 79.7835V83.0811L201.27 85.2591C201.747 85.2676 202.201 85.4636 202.535 85.8048C202.869 86.1461 203.056 86.6054 203.056 87.0841C203.056 87.1217 203.053 87.1592 203.046 87.1962L201.845 93.6356C201.828 94.1085 201.63 94.5564 201.291 94.8852C200.952 95.214 200.5 95.3981 200.029 95.3986ZM177.427 84.3028V92.0965C177.427 92.6494 177.646 93.1794 178.035 93.5704C178.424 93.9613 178.952 94.1812 179.502 94.1818H200.029C200.19 94.1817 200.344 94.1175 200.457 94.0034C200.571 93.8894 200.635 93.7347 200.635 93.5734C200.635 93.5358 200.638 93.4983 200.645 93.4614L201.844 87.0371C201.832 86.8844 201.763 86.7418 201.651 86.6378C201.539 86.5337 201.393 86.4759 201.24 86.4757C201.222 86.4757 201.204 86.4749 201.185 86.4731L177.427 84.3028Z" fill="#131254"/>
<path d="M174.048 101.077C174.605 101.077 175.057 100.623 175.057 100.063C175.057 99.5028 174.605 99.0488 174.048 99.0488C173.491 99.0488 173.039 99.5028 173.039 100.063C173.039 100.623 173.491 101.077 174.048 101.077Z" fill="#131254"/>
<path d="M199.222 101.077C199.779 101.077 200.231 100.623 200.231 100.063C200.231 99.5028 199.779 99.0488 199.222 99.0488C198.665 99.0488 198.213 99.5028 198.213 100.063C198.213 100.623 198.665 101.077 199.222 101.077Z" fill="#131254"/>
<path d="M200.231 99.0488H173.24C173.08 99.0488 172.926 98.9847 172.812 98.8706C172.699 98.7565 172.635 98.6018 172.635 98.4404C172.635 98.2791 172.699 98.1243 172.812 98.0102C172.926 97.8961 173.08 97.832 173.24 97.832H200.231C200.392 97.832 200.546 97.8961 200.659 98.0102C200.773 98.1243 200.837 98.2791 200.837 98.4404C200.837 98.6018 200.773 98.7565 200.659 98.8706C200.546 98.9847 200.392 99.0488 200.231 99.0488Z" fill="#131254"/>
<path d="M178.436 80.1892H173.189C173.029 80.1888 172.875 80.1245 172.762 80.0105C172.649 79.8964 172.585 79.7419 172.585 79.5808C172.585 79.4197 172.649 79.2651 172.762 79.1511C172.875 79.037 173.029 78.9728 173.189 78.9724H178.436C178.596 78.9728 178.75 79.037 178.863 79.1511C178.977 79.2651 179.04 79.4197 179.04 79.5808C179.04 79.7419 178.977 79.8964 178.863 80.0105C178.75 80.1245 178.596 80.1888 178.436 80.1892Z" fill="#131254"/>
<path d="M182.645 98.7392C182.5 98.7393 182.36 98.6872 182.251 98.5922L178.271 95.1558C178.211 95.1038 178.161 95.0403 178.125 94.969C178.089 94.8977 178.067 94.8199 178.061 94.7401C178.055 94.6604 178.065 94.5802 178.09 94.5042C178.114 94.4281 178.154 94.3578 178.206 94.2971C178.258 94.2364 178.321 94.1866 178.392 94.1506C178.463 94.1145 178.541 94.0929 178.62 94.0869C178.699 94.0809 178.779 94.0908 178.855 94.1158C178.93 94.1409 179 94.1807 179.061 94.233L183.04 97.6694C183.134 97.7504 183.201 97.8583 183.231 97.9786C183.262 98.0989 183.256 98.2258 183.213 98.3423C183.17 98.4589 183.092 98.5593 182.991 98.6303C182.889 98.7012 182.769 98.7392 182.645 98.7392V98.7392Z" fill="#131254"/>
<path d="M183.483 95.0249C183.404 95.0249 183.325 95.0092 183.252 94.9786C183.178 94.9481 183.112 94.9033 183.055 94.8468C182.999 94.7903 182.954 94.7232 182.924 94.6494C182.894 94.5756 182.878 94.4965 182.878 94.4166V84.6506C182.878 84.4893 182.942 84.3345 183.055 84.2204C183.169 84.1063 183.323 84.0422 183.483 84.0422C183.644 84.0422 183.798 84.1063 183.911 84.2204C184.025 84.3345 184.089 84.4893 184.089 84.6506V94.4166C184.089 94.4965 184.073 94.5756 184.043 94.6494C184.012 94.7232 183.968 94.7902 183.912 94.8467C183.855 94.9032 183.789 94.948 183.715 94.9786C183.642 95.0092 183.563 95.0249 183.483 95.0249H183.483Z" fill="#131254"/>
<path d="M196.273 95.0249C196.194 95.0249 196.115 95.0092 196.042 94.9786C195.968 94.948 195.902 94.9032 195.845 94.8467C195.789 94.7903 195.744 94.7232 195.714 94.6494C195.684 94.5756 195.668 94.4965 195.668 94.4166V85.4617C195.668 85.3006 195.732 85.1462 195.846 85.0324C195.959 84.9186 196.113 84.8547 196.273 84.8547C196.434 84.8547 196.588 84.9186 196.701 85.0324C196.815 85.1462 196.878 85.3006 196.879 85.4617V94.4165C196.879 94.4964 196.863 94.5755 196.833 94.6493C196.802 94.7231 196.758 94.7902 196.702 94.8467C196.645 94.9032 196.579 94.948 196.505 94.9786C196.432 95.0092 196.353 95.0249 196.273 95.0249H196.273Z" fill="#131254"/>
</g>
<defs>
<clipPath id="clip0_412_2813">
<rect width="250" height="185" fill="white"/>
</clipPath>
</defs>
</svg>
