<svg width="250" height="185" viewBox="0 0 250 185" fill="none" xmlns="http://www.w3.org/2000/svg">
<g clip-path="url(#clip0_412_2892)">
<path d="M86.7654 173.18L79.1421 178.341L86.6575 176.226C86.5996 176.949 86.5208 177.66 86.4157 178.356C86.3867 178.549 86.3553 178.739 86.321 178.929C86.0641 180.526 85.5987 182.068 84.9409 183.501C84.8147 183.765 84.6886 184.022 84.5571 184.271C84.431 184.522 84.2995 184.764 84.1655 185H63.9587C63.7904 184.764 63.6301 184.519 63.4829 184.271C62.0421 181.906 61.4584 178.975 61.8584 176.113C61.9318 175.531 62.0372 174.954 62.1738 174.388C62.3063 173.808 62.4669 173.239 62.6549 172.681C62.9831 171.695 63.3705 170.738 63.8142 169.815C64.7395 167.872 66.1826 166.12 67.8834 164.563C68.7068 163.814 69.5651 163.118 70.4542 162.479C70.6225 162.353 70.7934 162.231 70.9669 162.111C71.2323 161.927 71.4979 161.747 71.766 161.572C72.2996 161.216 72.8384 160.879 73.3773 160.561C73.5193 160.475 73.6586 160.392 73.798 160.312C74.9677 159.632 76.1322 159.022 77.2415 158.486C77.3808 158.419 77.5228 158.351 77.6621 158.287C79.8688 157.234 82.1263 156.333 84.4231 155.587C84.4231 155.587 84.431 155.611 84.4442 155.664C84.4783 155.804 84.5651 156.145 84.6833 156.647C85.0119 158.042 85.5903 160.702 86.0555 163.913C86.0819 164.088 86.1055 164.266 86.1318 164.443C86.5204 167.16 86.7357 169.906 86.7757 172.659C86.7784 172.831 86.7784 172.999 86.7784 173.171L86.7654 173.18Z" fill="#B9B9B9"/>
<path d="M84.9805 155.274C84.9778 155.284 84.9514 155.434 84.891 155.71C84.8411 155.939 84.7728 156.255 84.6833 156.647C84.3758 158.017 83.829 160.312 83.0509 163.077C83.0062 163.236 82.9589 163.401 82.9116 163.567C82.3701 165.458 81.726 167.548 80.9822 169.696C80.7954 170.235 80.6088 170.765 80.4169 171.283C80.3592 171.446 80.3013 171.605 80.2408 171.761C79.4259 173.962 78.5874 175.975 77.7252 177.801L77.507 178.258C76.5048 180.377 75.3446 182.389 74.0398 184.271C73.8637 184.522 73.6849 184.764 73.5035 185H72.8936C73.0776 184.764 73.2617 184.519 73.4403 184.271C74.8202 182.324 76.0409 180.231 77.0864 178.019C77.1601 177.869 77.2336 177.719 77.3046 177.566C78.2325 175.601 79.0764 173.548 79.8307 171.513C79.8912 171.357 79.9491 171.197 80.0068 171.035C80.9926 168.344 81.8208 165.7 82.4883 163.371C82.5357 163.205 82.5831 163.04 82.6277 162.877C83.6004 159.439 84.2102 156.742 84.4442 155.664C84.4757 155.504 84.502 155.379 84.5204 155.293C84.5388 155.213 84.5466 155.167 84.5493 155.158L84.7623 155.216H84.7648L84.9805 155.274Z" fill="white"/>
<path d="M86.458 163.953C86.3239 163.944 86.1898 163.928 86.0558 163.913C85.0272 163.789 84.017 163.507 83.0512 163.077C82.9119 163.012 82.7699 162.948 82.628 162.877C82.2435 162.685 81.868 162.469 81.5028 162.231C79.9925 161.256 78.682 159.911 77.6623 158.287C77.6282 158.235 77.594 158.18 77.5625 158.127C77.4258 158.195 77.2865 158.262 77.1445 158.33C77.176 158.382 77.2076 158.434 77.2417 158.486C78.3057 160.219 79.6878 161.653 81.2873 162.684C81.6771 162.938 82.0781 163.167 82.4886 163.371C82.628 163.438 82.7699 163.506 82.9119 163.567C83.9466 164.026 85.0298 164.321 86.1321 164.443C86.2635 164.459 86.3975 164.471 86.5289 164.48C86.5053 164.299 86.4817 164.125 86.458 163.953Z" fill="white"/>
<path d="M86.7762 172.659C84.5883 172.892 82.3878 172.416 80.4173 171.283C80.2781 171.207 80.1414 171.124 80.0072 171.035C79.9647 171.013 79.9235 170.987 79.8838 170.958C78.2153 169.877 76.7926 168.347 75.7341 166.495C74.6756 164.644 74.0119 162.524 73.7983 160.312C73.7931 160.26 73.7878 160.205 73.7826 160.153C73.6406 160.239 73.4986 160.322 73.3594 160.407C73.3645 160.46 73.3698 160.509 73.3777 160.561C73.6206 162.819 74.3168 164.978 75.4098 166.863C76.5028 168.749 77.9618 170.307 79.6683 171.412C79.7208 171.446 79.7759 171.483 79.8311 171.513C79.9678 171.599 80.1045 171.682 80.2412 171.761C82.2646 172.918 84.5206 173.409 86.7658 173.18C86.884 173.168 87.0023 173.153 87.1205 173.137C87.1205 172.963 87.1232 172.791 87.1232 172.616C87.0076 172.632 86.8918 172.647 86.7762 172.659Z" fill="white"/>
<path d="M86.4161 178.356C84.0494 179.262 81.4995 179.284 79.1214 178.421C78.6453 178.249 78.179 178.042 77.7256 177.802C77.5836 177.728 77.4442 177.648 77.3049 177.566C77.1551 177.48 77.0079 177.388 76.8633 177.296C74.8972 176.02 73.2783 174.125 72.1912 171.829C71.104 169.532 70.5925 166.925 70.7148 164.306C70.7469 163.567 70.8313 162.833 70.9672 162.111C70.975 162.062 70.983 162.013 70.9935 161.964C70.82 162.09 70.6464 162.216 70.4756 162.344C70.4678 162.39 70.4598 162.433 70.4545 162.479C70.3005 163.469 70.2361 164.474 70.2626 165.479C70.3207 167.994 70.9399 170.448 72.0591 172.599C73.1783 174.75 74.7589 176.524 76.6452 177.746C76.7923 177.841 76.9395 177.933 77.0867 178.019C77.2261 178.102 77.3681 178.182 77.5074 178.258C80.2751 179.735 83.4123 179.974 86.3213 178.929C86.4186 178.899 86.5159 178.862 86.6132 178.825C86.6526 178.629 86.6868 178.433 86.7183 178.237C86.6185 178.28 86.5185 178.319 86.4161 178.356Z" fill="white"/>
<path d="M68.3565 75.5457H53.6357V92.7068H68.3565V75.5457Z" fill="#E7BCC3"/>
<path d="M44.4556 178.112L47.3561 178.112L48.7357 165.07L44.4551 165.071L44.4556 178.112Z" fill="#E7BCC3"/>
<path d="M52.4166 181.923L48.0583 178.414V176.125L47.564 176.159L44.4569 176.377L43.4737 176.444L42.9139 184.271L42.8955 184.531H44.9538L44.9958 184.271L45.3218 182.266L46.1551 184.271L46.2629 184.531H51.72C52.045 184.53 52.3564 184.38 52.5864 184.112C52.8165 183.845 52.9463 183.482 52.9476 183.103C52.9478 182.871 52.8996 182.642 52.807 182.437C52.7145 182.231 52.5805 182.055 52.4166 181.923Z" fill="#2F2E41"/>
<path d="M61.418 175.966L64.2054 176.9L68.6238 164.811L64.5099 163.432L61.418 175.966Z" fill="#E7BCC3"/>
<path d="M68.1648 182.196L64.8079 177.419L65.352 175.218L64.8684 175.093L62.174 174.388L61.8296 174.299L60.8701 174.048L58.3965 181.632L60.3733 182.297L61.2644 180.238L61.6299 182.717L62.8758 183.134L66.2642 184.271L66.8767 184.476C67.1282 184.561 67.3963 184.55 67.6419 184.444C67.8876 184.339 68.0978 184.145 68.2417 183.89C68.3857 183.635 68.4559 183.333 68.4421 183.028C68.4282 182.723 68.331 182.432 68.1648 182.196V182.196Z" fill="#2F2E41"/>
<path d="M243.989 24.9724H204.182C203.905 24.9732 203.639 25.102 203.443 25.3305C203.247 25.5591 203.136 25.8689 203.136 26.1921V45.0234C203.136 45.3466 203.247 45.6563 203.443 45.8849C203.639 46.1134 203.905 46.2422 204.182 46.243H243.989C244.266 46.2427 244.532 46.1141 244.728 45.8854C244.924 45.6568 245.035 45.3467 245.035 45.0234V26.1921C245.035 25.8687 244.924 25.5587 244.728 25.33C244.532 25.1013 244.266 24.9727 243.989 24.9724Z" fill="#BBBBBB"/>
<path d="M240.197 52.3476H207.972C207.639 52.3476 207.32 52.5018 207.084 52.7762C206.849 53.0506 206.717 53.4228 206.717 53.8109C206.717 54.199 206.849 54.5712 207.084 54.8456C207.32 55.12 207.639 55.2742 207.972 55.2742H240.197C241.832 55.3018 241.817 52.32 240.197 52.3476Z" fill="#BBBBBB"/>
<path d="M240.197 59.0556H207.972C207.639 59.0556 207.32 59.2098 207.084 59.4842C206.849 59.7586 206.717 60.1308 206.717 60.5189C206.717 60.907 206.849 61.2792 207.084 61.5536C207.32 61.828 207.639 61.9822 207.972 61.9822H240.197C241.832 62.0098 241.817 59.028 240.197 59.0556Z" fill="#BBBBBB"/>
<path d="M240.197 65.7639H207.972C207.639 65.7639 207.32 65.918 207.084 66.1924C206.849 66.4669 206.717 66.8391 206.717 67.2272C206.717 67.6152 206.849 67.9874 207.084 68.2619C207.32 68.5363 207.639 68.6904 207.972 68.6904H240.197C241.832 68.718 241.817 65.7363 240.197 65.7639Z" fill="#BBBBBB"/>
<path d="M191.677 24.9724H151.87C151.593 24.9732 151.327 25.102 151.131 25.3305C150.935 25.5591 150.825 25.8689 150.824 26.1921V45.0234C150.825 45.3466 150.935 45.6563 151.131 45.8849C151.327 46.1134 151.593 46.2422 151.87 46.243H191.677C191.954 46.2427 192.22 46.1141 192.416 45.8854C192.612 45.6568 192.723 45.3467 192.723 45.0234V26.1921C192.723 25.8687 192.612 25.5587 192.416 25.33C192.22 25.1013 191.954 24.9727 191.677 24.9724Z" fill="#BBBBBB"/>
<path d="M187.887 52.3476H155.661C155.329 52.3476 155.009 52.5018 154.774 52.7762C154.539 53.0506 154.406 53.4228 154.406 53.8109C154.406 54.199 154.539 54.5712 154.774 54.8456C155.009 55.12 155.329 55.2742 155.661 55.2742H187.887C189.522 55.3018 189.506 52.32 187.887 52.3476Z" fill="#BBBBBB"/>
<path d="M187.887 59.0556H155.661C155.329 59.0556 155.009 59.2098 154.774 59.4842C154.539 59.7586 154.406 60.1308 154.406 60.5189C154.406 60.907 154.539 61.2792 154.774 61.5536C155.009 61.828 155.329 61.9822 155.661 61.9822H187.887C189.522 62.0098 189.506 59.028 187.887 59.0556Z" fill="#BBBBBB"/>
<path d="M187.887 65.7639H155.661C155.329 65.7639 155.009 65.918 154.774 66.1924C154.539 66.4669 154.406 66.8391 154.406 67.2272C154.406 67.6152 154.539 67.9874 154.774 68.2619C155.009 68.5363 155.329 68.6904 155.661 68.6904H187.887C189.522 68.718 189.506 65.7363 187.887 65.7639Z" fill="#BBBBBB"/>
<path d="M91.8617 60.5871C91.811 60.7614 91.7737 60.9406 91.7505 61.1227L75.4514 57.7641L61.4121 48.9386C60.529 48.3833 59.4981 48.2392 58.5274 48.5352C57.5566 48.8312 56.7183 49.5453 56.1815 50.5336C55.6447 51.5218 55.4493 52.7106 55.6347 53.8602C55.8202 55.0098 56.3727 56.0346 57.1808 56.7279H57.1808C59.7996 58.975 62.7029 60.7321 65.7861 61.9362L75.9644 65.9106L93.7926 64.5784C94.2876 64.7029 94.803 64.658 95.2767 64.4491C95.7504 64.2401 96.1622 63.8761 96.4626 63.4007C96.763 62.9253 96.9391 62.3589 96.9699 61.7696C97.0006 61.1802 96.8846 60.5931 96.6358 60.0788C96.387 59.5645 96.016 59.145 95.5675 58.8707C95.119 58.5965 94.6121 58.4791 94.1077 58.5328C93.6034 58.5865 93.1231 58.809 92.7246 59.1735C92.3261 59.5379 92.0265 60.0288 91.8617 60.5871Z" fill="#E7BCC3"/>
<path d="M131.953 60.6462H81.2133C80.8593 60.6468 80.5199 60.811 80.2696 61.1028C80.0193 61.3947 79.8784 61.7903 79.8779 62.203V86.201C79.8784 86.6137 80.0193 87.0093 80.2696 87.3012C80.5199 87.593 80.8593 87.7572 81.2133 87.7577H131.953C132.306 87.7565 132.645 87.592 132.895 87.3002C133.144 87.0085 133.285 86.6132 133.285 86.201V62.203C133.285 61.7908 133.144 61.3955 132.895 61.1037C132.645 60.812 132.306 60.6475 131.953 60.6462Z" fill="#131254"/>
<path d="M127.121 95.5386H86.0452C85.6206 95.5386 85.2134 95.7352 84.9132 96.0852C84.613 96.4352 84.4443 96.9099 84.4443 97.4048C84.4443 97.8998 84.613 98.3745 84.9132 98.7245C85.2134 99.0745 85.6206 99.2711 86.0452 99.2711H127.121C129.206 99.3048 129.185 95.5048 127.121 95.5386Z" fill="#131254"/>
<path d="M127.121 104.088H86.0452C85.6206 104.088 85.2134 104.285 84.9132 104.635C84.613 104.985 84.4443 105.46 84.4443 105.955C84.4443 106.45 84.613 106.924 84.9132 107.274C85.2134 107.624 85.6206 107.821 86.0452 107.821H127.121C129.206 107.855 129.185 104.055 127.121 104.088Z" fill="#131254"/>
<path d="M127.121 112.641H86.0449C85.8348 112.641 85.6268 112.69 85.4328 112.783C85.2387 112.877 85.0623 113.014 84.9138 113.188C84.7653 113.361 84.6475 113.566 84.5671 113.792C84.4867 114.019 84.4453 114.261 84.4453 114.506C84.4453 114.751 84.4867 114.993 84.5671 115.22C84.6475 115.446 84.7653 115.652 84.9138 115.825C85.0623 115.998 85.2387 116.135 85.4328 116.229C85.6268 116.323 85.8348 116.371 86.0449 116.371H127.121C129.206 116.405 129.185 112.608 127.121 112.641Z" fill="#131254"/>
<path d="M68.6492 40.4196C70.7194 36.0047 69.3276 30.4693 65.5405 28.0559C61.7534 25.6425 57.0052 27.265 54.935 31.6799C52.8648 36.0948 54.2566 41.6303 58.0436 44.0437C61.8307 46.4571 66.579 44.8345 68.6492 40.4196Z" fill="#E7BCC3"/>
<path d="M63.0988 24.9817H58.0506C54.7411 24.9817 52.0582 28.5003 52.0582 32.8408C49.5609 35.7639 50.3104 39.4261 52.2918 43.3686C55.8678 43.8872 59.3654 44.9778 62.686 46.6095L63.1571 44.2638L64.0866 47.3531C64.9132 47.82 65.7327 48.3305 66.5453 48.8847C65.5969 43.69 65.2066 38.5074 65.8577 34.4816H67.5675V32.3003L68.148 34.4816H71.2477C71.2477 33.234 71.037 31.9987 70.6274 30.8461C70.2179 29.6935 69.6177 28.6463 68.861 27.7641C68.1043 26.882 67.2059 26.1822 66.2172 25.7048C65.2286 25.2274 64.1689 24.9817 63.0988 24.9817Z" fill="#2F2E41"/>
<path d="M62.5735 47.6589L53.1219 47.1812L52.8677 48.307C50.7766 57.5685 50.4536 67.252 51.9216 76.6749C52.2023 76.9829 52.4074 77.3727 52.5157 77.804C52.624 78.2353 52.6317 78.6925 52.5379 79.1284L52.4021 79.7594L52.4147 79.7826C52.8603 80.6023 53.0115 81.5935 52.8357 82.5421L53.3084 85.5765L68.6195 77.6908L72.0368 63.9007L62.5735 47.6589Z" fill="#944E4E"/>
<path d="M85.9968 76.7236C85.8907 76.8599 85.7953 77.0069 85.7117 77.1631L71.9102 66.5118L62.0498 51.896C61.4296 50.9765 60.5333 50.3654 59.5418 50.186C58.5503 50.0066 57.5373 50.2723 56.7071 50.9293C55.877 51.5864 55.2915 52.586 55.0687 53.7265C54.8459 54.867 55.0024 56.0636 55.5066 57.0749C57.1405 60.3523 59.2028 63.3125 61.6192 65.8489L69.5963 74.222L86.4036 81.2812C86.8151 81.6254 87.3031 81.8236 87.809 81.852C88.3149 81.8804 88.817 81.7377 89.255 81.4412C89.693 81.1448 90.0482 80.707 90.2778 80.1808C90.5074 79.6545 90.6016 79.0621 90.5492 78.4748C90.4968 77.8876 90.2999 77.3305 89.9823 76.8706C89.6647 76.4107 89.2398 76.0676 88.7589 75.8826C88.2779 75.6976 87.7614 75.6785 87.2713 75.8277C86.7813 75.9769 86.3387 76.288 85.9968 76.7236L85.9968 76.7236Z" fill="#E7BCC3"/>
<path d="M116.011 46.1709C114.517 46.1709 113.056 45.6545 111.814 44.6869C110.572 43.7193 109.604 42.344 109.032 40.7349C108.46 39.1258 108.311 37.3552 108.602 35.6471C108.894 33.9389 109.613 32.3698 110.669 31.1383C111.726 29.9068 113.072 29.0681 114.537 28.7283C116.002 28.3885 117.521 28.5629 118.901 29.2294C120.282 29.8959 121.461 31.0246 122.291 32.4727C123.121 33.9208 123.564 35.6234 123.564 37.365C123.564 39.7005 122.769 41.9403 121.352 43.5917C119.935 45.2432 118.014 46.1709 116.011 46.1709Z" fill="#131254"/>
<path d="M118.991 36.4966H116.755V33.8906C116.755 33.6603 116.677 33.4393 116.537 33.2764C116.398 33.1135 116.208 33.022 116.01 33.022C115.813 33.022 115.623 33.1135 115.483 33.2764C115.344 33.4393 115.265 33.6603 115.265 33.8906V36.4966H113.03C112.832 36.497 112.643 36.5887 112.504 36.7516C112.364 36.9144 112.286 37.1351 112.286 37.3652C112.286 37.5953 112.364 37.816 112.504 37.9789C112.643 38.1417 112.832 38.2335 113.03 38.2339H115.265V40.8398C115.265 41.0702 115.344 41.2912 115.483 41.4541C115.623 41.617 115.813 41.7085 116.01 41.7085C116.208 41.7085 116.398 41.617 116.537 41.4541C116.677 41.2912 116.755 41.0702 116.755 40.8398V38.2339H118.991C119.089 38.2341 119.186 38.2118 119.276 38.1682C119.367 38.1247 119.449 38.0607 119.519 37.98C119.588 37.8994 119.643 37.8035 119.681 37.698C119.718 37.5925 119.737 37.4794 119.737 37.3652C119.737 37.251 119.718 37.1379 119.681 37.0324C119.643 36.9269 119.588 36.8311 119.519 36.7504C119.449 36.6698 119.367 36.6058 119.276 36.5622C119.186 36.5187 119.089 36.4964 118.991 36.4966Z" fill="white"/>
<path d="M78.3431 144.478C78.5886 143.723 78.6792 142.912 78.6075 142.109C78.5358 141.306 78.3039 140.534 77.9303 139.854L71.2484 99.4487L68.6197 84.1262H52.8475C52.8475 84.1262 42.9899 96.8438 45.0928 113.086L44.5042 135.959C43.9459 137.528 43.8081 139.257 44.109 140.919L44.3433 142.213L44.2529 142.408C43.8226 143.336 43.5914 144.372 43.5791 145.427C43.5668 146.483 43.7737 147.525 44.1823 148.467L43.5156 174.375L48.2473 174.069L55.2134 143.884L59.8136 116.763L67.5683 137.755L67.8311 142.658L67.7036 146.98L61.6537 172.23L66.7797 174.529L78.3431 144.478Z" fill="#2F2E41"/>
<path d="M116.575 184.635C116.575 184.732 116.542 184.825 116.483 184.893C116.425 184.961 116.345 185 116.262 185H1.30891C1.22595 185 1.14638 184.962 1.08771 184.893C1.02905 184.825 0.996094 184.732 0.996094 184.635C0.996094 184.539 1.02905 184.446 1.08771 184.378C1.14638 184.309 1.22595 184.271 1.30891 184.271H116.262C116.303 184.271 116.344 184.28 116.382 184.298C116.42 184.317 116.455 184.343 116.484 184.377C116.513 184.411 116.536 184.451 116.551 184.496C116.567 184.54 116.575 184.587 116.575 184.635Z" fill="#CACACA"/>
</g>
<path d="M247.625 10.9687H1.3793C1.01361 10.9683 0.663011 10.8216 0.404429 10.5607C0.145846 10.2998 0.000399701 9.94608 0 9.57714V1.39156C0.000399701 1.02262 0.145846 0.668903 0.404429 0.408022C0.663011 0.14714 1.01361 0.000402428 1.3793 0H247.625C247.99 0.000403257 248.341 0.147144 248.6 0.408026C248.858 0.668908 249.004 1.02262 249.004 1.39156V9.57716C249.004 9.94609 248.858 10.2998 248.6 10.5607C248.341 10.8216 247.99 10.9683 247.625 10.9687Z" fill="#E4E4E4"/>
<path d="M8.00513 7.06073C9.08665 7.06073 9.96339 6.17619 9.96339 5.08505C9.96339 3.99392 9.08665 3.10938 8.00513 3.10938C6.92362 3.10938 6.04688 3.99392 6.04688 5.08505C6.04688 6.17619 6.92362 7.06073 8.00513 7.06073Z" fill="black"/>
<path d="M15.4378 7.06073C16.5193 7.06073 17.396 6.17619 17.396 5.08505C17.396 3.99392 16.5193 3.10938 15.4378 3.10938C14.3562 3.10938 13.4795 3.99392 13.4795 5.08505C13.4795 6.17619 14.3562 7.06073 15.4378 7.06073Z" fill="black"/>
<path d="M22.8704 7.06073C23.9519 7.06073 24.8286 6.17619 24.8286 5.08505C24.8286 3.99392 23.9519 3.10938 22.8704 3.10938C21.7889 3.10938 20.9121 3.99392 20.9121 5.08505C20.9121 6.17619 21.7889 7.06073 22.8704 7.06073Z" fill="black"/>
<path d="M240.342 3.72536H231.783C231.615 3.72499 231.454 3.65743 231.336 3.53751C231.217 3.41759 231.15 3.2551 231.15 3.0857C231.15 2.9163 231.217 2.75382 231.336 2.6339C231.454 2.51398 231.615 2.44642 231.783 2.44605H240.342C240.51 2.44592 240.671 2.5131 240.79 2.63281C240.909 2.75252 240.976 2.91498 240.977 3.0845C240.977 3.25402 240.911 3.41674 240.792 3.5369C240.674 3.65706 240.513 3.72485 240.345 3.72536H240.342Z" fill="black"/>
<path d="M240.342 6.12404H231.783C231.615 6.12367 231.454 6.05611 231.336 5.93619C231.217 5.81627 231.15 5.65379 231.15 5.48439C231.15 5.31498 231.217 5.1525 231.336 5.03258C231.454 4.91266 231.615 4.8451 231.783 4.84473H240.342C240.51 4.84461 240.671 4.91178 240.79 5.03149C240.909 5.1512 240.976 5.31367 240.977 5.48318C240.977 5.6527 240.911 5.81542 240.792 5.93558C240.674 6.05574 240.513 6.12353 240.345 6.12404H240.342Z" fill="black"/>
<path d="M240.342 8.52273H231.782C231.614 8.52273 231.453 8.45534 231.334 8.33538C231.215 8.21542 231.148 8.05272 231.148 7.88307C231.148 7.71342 231.215 7.55072 231.334 7.43076C231.453 7.3108 231.614 7.24341 231.782 7.24341H240.342C240.51 7.24309 240.671 7.31018 240.79 7.42991C240.91 7.54965 240.977 7.71222 240.977 7.88187C240.977 8.05152 240.911 8.21434 240.792 8.33453C240.673 8.45471 240.512 8.52241 240.344 8.52273H240.342Z" fill="black"/>
<defs>
<clipPath id="clip0_412_2892">
<rect width="249.004" height="185" fill="white" transform="translate(0.996094)"/>
</clipPath>
</defs>
</svg>
