<svg width="250" height="185" viewBox="0 0 250 185" fill="none" xmlns="http://www.w3.org/2000/svg">
<g clip-path="url(#clip0_137_715)">
<path d="M248.615 10.9687H1.38482C1.01766 10.9683 0.665663 10.8216 0.406046 10.5607C0.14643 10.2998 0.0004013 9.94608 0 9.57714V1.39156C0.0004013 1.02262 0.14643 0.668903 0.406046 0.408022C0.665663 0.14714 1.01766 0.000402428 1.38482 0H248.615C248.982 0.000403257 249.334 0.147144 249.594 0.408026C249.854 0.668908 250 1.02262 250 1.39156V9.57716C250 9.94609 249.854 10.2998 249.594 10.5607C249.334 10.8216 248.982 10.9683 248.615 10.9687Z" fill="#E4E4E4"/>
<path d="M8.03689 7.06076C9.12274 7.06076 10.003 6.17622 10.003 5.08508C10.003 3.99395 9.12274 3.10941 8.03689 3.10941C6.95105 3.10941 6.0708 3.99395 6.0708 5.08508C6.0708 6.17622 6.95105 7.06076 8.03689 7.06076Z" fill="black"/>
<path d="M15.4993 7.06076C16.5851 7.06076 17.4654 6.17622 17.4654 5.08508C17.4654 3.99395 16.5851 3.10941 15.4993 3.10941C14.4135 3.10941 13.5332 3.99395 13.5332 5.08508C13.5332 6.17622 14.4135 7.06076 15.4993 7.06076Z" fill="black"/>
<path d="M22.9622 7.06076C24.048 7.06076 24.9283 6.17622 24.9283 5.08508C24.9283 3.99395 24.048 3.10941 22.9622 3.10941C21.8763 3.10941 20.9961 3.99395 20.9961 5.08508C20.9961 6.17622 21.8763 7.06076 22.9622 7.06076Z" fill="black"/>
<path d="M241.303 3.72527H232.71C232.541 3.7249 232.38 3.65734 232.261 3.53742C232.142 3.4175 232.075 3.25501 232.075 3.08561C232.075 2.91621 232.142 2.75372 232.261 2.63381C232.38 2.51389 232.541 2.44633 232.71 2.44595H241.303C241.472 2.44583 241.634 2.51301 241.753 2.63272C241.873 2.75243 241.94 2.91489 241.94 3.08441C241.941 3.25393 241.874 3.41664 241.755 3.53681C241.636 3.65697 241.474 3.72475 241.306 3.72527H241.303Z" fill="black"/>
<path d="M241.303 6.12398H232.71C232.541 6.12361 232.38 6.05605 232.261 5.93613C232.142 5.81621 232.075 5.65373 232.075 5.48433C232.075 5.31492 232.142 5.15244 232.261 5.03252C232.38 4.9126 232.541 4.84504 232.71 4.84467H241.303C241.472 4.84454 241.634 4.91172 241.753 5.03143C241.873 5.15114 241.94 5.3136 241.94 5.48312C241.941 5.65264 241.874 5.81536 241.755 5.93552C241.636 6.05568 241.474 6.12347 241.306 6.12398H241.303Z" fill="black"/>
<path d="M241.303 8.52273H232.71C232.541 8.52273 232.379 8.45534 232.26 8.33538C232.14 8.21542 232.073 8.05272 232.073 7.88307C232.073 7.71342 232.14 7.55072 232.26 7.43076C232.379 7.3108 232.541 7.24341 232.71 7.24341H241.303C241.472 7.24309 241.634 7.31018 241.754 7.42991C241.873 7.54965 241.941 7.71222 241.941 7.88187C241.941 8.05152 241.875 8.21434 241.755 8.33453C241.636 8.45471 241.475 8.52241 241.306 8.52273H241.303Z" fill="black"/>
<path d="M70.4946 162.66C71.4043 155.31 75.9379 148.067 82.9145 145.675C80.1631 153.241 80.1637 161.541 82.9161 169.107C83.9882 172.021 85.4825 175.149 84.4741 178.086C83.8467 179.914 82.3118 181.312 80.5962 182.186C78.8804 183.06 76.9763 183.477 75.0959 183.885L74.7259 184.193C71.7409 177.42 69.5849 170.011 70.4946 162.66Z" fill="#C1C1C1"/>
<path d="M82.9837 145.814C78.9209 150.388 76.3957 156.133 75.7669 162.231C75.6083 163.542 75.6563 164.869 75.9091 166.165C76.1959 167.419 76.8117 168.573 77.6924 169.507C78.4961 170.394 79.4206 171.208 79.9957 172.276C80.282 172.828 80.4491 173.433 80.486 174.054C80.523 174.675 80.429 175.296 80.2102 175.878C79.7024 177.341 78.7017 178.534 77.6827 179.666C76.5513 180.924 75.3563 182.211 74.8753 183.878C74.8171 184.08 74.5087 183.977 74.5668 183.776C75.4036 180.876 78.2049 179.229 79.5408 176.617C80.1641 175.398 80.4258 173.983 79.8414 172.697C79.3304 171.572 78.3778 170.732 77.5563 169.84C76.6838 168.942 76.0436 167.842 75.6914 166.638C75.3738 165.359 75.275 164.036 75.3993 162.724C75.6321 159.767 76.3262 156.865 77.4562 154.124C78.7286 150.989 80.5254 148.095 82.7687 145.569C82.9076 145.412 83.1217 145.658 82.9837 145.814L82.9837 145.814Z" fill="white"/>
<path d="M75.8542 160.255C74.8503 160.011 73.9657 159.415 73.3584 158.575C72.7511 157.735 72.4606 156.706 72.5389 155.671C72.5425 155.629 72.5622 155.589 72.5939 155.562C72.6257 155.534 72.6669 155.519 72.709 155.521C72.7511 155.524 72.7907 155.542 72.8195 155.573C72.8483 155.604 72.8641 155.645 72.8635 155.687C72.7888 156.651 73.0595 157.61 73.6266 158.391C74.1937 159.171 75.0199 159.723 75.9561 159.945C76.1595 159.994 76.0564 160.304 75.8542 160.255Z" fill="white"/>
<path d="M77.2259 169.11C79.0392 168.022 80.3777 166.288 80.9747 164.252C81.0336 164.05 81.3421 164.153 81.2832 164.355C80.658 166.472 79.2614 168.274 77.372 169.402C77.1919 169.509 77.0467 169.217 77.2259 169.11Z" fill="white"/>
<path d="M79.0299 151.298C79.3987 151.474 79.8053 151.555 80.2131 151.534C80.6209 151.514 81.0171 151.391 81.3663 151.179C81.545 151.069 81.6899 151.361 81.5124 151.47C81.1255 151.703 80.6877 151.838 80.2372 151.862C79.7868 151.886 79.3373 151.799 78.9281 151.608C78.888 151.593 78.855 151.564 78.8358 151.525C78.8166 151.487 78.8127 151.443 78.8247 151.402C78.8384 151.361 78.8677 151.327 78.9061 151.307C78.9445 151.288 78.989 151.284 79.0299 151.298Z" fill="white"/>
<path d="M104.18 158.804C104.07 158.876 103.961 158.947 103.851 159.022C102.382 159.993 100.993 161.082 99.6995 162.279C99.5981 162.37 99.4966 162.463 99.3979 162.557C96.3116 165.474 93.791 168.941 91.9642 172.782C91.2387 174.312 90.6301 175.894 90.1435 177.516C89.4716 179.756 88.9205 182.239 87.5906 184.071C87.454 184.264 87.3056 184.448 87.1464 184.622H75.128C75.1007 184.609 75.0732 184.598 75.0458 184.584L74.5659 184.606C74.5852 184.52 74.607 184.432 74.6263 184.347C74.6373 184.297 74.6509 184.248 74.6619 184.198C74.6701 184.165 74.6784 184.132 74.6839 184.102C74.6866 184.091 74.6894 184.08 74.6921 184.071C74.6975 184.041 74.7059 184.013 74.7113 183.986C74.832 183.493 74.9563 182.999 75.0842 182.506C75.0842 182.503 75.0842 182.503 75.0869 182.501C76.0261 178.733 77.4068 175.091 79.2 171.65C79.2549 171.548 79.3096 171.443 79.37 171.341C80.2003 169.818 81.1532 168.366 82.219 166.999C82.805 166.252 83.4283 165.536 84.0864 164.852C85.7902 163.09 87.7592 161.608 89.9214 160.46C94.2319 158.173 99.2224 157.297 103.829 158.694C103.947 158.73 104.062 158.766 104.18 158.804Z" fill="#C1C1C1"/>
<path d="M104.153 158.957C98.1681 160.152 92.7101 163.211 88.5539 167.7C87.6422 168.65 86.8852 169.739 86.3108 170.927C85.7885 172.101 85.5888 173.395 85.7324 174.674C85.8425 175.869 86.0928 177.078 85.9119 178.279C85.8102 178.892 85.5807 179.477 85.2383 179.995C84.896 180.513 84.4485 180.952 83.9253 181.284C82.6431 182.145 81.1294 182.492 79.6373 182.78C77.9807 183.099 76.255 183.405 74.8724 184.444C74.7049 184.57 74.5201 184.302 74.6874 184.176C77.0929 182.367 80.3164 182.747 82.948 181.469C84.1759 180.873 85.2325 179.902 85.5367 178.521C85.8027 177.314 85.5457 176.067 85.4238 174.858C85.2655 173.613 85.413 172.347 85.8535 171.173C86.3658 169.96 87.0798 168.843 87.9649 167.871C89.9228 165.651 92.2159 163.753 94.7603 162.249C97.6547 160.515 100.823 159.292 104.128 158.632C104.332 158.591 104.356 158.917 104.153 158.957H104.153Z" fill="white"/>
<path d="M89.8075 166.175C89.1527 165.372 88.8032 164.362 88.8215 163.324C88.8398 162.286 89.2246 161.288 89.9073 160.509C90.046 160.352 90.2956 160.561 90.1567 160.718C89.5197 161.443 89.1612 162.372 89.1462 163.339C89.1311 164.305 89.4604 165.245 90.0746 165.989C90.2079 166.151 89.94 166.336 89.8075 166.175Z" fill="white"/>
<path d="M85.5975 174.075C87.6971 174.304 89.8052 173.728 91.5015 172.464C91.6694 172.339 91.8542 172.607 91.6865 172.733C89.9188 174.045 87.7238 174.639 85.5394 174.397C85.3312 174.373 85.3904 174.052 85.5975 174.075Z" fill="white"/>
<path d="M97.71 160.944C97.8989 161.308 98.1748 161.619 98.5129 161.849C98.8509 162.079 99.2406 162.221 99.6468 162.263C99.8552 162.283 99.7958 162.604 99.5888 162.584C99.1402 162.536 98.7101 162.379 98.336 162.125C97.9619 161.872 97.6553 161.53 97.4429 161.13C97.4197 161.094 97.4111 161.051 97.4187 161.009C97.4263 160.966 97.4497 160.929 97.4839 160.903C97.5194 160.879 97.5631 160.869 97.6054 160.877C97.6477 160.885 97.6853 160.909 97.71 160.944L97.71 160.944Z" fill="white"/>
<path d="M81.0324 57.0741H41.2698C40.0411 57.0727 38.863 56.5816 37.9942 55.7085C37.1253 54.8354 36.6366 53.6516 36.6353 52.4168V30.6546C36.6366 29.4199 37.1254 28.2362 37.9942 27.3631C38.8631 26.49 40.0411 25.999 41.2698 25.9976H81.0324C82.2611 25.999 83.4391 26.49 84.308 27.3631C85.1768 28.2362 85.6655 29.4199 85.6669 30.6546V52.4168C85.6656 53.6516 85.1768 54.8353 84.308 55.7085C83.4391 56.5816 82.2611 57.0727 81.0324 57.0741V57.0741Z" fill="#E6E6E6"/>
<path d="M141.738 57.0741H101.976C100.747 57.0727 99.5691 56.5816 98.7002 55.7085C97.8314 54.8354 97.3427 53.6516 97.3413 52.4168V30.6546C97.3427 29.4199 97.8314 28.2362 98.7003 27.3631C99.5691 26.49 100.747 25.999 101.976 25.9976H141.738C142.967 25.999 144.145 26.49 145.014 27.3631C145.883 28.2362 146.372 29.4199 146.373 30.6546V52.4168C146.372 53.6516 145.883 54.8353 145.014 55.7085C144.145 56.5816 142.967 57.0727 141.738 57.0741Z" fill="#9378FF"/>
<path d="M202.444 57.0741H162.681C161.453 57.0727 160.275 56.5816 159.406 55.7085C158.537 54.8354 158.048 53.6516 158.047 52.4168V30.6546C158.048 29.4199 158.537 28.2362 159.406 27.3631C160.275 26.49 161.453 25.999 162.681 25.9976H202.444C203.673 25.999 204.851 26.49 205.72 27.3631C206.588 28.2362 207.077 29.4199 207.079 30.6546V52.4168C207.077 53.6516 206.588 54.8353 205.72 55.7085C204.851 56.5816 203.673 57.0727 202.444 57.0741Z" fill="#E6E6E6"/>
<path d="M81.0324 105.563H41.2698C40.0411 105.561 38.863 105.07 37.9942 104.197C37.1253 103.324 36.6366 102.14 36.6353 100.906V79.1433C36.6366 77.9086 37.1254 76.7249 37.9942 75.8518C38.8631 74.9787 40.0411 74.4876 41.2698 74.4863H81.0324C82.2611 74.4876 83.4391 74.9787 84.308 75.8518C85.1768 76.7249 85.6655 77.9086 85.6669 79.1433V100.905C85.6656 102.14 85.1768 103.324 84.308 104.197C83.4391 105.07 82.2611 105.561 81.0324 105.563Z" fill="#F2F2F2"/>
<path d="M141.738 105.563H101.976C100.747 105.561 99.5691 105.07 98.7002 104.197C97.8314 103.324 97.3427 102.14 97.3413 100.906V79.1433C97.3427 77.9086 97.8314 76.7249 98.7003 75.8518C99.5691 74.9787 100.747 74.4876 101.976 74.4863H141.738C142.967 74.4876 144.145 74.9787 145.014 75.8518C145.883 76.7249 146.372 77.9086 146.373 79.1433V100.905C146.372 102.14 145.883 103.324 145.014 104.197C144.145 105.07 142.967 105.561 141.738 105.563Z" fill="#E6E6E6"/>
<path d="M144.546 109.567C148.468 109.567 151.648 106.372 151.648 102.431C151.648 98.4897 148.468 95.2946 144.546 95.2946C140.624 95.2946 137.444 98.4897 137.444 102.431C137.444 106.372 140.624 109.567 144.546 109.567Z" fill="#9378FF"/>
<path d="M147.495 101.832H145.081V99.4053C145.081 99.3304 145.066 99.2561 145.037 99.1868C145.009 99.1176 144.967 99.0546 144.914 99.0016C144.861 98.9486 144.799 98.9065 144.73 98.8778C144.661 98.8492 144.587 98.8344 144.512 98.8344V98.8344C144.438 98.8344 144.364 98.8492 144.295 98.8778C144.226 98.9065 144.163 98.9486 144.111 99.0016C144.058 99.0546 144.016 99.1176 143.987 99.1868C143.959 99.2561 143.944 99.3304 143.944 99.4053V101.832H141.53C141.455 101.832 141.381 101.846 141.312 101.875C141.243 101.904 141.181 101.946 141.128 101.999C141.075 102.052 141.033 102.115 141.005 102.184C140.976 102.253 140.961 102.328 140.961 102.403V102.403C140.961 102.478 140.976 102.552 141.005 102.621C141.033 102.69 141.075 102.753 141.128 102.806C141.181 102.859 141.243 102.901 141.312 102.93C141.381 102.959 141.455 102.974 141.53 102.974H143.944V105.4C143.944 105.475 143.959 105.549 143.987 105.618C144.016 105.688 144.058 105.751 144.111 105.804C144.163 105.857 144.226 105.899 144.295 105.927C144.364 105.956 144.438 105.971 144.512 105.971V105.971C144.663 105.971 144.808 105.911 144.914 105.804C145.021 105.697 145.081 105.551 145.081 105.4V102.974H147.495C147.57 102.974 147.644 102.959 147.713 102.93C147.781 102.901 147.844 102.859 147.897 102.806C147.95 102.753 147.991 102.69 148.02 102.621C148.049 102.552 148.063 102.478 148.063 102.403V102.403C148.063 102.328 148.049 102.253 148.02 102.184C147.991 102.115 147.95 102.052 147.897 101.999C147.844 101.946 147.781 101.904 147.713 101.875C147.644 101.846 147.57 101.832 147.495 101.832V101.832L147.495 101.832Z" fill="white"/>
<path d="M206.186 62.33C210.108 62.33 213.287 59.1349 213.287 55.1936C213.287 51.2523 210.108 48.0572 206.186 48.0572C202.264 48.0572 199.084 51.2523 199.084 55.1936C199.084 59.1349 202.264 62.33 206.186 62.33Z" fill="#9378FF"/>
<path d="M209.135 54.5943H206.72V52.168C206.72 52.093 206.705 52.0187 206.677 51.9495C206.648 51.8802 206.606 51.8173 206.554 51.7642C206.501 51.7112 206.438 51.6692 206.369 51.6405C206.3 51.6118 206.227 51.597 206.152 51.597V51.597C206.077 51.597 206.003 51.6118 205.935 51.6405C205.866 51.6692 205.803 51.7112 205.75 51.7642C205.697 51.8173 205.656 51.8802 205.627 51.9495C205.599 52.0187 205.584 52.093 205.584 52.168V54.5943H203.169C203.095 54.5943 203.021 54.6091 202.952 54.6378C202.883 54.6665 202.82 54.7085 202.767 54.7615C202.715 54.8146 202.673 54.8775 202.644 54.9468C202.616 55.016 202.601 55.0903 202.601 55.1653V55.1653C202.601 55.2402 202.616 55.3145 202.644 55.3838C202.673 55.453 202.715 55.516 202.767 55.569C202.82 55.622 202.883 55.6641 202.952 55.6928C203.021 55.7214 203.095 55.7362 203.169 55.7362H205.584V58.1626C205.584 58.2375 205.599 58.3118 205.627 58.3811C205.656 58.4503 205.697 58.5133 205.75 58.5663C205.803 58.6193 205.866 58.6614 205.935 58.6901C206.003 58.7187 206.077 58.7335 206.152 58.7335V58.7335C206.303 58.7335 206.447 58.6734 206.554 58.5663C206.66 58.4592 206.72 58.314 206.72 58.1626V55.7362H209.135C209.209 55.7362 209.283 55.7214 209.352 55.6927C209.421 55.664 209.484 55.622 209.536 55.569C209.589 55.516 209.631 55.453 209.66 55.3837C209.688 55.3145 209.703 55.2402 209.703 55.1652V55.1652C209.703 55.0903 209.688 55.016 209.66 54.9468C209.631 54.8775 209.589 54.8145 209.536 54.7615C209.484 54.7085 209.421 54.6665 209.352 54.6378C209.283 54.6091 209.209 54.5943 209.135 54.5943V54.5943L209.135 54.5943Z" fill="white"/>
<path d="M83.84 61.7043C87.7622 61.7043 90.9417 58.5092 90.9417 54.5679C90.9417 50.6266 87.7622 47.4316 83.84 47.4316C79.9178 47.4316 76.7383 50.6266 76.7383 54.5679C76.7383 58.5092 79.9178 61.7043 83.84 61.7043Z" fill="#9378FF"/>
<path d="M86.789 53.9687H84.3745V51.5423C84.3745 51.4673 84.3598 51.3931 84.3312 51.3238C84.3027 51.2545 84.2608 51.1916 84.2081 51.1386C84.1553 51.0856 84.0927 51.0435 84.0237 51.0148C83.9548 50.9861 83.8809 50.9713 83.8063 50.9713V50.9713C83.7317 50.9713 83.6578 50.9861 83.5889 51.0148C83.5199 51.0435 83.4573 51.0856 83.4045 51.1386C83.3518 51.1916 83.3099 51.2545 83.2814 51.3238C83.2528 51.3931 83.2381 51.4673 83.2381 51.5423V51.5423V53.9687H80.8235C80.7489 53.9687 80.6751 53.9834 80.6061 54.0121C80.5372 54.0408 80.4746 54.0829 80.4218 54.1359C80.369 54.1889 80.3272 54.2518 80.2986 54.3211C80.2701 54.3904 80.2554 54.4646 80.2554 54.5396V54.5396C80.2554 54.691 80.3152 54.8362 80.4218 54.9433C80.5283 55.0504 80.6728 55.1105 80.8235 55.1105H83.2381V57.5369C83.2381 57.6119 83.2528 57.6861 83.2814 57.7554C83.3099 57.8247 83.3518 57.8876 83.4045 57.9406C83.4573 57.9936 83.5199 58.0357 83.5889 58.0644C83.6578 58.0931 83.7317 58.1078 83.8063 58.1078V58.1078C83.8809 58.1078 83.9548 58.0931 84.0237 58.0644C84.0927 58.0357 84.1553 57.9936 84.2081 57.9406C84.2608 57.8876 84.3027 57.8247 84.3312 57.7554C84.3598 57.6861 84.3745 57.6119 84.3745 57.5369V55.1105H86.789C86.8637 55.1105 86.9375 55.0958 87.0065 55.0671C87.0754 55.0384 87.1381 54.9963 87.1908 54.9433C87.2436 54.8903 87.2854 54.8273 87.314 54.7581C87.3425 54.6888 87.3572 54.6145 87.3572 54.5396V54.5396C87.3572 54.3881 87.2974 54.2429 87.1908 54.1359C87.0843 54.0288 86.9397 53.9686 86.789 53.9686V53.9686V53.9687Z" fill="white"/>
<path d="M137.009 44.7096C137.139 45.1035 137.181 45.521 137.132 45.933C137.084 46.3449 136.946 46.7411 136.729 47.0938C136.512 47.4465 136.22 47.747 135.875 47.9742C135.529 48.2013 135.139 48.3497 134.73 48.4087L131.446 70.9327L126.06 68.289L131.478 45.8058C131.424 45.1095 131.627 44.4178 132.048 43.8617C132.468 43.3057 133.077 42.9239 133.759 42.7888C134.441 42.6537 135.148 42.7746 135.747 43.1286C136.346 43.4827 136.795 44.0452 137.009 44.7096L137.009 44.7096Z" fill="#E2BEC3"/>
<path d="M97.788 116.848C98.0278 116.511 98.191 116.124 98.2662 115.716C98.3413 115.309 98.3265 114.889 98.2229 114.488C98.1192 114.086 97.9292 113.712 97.6663 113.393C97.4033 113.073 97.0738 112.815 96.7009 112.637L98.9163 88.6785L94.2763 91.0685L92.8274 114.156C92.5715 114.805 92.5615 115.526 92.7993 116.182C93.037 116.838 93.5061 117.384 94.1175 117.716C94.729 118.048 95.4404 118.143 96.1168 117.983C96.7933 117.823 97.3879 117.419 97.788 116.848H97.788Z" fill="#E2BEC3"/>
<path d="M100.958 104.731L120.87 103.961L122.019 83.1825H99.0435L100.958 104.731Z" fill="#E2BEC3"/>
<path d="M97.2623 178.111L100.665 178.111L102.284 164.923H97.2617L97.2623 178.111Z" fill="#E2BEC3"/>
<path d="M96.4184 176.425L101.797 176.102V178.418L106.911 181.967C107.164 182.142 107.354 182.394 107.454 182.685C107.554 182.977 107.559 183.293 107.467 183.588C107.376 183.882 107.193 184.14 106.946 184.322C106.699 184.505 106.4 184.604 106.093 184.604H99.6894L98.5856 182.313L98.1546 184.604H95.7402L96.4184 176.425Z" fill="#2F2E41"/>
<path d="M112.397 178.111L115.799 178.111L117.418 164.923H112.396L112.397 178.111Z" fill="#E2BEC3"/>
<path d="M100.682 99.8528C100.682 99.8528 94.7241 104.686 97.9538 121.948C97.462 122.006 98.0189 122.981 98.0189 122.981L98.4849 137.045L98.8451 138.657L97.6477 141.258L98.1413 144.084L96.6196 169.734L102.241 170.464L107.621 143.829L108.645 140.834L109.673 138.209L109.118 135.41L109.573 131.066L112.674 116.416L113.433 141.824L112.374 144.249L112.964 146.912L111.65 148.325L111.131 172.097L117.125 172.379L122.085 148.415L121.7 145.357L122.36 143.096V137.815L123.49 135.322L125.954 121.73C125.954 121.73 126.697 111.107 121.274 98.6062L100.682 99.8528Z" fill="#2F2E41"/>
<path d="M103.11 65.9136C103.11 65.9136 95.5846 67.409 94.288 73.8578C92.9914 80.3065 92.1572 94.8996 92.1572 94.8996L92.4412 96.9319L99.7202 98.628L104.366 78.1805L103.11 65.9136Z" fill="#944E4E"/>
<path d="M120.283 68.0903C120.283 68.0903 121.045 67.0162 125.317 66.8506C125.493 66.8438 125.275 66.4932 125.275 66.4932L127.329 56.4035L134.175 60.2123L133.02 70.7901L121.77 83.6476L120.283 68.0903Z" fill="#944E4E"/>
<path d="M116.015 98.1692C112.792 98.1695 107.941 97.8121 100.638 96.7225C100.167 96.6512 99.732 96.4307 99.3951 96.0931C99.0583 95.7554 98.8378 95.3184 98.7657 94.8459C98.5271 94.5928 98.372 94.2721 98.3212 93.9273C98.2704 93.5826 98.3266 93.2304 98.482 92.9188L98.4887 92.9055L98.3233 92.7095C98.0673 92.4074 97.917 92.0293 97.8952 91.6331C97.8735 91.237 97.9815 90.8446 98.2028 90.5161L95.9411 74.2568C95.7115 72.6422 96.0629 70.9982 96.9319 69.6207C97.8009 68.2432 99.1305 67.2224 100.682 66.7421L101.517 66.4809L104.674 62.3307L104.736 62.3315L114.873 62.4671L118.162 66.6647L123.48 67.9247L123.494 68.006L124.728 75.1742C125.37 78.9024 123.898 80.369 122.018 83.6476L122.57 92.8556L122.82 93.3125C122.959 93.5655 123.006 93.8593 122.952 94.1431C122.898 94.4269 122.747 94.6828 122.525 94.8666C122.693 95.3483 122.704 95.871 122.558 96.3596L122.428 96.7915C122.428 96.8039 122.393 96.9794 122.112 97.1937C121.606 97.58 120.153 98.1692 116.015 98.1692Z" fill="#944E4E"/>
<path d="M111.552 176.425L116.931 176.102V178.418L122.045 181.967C122.297 182.142 122.488 182.394 122.588 182.685C122.688 182.977 122.693 183.293 122.601 183.588C122.51 183.882 122.327 184.14 122.08 184.322C121.833 184.505 121.534 184.604 121.227 184.604H114.823L113.719 182.313L113.288 184.604H110.874L111.552 176.425Z" fill="#2F2E41"/>
<path d="M117.202 53.2867C117.905 48.9334 114.963 44.8317 110.631 44.1252C106.298 43.4188 102.217 46.3752 101.514 50.7285C100.811 55.0818 103.753 59.1836 108.085 59.89C112.417 60.5964 116.499 57.64 117.202 53.2867Z" fill="#E2BEC3"/>
<path d="M114.004 44.2047C111.092 42.1918 108.527 41.8852 106.42 42.4561C106.147 42.0316 105.764 41.6899 105.312 41.4676C103.669 37.3069 98.6681 34.8082 94.3766 36.0228C90.0573 37.2454 87.077 42.0532 87.8898 46.4879C88.3934 49.2367 90.115 51.617 90.8075 54.3241C92.1479 59.5644 88.878 65.5672 83.7627 67.2565C88.606 68.2337 93.9372 65.2609 95.6747 60.614C96.5187 58.3569 96.5696 55.8926 96.6769 53.4839C96.7051 51.8213 96.9078 50.1664 97.2816 48.5465C97.4671 47.8198 97.7292 47.115 98.0635 46.4442C98.7917 44.9696 100.001 43.7906 101.49 43.1039C101.356 43.5182 101.323 43.9585 101.393 44.3883C101.462 44.8181 101.632 45.2252 101.889 45.576C100.753 47.0058 100.135 48.552 100.135 49.478C97.7752 53.8115 101.149 57.5339 105.462 59.9049C107.182 60.8555 109.168 61.2035 111.107 60.8938L111.287 60.1198L111.532 60.817L112.348 63.1542C113.289 63.6118 114.222 64.1135 115.147 64.6591C114.796 63.0007 114.512 61.3453 114.316 59.7267C114.045 57.5238 114.989 54.2442 115.671 52.2498C116.093 51.0206 116.31 49.7296 116.312 48.4292V48.3724L116.975 50.513L119.39 49.478C118.94 46.889 119.39 43.9498 114.004 44.2047Z" fill="#2F2E41"/>
<path d="M213.303 185H36.6974C36.5994 185 36.5056 184.96 36.4365 184.89C36.3674 184.82 36.3286 184.726 36.3286 184.628C36.3286 184.529 36.3674 184.435 36.4365 184.365C36.5056 184.295 36.5994 184.256 36.6974 184.255H213.303C213.401 184.256 213.495 184.295 213.564 184.365C213.633 184.435 213.672 184.529 213.672 184.628C213.672 184.726 213.633 184.82 213.564 184.89C213.495 184.96 213.401 185 213.303 185V185Z" fill="#CCCCCC"/>
<path d="M83.028 110.505C86.9502 110.505 90.1297 107.31 90.1297 103.369C90.1297 99.4274 86.9502 96.2324 83.028 96.2324C79.1058 96.2324 75.9263 99.4274 75.9263 103.369C75.9263 107.31 79.1058 110.505 83.028 110.505Z" fill="#E6E6E6"/>
<path d="M189.882 99.2673H164.973C164.203 99.2665 163.465 98.9588 162.921 98.4118C162.376 97.8649 162.07 97.1233 162.069 96.3498V82.717C162.07 81.9436 162.376 81.202 162.921 80.6551C163.465 80.1082 164.203 79.8005 164.973 79.7997H189.882C190.651 79.8005 191.389 80.1082 191.934 80.6551C192.478 81.202 192.784 81.9436 192.785 82.717V96.3498C192.784 97.1233 192.478 97.8649 191.934 98.4118C191.389 98.9588 190.651 99.2665 189.882 99.2673V99.2673Z" fill="#F2F2F2"/>
<path d="M190.248 93.7298C192.331 93.7298 194.02 92.033 194.02 89.94C194.02 87.8469 192.331 86.1502 190.248 86.1502C188.166 86.1502 186.477 87.8469 186.477 89.94C186.477 92.033 188.166 93.7298 190.248 93.7298Z" fill="#9378FF"/>
<path d="M191.814 89.6217H190.532V88.3332C190.532 88.2934 190.524 88.254 190.509 88.2172C190.494 88.1804 190.472 88.147 190.444 88.1188C190.416 88.0906 190.383 88.0683 190.346 88.0531C190.309 88.0378 190.27 88.03 190.23 88.03C190.15 88.03 190.074 88.0619 190.017 88.1188C189.961 88.1757 189.929 88.2528 189.929 88.3332V89.6217H188.646C188.566 89.6217 188.49 89.6537 188.433 89.7105C188.377 89.7674 188.345 89.8445 188.345 89.9249V89.9249C188.345 89.9647 188.353 90.0042 188.368 90.041C188.383 90.0777 188.405 90.1112 188.433 90.1393C188.461 90.1675 188.494 90.1898 188.531 90.2051C188.568 90.2203 188.607 90.2281 188.646 90.2281H189.929V91.5167C189.929 91.5565 189.937 91.5959 189.952 91.6327C189.967 91.6695 189.989 91.7029 190.017 91.7311C190.045 91.7592 190.078 91.7815 190.115 91.7968C190.152 91.812 190.191 91.8199 190.23 91.8199V91.8199C190.311 91.8199 190.387 91.7879 190.444 91.7311C190.5 91.6742 190.532 91.5971 190.532 91.5167V90.2281H191.815C191.895 90.2281 191.971 90.1962 192.028 90.1393C192.084 90.0825 192.116 90.0054 192.116 89.9249V89.9249C192.116 89.8851 192.108 89.8457 192.093 89.8089C192.078 89.7721 192.056 89.7387 192.028 89.7105C192 89.6824 191.967 89.6601 191.93 89.6448C191.893 89.6296 191.854 89.6217 191.815 89.6217L191.814 89.6217Z" fill="white"/>
<path d="M200.029 95.3986H179.502C178.631 95.3976 177.796 95.0494 177.179 94.4303C176.563 93.8113 176.217 92.9719 176.216 92.0964V79.7835C176.216 79.6224 176.28 79.468 176.394 79.3542C176.507 79.2404 176.661 79.1765 176.821 79.1765C176.982 79.1765 177.135 79.2404 177.249 79.3542C177.362 79.468 177.426 79.6224 177.427 79.7835V83.0811L201.27 85.2591C201.747 85.2676 202.201 85.4635 202.535 85.8048C202.869 86.1461 203.056 86.6054 203.056 87.084C203.056 87.1216 203.053 87.1592 203.046 87.1961L201.845 93.6356C201.828 94.1084 201.63 94.5564 201.291 94.8852C200.952 95.214 200.5 95.398 200.029 95.3986V95.3986ZM177.427 84.3028V92.0964C177.427 92.6493 177.646 93.1794 178.035 93.5703C178.424 93.9613 178.952 94.1812 179.502 94.1818H200.029C200.19 94.1816 200.344 94.1175 200.457 94.0034C200.571 93.8894 200.635 93.7347 200.635 93.5734C200.635 93.5358 200.638 93.4983 200.645 93.4613L201.844 87.0371C201.832 86.8844 201.763 86.7418 201.651 86.6378C201.539 86.5337 201.393 86.4758 201.24 86.4756C201.222 86.4756 201.204 86.4749 201.185 86.4731L177.427 84.3028Z" fill="#9378FF"/>
<path d="M174.048 101.077C174.605 101.077 175.057 100.623 175.057 100.063C175.057 99.5028 174.605 99.0489 174.048 99.0489C173.49 99.0489 173.039 99.5028 173.039 100.063C173.039 100.623 173.49 101.077 174.048 101.077Z" fill="#9378FF"/>
<path d="M199.222 101.077C199.78 101.077 200.231 100.623 200.231 100.063C200.231 99.5028 199.78 99.0489 199.222 99.0489C198.665 99.0489 198.213 99.5028 198.213 100.063C198.213 100.623 198.665 101.077 199.222 101.077Z" fill="#9378FF"/>
<path d="M200.231 99.0489H173.24C173.08 99.0489 172.926 98.9848 172.812 98.8707C172.699 98.7566 172.635 98.6018 172.635 98.4405C172.635 98.2791 172.699 98.1244 172.812 98.0103C172.926 97.8962 173.08 97.8321 173.24 97.8321H200.231C200.392 97.8321 200.546 97.8962 200.659 98.0103C200.773 98.1244 200.837 98.2791 200.837 98.4405C200.837 98.6018 200.773 98.7566 200.659 98.8707C200.546 98.9848 200.392 99.0489 200.231 99.0489V99.0489Z" fill="#9378FF"/>
<path d="M178.436 80.1891H173.189C173.029 80.1887 172.875 80.1244 172.762 80.0104C172.649 79.8963 172.585 79.7418 172.585 79.5807C172.585 79.4196 172.649 79.2651 172.762 79.151C172.875 79.0369 173.029 78.9727 173.189 78.9723H178.436C178.596 78.9727 178.75 79.0369 178.863 79.151C178.977 79.2651 179.04 79.4196 179.04 79.5807C179.04 79.7418 178.977 79.8963 178.863 80.0104C178.75 80.1244 178.596 80.1887 178.436 80.1891V80.1891Z" fill="#9378FF"/>
<path d="M182.645 98.7391C182.5 98.7393 182.36 98.6871 182.251 98.5922L178.271 95.1558C178.211 95.1038 178.161 95.0403 178.125 94.9689C178.089 94.8976 178.067 94.8198 178.061 94.7401C178.055 94.6603 178.065 94.5801 178.09 94.5041C178.114 94.4281 178.154 94.3577 178.206 94.297C178.258 94.2364 178.321 94.1866 178.392 94.1505C178.463 94.1144 178.541 94.0928 178.62 94.0868C178.699 94.0809 178.779 94.0907 178.855 94.1158C178.93 94.1408 179 94.1806 179.061 94.2329L183.04 97.6693C183.134 97.7503 183.201 97.8582 183.231 97.9785C183.262 98.0988 183.256 98.2258 183.213 98.3423C183.17 98.4588 183.092 98.5593 182.991 98.6302C182.889 98.7012 182.769 98.7392 182.645 98.7391V98.7391Z" fill="#9378FF"/>
<path d="M183.484 95.0249C183.404 95.0249 183.326 95.0092 183.252 94.9786C183.179 94.948 183.112 94.9032 183.056 94.8467C183 94.7902 182.955 94.7232 182.925 94.6494C182.894 94.5756 182.878 94.4965 182.878 94.4166V84.6506C182.878 84.4892 182.942 84.3345 183.056 84.2204C183.169 84.1063 183.323 84.0422 183.484 84.0422C183.644 84.0422 183.798 84.1063 183.912 84.2204C184.026 84.3345 184.089 84.4892 184.089 84.6506V94.4165C184.089 94.4964 184.074 94.5755 184.043 94.6493C184.013 94.7231 183.968 94.7902 183.912 94.8467C183.856 94.9032 183.789 94.948 183.716 94.9786C183.642 95.0091 183.563 95.0249 183.484 95.0249H183.484Z" fill="#9378FF"/>
<path d="M196.273 95.0249C196.193 95.0249 196.115 95.0091 196.041 94.9786C195.968 94.948 195.901 94.9032 195.845 94.8467C195.789 94.7902 195.744 94.7232 195.714 94.6494C195.683 94.5756 195.667 94.4964 195.667 94.4166V85.4617C195.668 85.3006 195.732 85.1462 195.845 85.0324C195.959 84.9186 196.113 84.8547 196.273 84.8547C196.433 84.8547 196.587 84.9186 196.701 85.0324C196.814 85.1462 196.878 85.3006 196.878 85.4617V94.4165C196.878 94.4964 196.863 94.5755 196.832 94.6493C196.802 94.7231 196.757 94.7902 196.701 94.8467C196.645 94.9032 196.578 94.948 196.505 94.9786C196.431 95.0091 196.352 95.0249 196.273 95.0249H196.273Z" fill="#9378FF"/>
</g>
<defs>
<clipPath id="clip0_137_715">
<rect width="250" height="185" fill="white"/>
</clipPath>
</defs>
</svg>
