<svg width="313" height="242" viewBox="0 0 313 242" fill="none" xmlns="http://www.w3.org/2000/svg">
<g filter="url(#filter0_d_412_2811)">
<rect x="4" y="4" width="305" height="234" rx="10" fill="white"/>
</g>
<g clip-path="url(#clip0_412_2811)">
<path d="M279.615 34.9687H32.3848C32.0177 34.9683 31.6657 34.8216 31.406 34.5607C31.1464 34.2998 31.0004 33.9461 31 33.5771V25.3916C31.0004 25.0226 31.1464 24.6689 31.406 24.408C31.6657 24.1471 32.0177 24.0004 32.3848 24H279.615C279.982 24.0004 280.334 24.1471 280.594 24.408C280.854 24.6689 281 25.0226 281 25.3916V33.5772C281 33.9461 280.854 34.2998 280.594 34.5607C280.334 34.8216 279.982 34.9683 279.615 34.9687Z" fill="#E4E4E4"/>
<path d="M39.0364 31.0607C40.1222 31.0607 41.0025 30.1762 41.0025 29.0851C41.0025 27.9939 40.1222 27.1094 39.0364 27.1094C37.9506 27.1094 37.0703 27.9939 37.0703 29.0851C37.0703 30.1762 37.9506 31.0607 39.0364 31.0607Z" fill="black"/>
<path d="M46.4993 31.0607C47.5851 31.0607 48.4654 30.1762 48.4654 29.0851C48.4654 27.9939 47.5851 27.1094 46.4993 27.1094C45.4135 27.1094 44.5332 27.9939 44.5332 29.0851C44.5332 30.1762 45.4135 31.0607 46.4993 31.0607Z" fill="black"/>
<path d="M53.9622 31.0607C55.048 31.0607 55.9283 30.1762 55.9283 29.0851C55.9283 27.9939 55.048 27.1094 53.9622 27.1094C52.8763 27.1094 51.9961 27.9939 51.9961 29.0851C51.9961 30.1762 52.8763 31.0607 53.9622 31.0607Z" fill="black"/>
<path d="M272.303 27.7254H263.709C263.541 27.725 263.379 27.6574 263.26 27.5375C263.141 27.4176 263.074 27.2551 263.074 27.0857C263.074 26.9163 263.141 26.7538 263.26 26.6339C263.379 26.514 263.541 26.4464 263.709 26.446H272.303C272.472 26.4459 272.633 26.5131 272.753 26.6328C272.872 26.7525 272.94 26.915 272.94 27.0845C272.94 27.254 272.874 27.4167 272.755 27.5369C272.636 27.6571 272.474 27.7248 272.305 27.7254H272.303Z" fill="black"/>
<path d="M272.303 30.124H263.709C263.541 30.1237 263.379 30.0561 263.26 29.9362C263.141 29.8163 263.074 29.6538 263.074 29.4844C263.074 29.315 263.141 29.1525 263.26 29.0326C263.379 28.9127 263.541 28.8451 263.709 28.8447H272.303C272.472 28.8446 272.633 28.9118 272.753 29.0315C272.872 29.1512 272.94 29.3137 272.94 29.4832C272.94 29.6527 272.874 29.8154 272.755 29.9356C272.636 30.0557 272.474 30.1235 272.305 30.124H272.303Z" fill="black"/>
<path d="M272.303 32.5227H263.71C263.541 32.5227 263.379 32.4553 263.26 32.3354C263.14 32.2154 263.073 32.0527 263.073 31.8831C263.073 31.7134 263.14 31.5507 263.26 31.4308C263.379 31.3108 263.541 31.2434 263.71 31.2434H272.303C272.472 31.2431 272.634 31.3102 272.754 31.4299C272.873 31.5496 272.941 31.7122 272.941 31.8819C272.941 32.0515 272.875 32.2143 272.755 32.3345C272.636 32.4547 272.475 32.5224 272.306 32.5227H272.303Z" fill="black"/>
<path d="M101.495 186.66C102.404 179.31 106.938 172.067 113.914 169.675C111.163 177.241 111.164 185.541 113.916 193.107C114.988 196.021 116.482 199.149 115.474 202.086C114.847 203.914 113.312 205.312 111.596 206.186C109.88 207.06 107.976 207.477 106.096 207.885L105.726 208.193C102.741 201.42 100.585 194.011 101.495 186.66Z" fill="#C1C1C1"/>
<path d="M113.984 169.814C109.921 174.388 107.396 180.133 106.767 186.231C106.608 187.542 106.656 188.869 106.909 190.165C107.196 191.419 107.812 192.573 108.692 193.507C109.496 194.394 110.421 195.208 110.996 196.276C111.282 196.828 111.449 197.434 111.486 198.054C111.523 198.675 111.429 199.296 111.21 199.878C110.702 201.341 109.702 202.534 108.683 203.667C107.551 204.924 106.356 206.212 105.875 207.878C105.817 208.08 105.509 207.978 105.567 207.776C106.404 204.876 109.205 203.229 110.541 200.617C111.164 199.398 111.426 197.984 110.841 196.697C110.33 195.572 109.378 194.732 108.556 193.84C107.684 192.942 107.044 191.842 106.691 190.638C106.374 189.36 106.275 188.036 106.399 186.725C106.632 183.767 107.326 180.865 108.456 178.124C109.729 174.989 111.525 172.095 113.769 169.569C113.908 169.413 114.122 169.658 113.984 169.814L113.984 169.814Z" fill="white"/>
<path d="M106.854 184.255C105.85 184.011 104.966 183.415 104.358 182.575C103.751 181.735 103.461 180.706 103.539 179.671C103.542 179.629 103.562 179.589 103.594 179.562C103.626 179.534 103.667 179.519 103.709 179.521C103.751 179.524 103.791 179.542 103.82 179.573C103.848 179.604 103.864 179.645 103.863 179.687C103.789 180.651 104.059 181.61 104.627 182.391C105.194 183.171 106.02 183.723 106.956 183.945C107.159 183.994 107.056 184.304 106.854 184.255Z" fill="white"/>
<path d="M108.225 193.11C110.039 192.023 111.377 190.288 111.974 188.252C112.033 188.051 112.342 188.153 112.283 188.355C111.658 190.472 110.261 192.274 108.372 193.402C108.191 193.509 108.046 193.217 108.225 193.11Z" fill="white"/>
<path d="M110.029 175.298C110.398 175.474 110.805 175.555 111.213 175.535C111.62 175.514 112.017 175.391 112.366 175.179C112.544 175.069 112.689 175.361 112.512 175.47C112.125 175.704 111.687 175.838 111.237 175.862C110.786 175.886 110.337 175.799 109.928 175.608C109.888 175.593 109.855 175.564 109.835 175.525C109.816 175.487 109.812 175.443 109.824 175.402C109.838 175.361 109.867 175.327 109.906 175.307C109.944 175.288 109.989 175.285 110.029 175.298Z" fill="white"/>
<path d="M135.179 182.804C135.07 182.876 134.96 182.947 134.85 183.022C133.381 183.993 131.993 185.082 130.699 186.279C130.598 186.37 130.496 186.463 130.397 186.557C127.311 189.474 124.79 192.941 122.964 196.782C122.238 198.312 121.63 199.894 121.143 201.516C120.471 203.756 119.92 206.239 118.59 208.071C118.454 208.264 118.305 208.448 118.146 208.622H106.127C106.1 208.609 106.073 208.598 106.045 208.584L105.565 208.606C105.585 208.52 105.607 208.432 105.626 208.347C105.637 208.297 105.65 208.248 105.661 208.198C105.67 208.165 105.678 208.132 105.683 208.102C105.686 208.091 105.689 208.08 105.692 208.071C105.697 208.041 105.705 208.013 105.711 207.986C105.831 207.493 105.956 206.999 106.084 206.506C106.084 206.503 106.084 206.503 106.086 206.501C107.026 202.733 108.406 199.091 110.199 195.65C110.254 195.548 110.309 195.443 110.37 195.341C111.2 193.818 112.153 192.366 113.219 190.999C113.805 190.252 114.428 189.536 115.086 188.852C116.79 187.09 118.759 185.608 120.921 184.46C125.231 182.173 130.222 181.297 134.829 182.694C134.946 182.73 135.062 182.766 135.179 182.804Z" fill="#C1C1C1"/>
<path d="M135.153 182.958C129.169 184.152 123.711 187.211 119.554 191.7C118.643 192.65 117.886 193.739 117.311 194.927C116.789 196.101 116.589 197.395 116.733 198.674C116.843 199.869 117.093 201.078 116.912 202.279C116.811 202.892 116.581 203.477 116.239 203.995C115.896 204.513 115.449 204.952 114.926 205.284C113.644 206.145 112.13 206.492 110.638 206.78C108.981 207.099 107.256 207.405 105.873 208.444C105.705 208.57 105.521 208.302 105.688 208.176C108.093 206.367 111.317 206.747 113.948 205.469C115.176 204.873 116.233 203.902 116.537 202.521C116.803 201.314 116.546 200.067 116.424 198.858C116.266 197.613 116.414 196.347 116.854 195.173C117.366 193.96 118.08 192.843 118.965 191.871C120.923 189.651 123.216 187.753 125.761 186.249C128.655 184.515 131.823 183.292 135.128 182.632C135.333 182.591 135.356 182.917 135.153 182.958H135.153Z" fill="white"/>
<path d="M120.808 190.175C120.153 189.372 119.804 188.362 119.822 187.324C119.84 186.286 120.225 185.288 120.908 184.509C121.047 184.352 121.296 184.561 121.157 184.718C120.52 185.443 120.162 186.372 120.147 187.339C120.132 188.305 120.461 189.245 121.075 189.989C121.208 190.151 120.941 190.336 120.808 190.175Z" fill="white"/>
<path d="M116.597 198.075C118.697 198.304 120.805 197.728 122.501 196.464C122.669 196.339 122.854 196.607 122.686 196.733C120.918 198.045 118.723 198.639 116.539 198.397C116.331 198.373 116.39 198.052 116.597 198.075Z" fill="white"/>
<path d="M128.71 184.944C128.899 185.308 129.175 185.619 129.513 185.849C129.851 186.079 130.241 186.221 130.647 186.263C130.855 186.283 130.796 186.604 130.589 186.584C130.14 186.536 129.71 186.379 129.336 186.125C128.962 185.872 128.655 185.53 128.443 185.13C128.42 185.094 128.411 185.051 128.419 185.009C128.426 184.966 128.45 184.929 128.484 184.903C128.519 184.879 128.563 184.869 128.605 184.877C128.648 184.885 128.685 184.909 128.71 184.944L128.71 184.944Z" fill="white"/>
<path d="M112.033 81.0741H72.2703C71.0416 81.0727 69.8635 80.5815 68.9947 79.7084C68.1258 78.8353 67.6371 77.6515 67.6357 76.4168V54.6546C67.6371 53.4199 68.1259 52.2361 68.9947 51.363C69.8636 50.49 71.0416 49.9989 72.2703 49.9976H112.033C113.262 49.9989 114.44 50.49 115.308 51.363C116.177 52.2361 116.666 53.4199 116.667 54.6546V76.4167C116.666 77.6515 116.177 78.8353 115.308 79.7084C114.44 80.5815 113.262 81.0727 112.033 81.0741Z" fill="#E6E6E6"/>
<path d="M172.738 81.0741H132.975C131.747 81.0727 130.569 80.5815 129.7 79.7084C128.831 78.8353 128.342 77.6515 128.341 76.4168V54.6546C128.342 53.4199 128.831 52.2361 129.7 51.363C130.569 50.49 131.747 49.9989 132.975 49.9976H172.738C173.967 49.9989 175.145 50.49 176.014 51.363C176.882 52.2361 177.371 53.4199 177.372 54.6546V76.4167C177.371 77.6515 176.882 78.8353 176.014 79.7084C175.145 80.5815 173.967 81.0727 172.738 81.0741Z" fill="#3751AE"/>
<path d="M233.444 81.0741H193.681C192.453 81.0727 191.275 80.5815 190.406 79.7084C189.537 78.8353 189.048 77.6515 189.047 76.4168V54.6546C189.048 53.4199 189.537 52.2361 190.406 51.363C191.275 50.49 192.453 49.9989 193.681 49.9976H233.444C234.673 49.9989 235.851 50.49 236.72 51.363C237.588 52.2361 238.077 53.4199 238.079 54.6546V76.4167C238.077 77.6515 237.588 78.8353 236.72 79.7084C235.851 80.5815 234.673 81.0727 233.444 81.0741Z" fill="#E6E6E6"/>
<path d="M112.033 129.563H72.2703C71.0416 129.561 69.8635 129.07 68.9947 128.197C68.1258 127.324 67.6371 126.14 67.6357 124.906V103.143C67.6371 101.909 68.1259 100.725 68.9947 99.8518C69.8636 98.9788 71.0416 98.4877 72.2703 98.4863H112.033C113.262 98.4877 114.44 98.9788 115.308 99.8518C116.177 100.725 116.666 101.909 116.667 103.143V124.906C116.666 126.14 116.177 127.324 115.308 128.197C114.44 129.07 113.262 129.561 112.033 129.563Z" fill="#F2F2F2"/>
<path d="M172.738 129.563H132.975C131.747 129.561 130.569 129.07 129.7 128.197C128.831 127.324 128.342 126.14 128.341 124.906V103.143C128.342 101.909 128.831 100.725 129.7 99.8518C130.569 98.9788 131.747 98.4877 132.975 98.4863H172.738C173.967 98.4877 175.145 98.9788 176.014 99.8518C176.882 100.725 177.371 101.909 177.372 103.143V124.906C177.371 126.14 176.882 127.324 176.014 128.197C175.145 129.07 173.967 129.561 172.738 129.563Z" fill="#E6E6E6"/>
<path d="M175.546 133.567C179.468 133.567 182.648 130.372 182.648 126.431C182.648 122.49 179.468 119.295 175.546 119.295C171.624 119.295 168.444 122.49 168.444 126.431C168.444 130.372 171.624 133.567 175.546 133.567Z" fill="#3751AE"/>
<path d="M178.496 125.832H176.081V123.405C176.081 123.33 176.066 123.256 176.038 123.187C176.009 123.118 175.967 123.055 175.915 123.002C175.862 122.949 175.799 122.907 175.73 122.878C175.661 122.849 175.587 122.834 175.513 122.834C175.438 122.834 175.364 122.849 175.295 122.878C175.226 122.907 175.164 122.949 175.111 123.002C175.058 123.055 175.016 123.118 174.988 123.187C174.959 123.256 174.945 123.33 174.945 123.405V125.832H172.53C172.455 125.832 172.382 125.847 172.313 125.875C172.244 125.904 172.181 125.946 172.128 125.999C172.076 126.052 172.034 126.115 172.005 126.184C171.977 126.254 171.962 126.328 171.962 126.403C171.962 126.478 171.977 126.552 172.005 126.621C172.034 126.69 172.076 126.753 172.128 126.806C172.181 126.859 172.244 126.902 172.313 126.93C172.382 126.959 172.455 126.974 172.53 126.974H174.945V129.4C174.945 129.475 174.959 129.549 174.988 129.619C175.016 129.688 175.058 129.751 175.111 129.804C175.164 129.857 175.226 129.899 175.295 129.928C175.364 129.956 175.438 129.971 175.513 129.971C175.664 129.971 175.808 129.911 175.915 129.804C176.021 129.697 176.081 129.551 176.081 129.4V126.974H178.496C178.57 126.974 178.644 126.959 178.713 126.93C178.782 126.902 178.845 126.859 178.897 126.806C178.95 126.753 178.992 126.69 179.02 126.621C179.049 126.552 179.064 126.478 179.064 126.403C179.064 126.328 179.049 126.253 179.02 126.184C178.992 126.115 178.95 126.052 178.897 125.999C178.845 125.946 178.782 125.904 178.713 125.875C178.644 125.847 178.57 125.832 178.496 125.832L178.496 125.832Z" fill="white"/>
<path d="M237.186 86.3298C241.108 86.3298 244.287 83.1348 244.287 79.1935C244.287 75.2522 241.108 72.0571 237.186 72.0571C233.264 72.0571 230.084 75.2522 230.084 79.1935C230.084 83.1348 233.264 86.3298 237.186 86.3298Z" fill="#3751AE"/>
<path d="M240.135 78.5942H237.721V76.1679C237.721 76.0929 237.706 76.0187 237.677 75.9494C237.649 75.8801 237.607 75.8172 237.554 75.7642C237.501 75.7111 237.439 75.6691 237.37 75.6404C237.301 75.6117 237.227 75.5969 237.152 75.5969C237.078 75.5969 237.004 75.6117 236.935 75.6404C236.866 75.6691 236.803 75.7111 236.751 75.7642C236.698 75.8172 236.656 75.8801 236.628 75.9494C236.599 76.0187 236.584 76.0929 236.584 76.1679V78.5942H234.17C234.095 78.5942 234.021 78.609 233.952 78.6377C233.883 78.6664 233.821 78.7084 233.768 78.7615C233.715 78.8145 233.673 78.8774 233.645 78.9467C233.616 79.016 233.602 79.0902 233.602 79.1652C233.602 79.2402 233.616 79.3144 233.645 79.3837C233.673 79.4529 233.715 79.5159 233.768 79.5689C233.821 79.6219 233.883 79.664 233.952 79.6927C234.021 79.7214 234.095 79.7361 234.17 79.7361H236.584V82.1625C236.584 82.2375 236.599 82.3117 236.628 82.381C236.656 82.4502 236.698 82.5132 236.751 82.5662C236.803 82.6192 236.866 82.6613 236.935 82.69C237.004 82.7187 237.078 82.7334 237.152 82.7334C237.303 82.7334 237.448 82.6733 237.554 82.5662C237.661 82.4591 237.721 82.3139 237.721 82.1625V79.7361H240.135C240.21 79.7361 240.284 79.7213 240.353 79.6926C240.422 79.664 240.484 79.6219 240.537 79.5689C240.59 79.5159 240.632 79.4529 240.66 79.3837C240.689 79.3144 240.703 79.2401 240.703 79.1652C240.703 79.0902 240.689 79.0159 240.66 78.9467C240.632 78.8774 240.59 78.8145 240.537 78.7614C240.484 78.7084 240.422 78.6664 240.353 78.6377C240.284 78.609 240.21 78.5942 240.135 78.5942L240.135 78.5942Z" fill="white"/>
<path d="M114.84 85.7044C118.762 85.7044 121.942 82.5093 121.942 78.568C121.942 74.6267 118.762 71.4316 114.84 71.4316C110.918 71.4316 107.738 74.6267 107.738 78.568C107.738 82.5093 110.918 85.7044 114.84 85.7044Z" fill="#3751AE"/>
<path d="M117.789 77.9687H115.374V75.5424C115.374 75.4674 115.359 75.3932 115.331 75.3239C115.302 75.2546 115.26 75.1917 115.208 75.1387C115.155 75.0856 115.092 75.0436 115.023 75.0149C114.954 74.9862 114.88 74.9714 114.806 74.9714C114.731 74.9714 114.657 74.9862 114.588 75.0149C114.519 75.0436 114.457 75.0856 114.404 75.1387C114.351 75.1917 114.309 75.2546 114.281 75.3239C114.252 75.3932 114.238 75.4674 114.238 75.5424V77.9687H111.823C111.748 77.9687 111.675 77.9835 111.606 78.0122C111.537 78.0409 111.474 78.0829 111.421 78.136C111.369 78.189 111.327 78.2519 111.298 78.3212C111.27 78.3905 111.255 78.4647 111.255 78.5397C111.255 78.6911 111.315 78.8363 111.421 78.9434C111.528 79.0505 111.672 79.1106 111.823 79.1106H114.238V81.537C114.238 81.612 114.252 81.6862 114.281 81.7555C114.309 81.8248 114.351 81.8877 114.404 81.9407C114.457 81.9937 114.519 82.0358 114.588 82.0645C114.657 82.0932 114.731 82.1079 114.806 82.1079C114.88 82.1079 114.954 82.0932 115.023 82.0645C115.092 82.0358 115.155 81.9937 115.208 81.9407C115.26 81.8877 115.302 81.8248 115.331 81.7555C115.359 81.6862 115.374 81.612 115.374 81.537V79.1106H117.789C117.863 79.1106 117.937 79.0958 118.006 79.0672C118.075 79.0385 118.138 78.9964 118.19 78.9434C118.243 78.8904 118.285 78.8274 118.313 78.7582C118.342 78.6889 118.357 78.6146 118.357 78.5397C118.357 78.3882 118.297 78.243 118.19 78.1359C118.084 78.0289 117.939 77.9687 117.789 77.9687V77.9687Z" fill="white"/>
<path d="M168.009 68.7096C168.139 69.1034 168.181 69.521 168.132 69.9329C168.084 70.3448 167.946 70.7411 167.729 71.0938C167.512 71.4464 167.22 71.7469 166.875 71.9741C166.529 72.2013 166.139 72.3496 165.73 72.4086L162.446 94.9326L157.06 92.2889L162.478 69.8057C162.424 69.1094 162.627 68.4177 163.048 67.8617C163.468 67.3056 164.077 66.9239 164.759 66.7888C165.441 66.6537 166.148 66.7746 166.747 67.1286C167.346 67.4826 167.795 68.0451 168.009 68.7096L168.009 68.7096Z" fill="#E2BEC3"/>
<path d="M128.788 140.848C129.028 140.511 129.191 140.124 129.266 139.716C129.341 139.309 129.326 138.889 129.223 138.488C129.119 138.086 128.929 137.712 128.666 137.393C128.403 137.073 128.074 136.815 127.701 136.637L129.916 112.678L125.276 115.068L123.827 138.156C123.572 138.805 123.561 139.526 123.799 140.182C124.037 140.838 124.506 141.384 125.118 141.716C125.729 142.048 126.44 142.143 127.117 141.983C127.793 141.823 128.388 141.419 128.788 140.848H128.788Z" fill="#E2BEC3"/>
<path d="M131.958 128.731L151.869 127.961L153.018 107.183H130.043L131.958 128.731Z" fill="#E2BEC3"/>
<path d="M128.262 202.111L131.665 202.111L133.284 188.923H128.262L128.262 202.111Z" fill="#E2BEC3"/>
<path d="M127.418 200.425L132.797 200.102V202.418L137.911 205.967C138.164 206.142 138.354 206.394 138.454 206.685C138.554 206.977 138.559 207.293 138.467 207.588C138.376 207.882 138.193 208.139 137.946 208.322C137.699 208.505 137.4 208.604 137.093 208.604H130.689L129.586 206.313L129.155 208.604H126.74L127.418 200.425Z" fill="#2F2E41"/>
<path d="M143.396 202.111L146.799 202.111L148.417 188.923H143.396L143.396 202.111Z" fill="#E2BEC3"/>
<path d="M131.681 123.853C131.681 123.853 125.724 128.686 128.953 145.947C128.462 146.006 129.018 146.981 129.018 146.981L129.484 161.045L129.845 162.657L128.647 165.258L129.141 168.084L127.619 193.734L133.241 194.464L138.62 167.829L139.645 164.834L140.672 162.209L140.118 159.41L140.573 155.066L143.674 140.416L144.433 165.824L143.374 168.249L143.963 170.912L142.65 172.325L142.131 196.097L148.125 196.379L153.084 172.415L152.7 169.357L153.36 167.096V161.815L154.49 159.322L156.953 145.73C156.953 145.73 157.697 135.107 152.274 122.606L131.681 123.853Z" fill="#2F2E41"/>
<path d="M134.11 89.9136C134.11 89.9136 126.585 91.409 125.288 97.8578C123.991 104.307 123.157 118.9 123.157 118.9L123.441 120.932L130.72 122.628L135.366 102.181L134.11 89.9136Z" fill="#944E4E"/>
<path d="M151.283 92.0903C151.283 92.0903 152.046 91.0163 156.317 90.8506C156.493 90.8438 156.276 90.4932 156.276 90.4932L158.33 80.4036L165.176 84.2124L164.02 94.7901L152.771 107.648L151.283 92.0903Z" fill="#944E4E"/>
<path d="M147.016 122.169C143.793 122.17 138.942 121.812 131.638 120.723C131.168 120.651 130.732 120.431 130.396 120.093C130.059 119.755 129.838 119.318 129.766 118.846C129.528 118.593 129.372 118.272 129.322 117.927C129.271 117.583 129.327 117.23 129.482 116.919L129.489 116.906L129.324 116.71C129.068 116.407 128.917 116.029 128.896 115.633C128.874 115.237 128.982 114.845 129.203 114.516L126.942 98.2568C126.712 96.6422 127.063 94.9983 127.932 93.6208C128.801 92.2432 130.131 91.2225 131.682 90.7422L132.517 90.481L135.675 86.3308L135.737 86.3315L145.873 86.4671L149.163 90.6648L154.48 91.9247L154.494 92.0061L155.729 99.1742C156.371 102.902 154.898 104.369 153.019 107.648L153.57 116.856L153.821 117.313C153.96 117.566 154.006 117.859 153.952 118.143C153.898 118.427 153.747 118.683 153.526 118.867C153.693 119.348 153.705 119.871 153.558 120.36L153.428 120.792C153.428 120.804 153.394 120.979 153.113 121.194C152.607 121.58 151.153 122.169 147.016 122.169Z" fill="#944E4E"/>
<path d="M142.552 200.425L147.931 200.102V202.418L153.045 205.967C153.297 206.142 153.488 206.394 153.588 206.685C153.688 206.977 153.693 207.293 153.601 207.588C153.51 207.882 153.327 208.139 153.08 208.322C152.833 208.505 152.534 208.604 152.227 208.604H145.823L144.719 206.313L144.288 208.604H141.874L142.552 200.425Z" fill="#2F2E41"/>
<path d="M148.201 77.2867C148.904 72.9334 145.962 68.8316 141.63 68.1252C137.298 67.4187 133.216 70.3751 132.513 74.7285C131.81 79.0818 134.752 83.1835 139.084 83.89C143.417 84.5964 147.498 81.64 148.201 77.2867Z" fill="#E2BEC3"/>
<path d="M145.004 68.2049C142.092 66.192 139.527 65.8853 137.42 66.4563C137.147 66.0317 136.764 65.69 136.312 65.4677C134.669 61.307 129.668 58.8083 125.377 60.023C121.057 61.2455 118.077 66.0533 118.89 70.488C119.393 73.2368 121.115 75.6171 121.807 78.3242C123.148 83.5645 119.878 89.5674 114.763 91.2566C119.606 92.2338 124.937 89.261 126.675 84.6141C127.519 82.357 127.57 79.8928 127.677 77.4841C127.705 75.8215 127.908 74.1665 128.282 72.5466C128.467 71.8199 128.729 71.1152 129.064 70.4443C129.792 68.9698 131.001 67.7907 132.49 67.104C132.356 67.5183 132.323 67.9586 132.393 68.3884C132.462 68.8183 132.632 69.2254 132.889 69.5761C131.753 71.0059 131.135 72.5522 131.135 73.4781C128.775 77.8117 132.149 81.534 136.462 83.905C138.182 84.8556 140.168 85.2036 142.107 84.8939L142.287 84.12L142.532 84.8171L143.348 87.1543C144.289 87.612 145.222 88.1136 146.147 88.6592C145.796 87.0008 145.512 85.3454 145.316 83.7268C145.045 81.5239 145.989 78.2443 146.671 76.2499C147.093 75.0207 147.31 73.7297 147.312 72.4294V72.3725L147.975 74.5131L150.39 73.4781C149.94 70.8891 150.39 67.9499 145.004 68.2049Z" fill="#2F2E41"/>
<path d="M244.302 209H67.6969C67.599 209 67.5052 208.96 67.436 208.89C67.3669 208.821 67.3281 208.726 67.3281 208.628C67.3281 208.529 67.3669 208.435 67.436 208.365C67.5052 208.295 67.599 208.256 67.6969 208.255H244.302C244.4 208.256 244.494 208.295 244.563 208.365C244.633 208.435 244.671 208.529 244.671 208.628C244.671 208.726 244.633 208.821 244.563 208.89C244.494 208.96 244.4 209 244.302 209Z" fill="#CCCCCC"/>
<path d="M114.028 134.505C117.951 134.505 121.13 131.31 121.13 127.369C121.13 123.427 117.951 120.232 114.028 120.232C110.106 120.232 106.927 123.427 106.927 127.369C106.927 131.31 110.106 134.505 114.028 134.505Z" fill="#E6E6E6"/>
<path d="M220.882 123.267H195.973C195.203 123.267 194.465 122.959 193.921 122.412C193.376 121.865 193.07 121.123 193.069 120.35V106.717C193.07 105.944 193.376 105.202 193.921 104.655C194.465 104.108 195.203 103.801 195.973 103.8H220.882C221.651 103.801 222.389 104.108 222.934 104.655C223.478 105.202 223.784 105.944 223.785 106.717V120.35C223.784 121.123 223.478 121.865 222.934 122.412C222.389 122.959 221.651 123.267 220.882 123.267Z" fill="#F2F2F2"/>
<path d="M221.248 117.73C223.331 117.73 225.019 116.033 225.019 113.94C225.019 111.847 223.331 110.15 221.248 110.15C219.165 110.15 217.477 111.847 217.477 113.94C217.477 116.033 219.165 117.73 221.248 117.73Z" fill="#3751AE"/>
<path d="M222.814 113.622H221.532V112.333C221.532 112.293 221.524 112.254 221.509 112.217C221.494 112.18 221.472 112.147 221.444 112.119C221.416 112.091 221.383 112.068 221.346 112.053C221.309 112.038 221.27 112.03 221.23 112.03C221.15 112.03 221.074 112.062 221.017 112.119C220.961 112.176 220.929 112.253 220.929 112.333V113.622H219.646C219.566 113.622 219.49 113.654 219.433 113.711C219.377 113.767 219.345 113.845 219.345 113.925C219.345 113.965 219.353 114.004 219.368 114.041C219.383 114.078 219.405 114.111 219.433 114.139C219.461 114.168 219.494 114.19 219.531 114.205C219.568 114.22 219.607 114.228 219.646 114.228H220.929V115.517C220.929 115.557 220.937 115.596 220.952 115.633C220.967 115.67 220.989 115.703 221.017 115.731C221.045 115.759 221.078 115.782 221.115 115.797C221.152 115.812 221.191 115.82 221.23 115.82C221.311 115.82 221.387 115.788 221.444 115.731C221.5 115.674 221.532 115.597 221.532 115.517V114.228H222.815C222.895 114.228 222.971 114.196 223.028 114.139C223.084 114.083 223.116 114.005 223.116 113.925C223.116 113.885 223.108 113.846 223.093 113.809C223.078 113.772 223.056 113.739 223.028 113.711C223 113.682 222.967 113.66 222.93 113.645C222.893 113.63 222.854 113.622 222.815 113.622L222.814 113.622Z" fill="white"/>
<path d="M231.029 119.399H210.502C209.631 119.398 208.796 119.049 208.179 118.43C207.563 117.811 207.217 116.972 207.216 116.096V103.784C207.216 103.622 207.28 103.468 207.394 103.354C207.507 103.24 207.661 103.177 207.821 103.177C207.982 103.177 208.135 103.24 208.249 103.354C208.362 103.468 208.426 103.622 208.427 103.784V107.081L232.27 109.259C232.747 109.268 233.201 109.464 233.535 109.805C233.869 110.146 234.056 110.605 234.056 111.084C234.056 111.122 234.053 111.159 234.046 111.196L232.845 117.636C232.828 118.108 232.63 118.556 232.291 118.885C231.952 119.214 231.5 119.398 231.029 119.399ZM208.427 108.303V116.096C208.427 116.649 208.646 117.179 209.035 117.57C209.424 117.961 209.952 118.181 210.502 118.182H231.029C231.19 118.182 231.344 118.118 231.457 118.003C231.571 117.889 231.635 117.735 231.635 117.573C231.635 117.536 231.638 117.498 231.645 117.461L232.844 111.037C232.832 110.884 232.763 110.742 232.651 110.638C232.539 110.534 232.393 110.476 232.24 110.476C232.222 110.476 232.204 110.475 232.185 110.473L208.427 108.303Z" fill="#3751AE"/>
<path d="M205.048 125.077C205.605 125.077 206.057 124.623 206.057 124.063C206.057 123.503 205.605 123.049 205.048 123.049C204.491 123.049 204.039 123.503 204.039 124.063C204.039 124.623 204.491 125.077 205.048 125.077Z" fill="#3751AE"/>
<path d="M230.222 125.077C230.779 125.077 231.231 124.623 231.231 124.063C231.231 123.503 230.779 123.049 230.222 123.049C229.665 123.049 229.213 123.503 229.213 124.063C229.213 124.623 229.665 125.077 230.222 125.077Z" fill="#3751AE"/>
<path d="M231.231 123.049H204.24C204.08 123.049 203.926 122.985 203.812 122.871C203.699 122.757 203.635 122.602 203.635 122.44C203.635 122.279 203.699 122.124 203.812 122.01C203.926 121.896 204.08 121.832 204.24 121.832H231.231C231.392 121.832 231.546 121.896 231.659 122.01C231.773 122.124 231.837 122.279 231.837 122.44C231.837 122.602 231.773 122.757 231.659 122.871C231.546 122.985 231.392 123.049 231.231 123.049Z" fill="#3751AE"/>
<path d="M209.436 104.189H204.189C204.029 104.189 203.875 104.125 203.762 104.01C203.649 103.896 203.585 103.742 203.585 103.581C203.585 103.42 203.649 103.265 203.762 103.151C203.875 103.037 204.029 102.973 204.189 102.972H209.436C209.596 102.973 209.75 103.037 209.863 103.151C209.977 103.265 210.04 103.42 210.04 103.581C210.04 103.742 209.977 103.896 209.863 104.01C209.75 104.125 209.596 104.189 209.436 104.189Z" fill="#3751AE"/>
<path d="M213.645 122.739C213.5 122.739 213.36 122.687 213.251 122.592L209.271 119.156C209.211 119.104 209.161 119.04 209.125 118.969C209.089 118.898 209.067 118.82 209.061 118.74C209.055 118.66 209.065 118.58 209.09 118.504C209.114 118.428 209.154 118.358 209.206 118.297C209.258 118.236 209.321 118.187 209.392 118.151C209.463 118.114 209.541 118.093 209.62 118.087C209.699 118.081 209.779 118.091 209.855 118.116C209.93 118.141 210 118.181 210.061 118.233L214.04 121.669C214.134 121.75 214.201 121.858 214.231 121.979C214.262 122.099 214.256 122.226 214.213 122.342C214.17 122.459 214.092 122.559 213.991 122.63C213.889 122.701 213.769 122.739 213.645 122.739V122.739Z" fill="#3751AE"/>
<path d="M214.483 119.025C214.404 119.025 214.325 119.009 214.252 118.979C214.178 118.948 214.112 118.903 214.055 118.847C213.999 118.79 213.954 118.723 213.924 118.649C213.894 118.576 213.878 118.497 213.878 118.417V108.651C213.878 108.489 213.942 108.335 214.055 108.22C214.169 108.106 214.323 108.042 214.483 108.042C214.644 108.042 214.798 108.106 214.911 108.22C215.025 108.335 215.089 108.489 215.089 108.651V118.417C215.089 118.496 215.073 118.576 215.043 118.649C215.012 118.723 214.968 118.79 214.912 118.847C214.855 118.903 214.789 118.948 214.715 118.979C214.642 119.009 214.563 119.025 214.483 119.025H214.483Z" fill="#3751AE"/>
<path d="M227.273 119.025C227.194 119.025 227.115 119.009 227.042 118.979C226.968 118.948 226.902 118.903 226.845 118.847C226.789 118.79 226.744 118.723 226.714 118.649C226.684 118.576 226.668 118.496 226.668 118.417V109.462C226.668 109.301 226.732 109.146 226.846 109.032C226.959 108.919 227.113 108.855 227.273 108.855C227.434 108.855 227.588 108.919 227.701 109.032C227.815 109.146 227.878 109.301 227.879 109.462V118.417C227.879 118.496 227.863 118.576 227.833 118.649C227.802 118.723 227.758 118.79 227.702 118.847C227.645 118.903 227.579 118.948 227.505 118.979C227.432 119.009 227.353 119.025 227.273 119.025H227.273Z" fill="#3751AE"/>
</g>
<defs>
<filter id="filter0_d_412_2811" x="0" y="0" width="313" height="242" filterUnits="userSpaceOnUse" color-interpolation-filters="sRGB">
<feFlood flood-opacity="0" result="BackgroundImageFix"/>
<feColorMatrix in="SourceAlpha" type="matrix" values="0 0 0 0 0 0 0 0 0 0 0 0 0 0 0 0 0 0 127 0" result="hardAlpha"/>
<feOffset/>
<feGaussianBlur stdDeviation="2"/>
<feComposite in2="hardAlpha" operator="out"/>
<feColorMatrix type="matrix" values="0 0 0 0 0 0 0 0 0 0 0 0 0 0 0 0 0 0 0.25 0"/>
<feBlend mode="normal" in2="BackgroundImageFix" result="effect1_dropShadow_412_2811"/>
<feBlend mode="normal" in="SourceGraphic" in2="effect1_dropShadow_412_2811" result="shape"/>
</filter>
<clipPath id="clip0_412_2811">
<rect width="250" height="185" fill="white" transform="translate(31 24)"/>
</clipPath>
</defs>
</svg>
