<svg width="12" height="16" viewBox="0 0 12 16" fill="none" xmlns="http://www.w3.org/2000/svg">
<path d="M10.1798 1.24563C9.52667 0.404199 8.34598 0.043457 6.83553 0.043457H2.45178C2.30233 0.0434633 2.15779 0.103724 2.04414 0.213405C1.93049 0.323086 1.85518 0.474993 1.83176 0.641814L0.0064457 13.7262C-0.0298356 13.9842 0.14693 14.2178 0.378305 14.2178H3.08468L3.76437 9.34518L3.74328 9.49776C3.7917 9.15334 4.05232 8.8993 4.36095 8.8993H5.64701C8.17348 8.8993 10.1517 7.73945 10.7296 4.38428C10.7468 4.28505 10.7616 4.18846 10.7745 4.0941C10.7015 4.05045 10.7015 4.05045 10.7745 4.0941C10.9466 2.854 10.7733 2.00987 10.1798 1.24563" fill="#27346A"/>
<path d="M4.79993 3.64738C4.87392 3.60756 4.95484 3.58692 5.03679 3.58698H8.47357C8.88054 3.58698 9.26013 3.61691 9.60701 3.68001C9.70407 3.6975 9.80063 3.71839 9.89656 3.74263C10.0325 3.77654 10.1669 3.81804 10.2992 3.86698C10.4697 3.93135 10.6286 4.00632 10.7745 4.0941C10.9466 2.85352 10.7733 2.00987 10.1798 1.24563C9.52629 0.404199 8.34598 0.043457 6.83552 0.043457H2.4514C2.14273 0.043457 1.88013 0.297444 1.83176 0.641814L0.00644596 13.7257C-0.0298353 13.9841 0.14693 14.2174 0.37793 14.2174H3.08468L4.49482 4.11042C4.50869 4.01108 4.5437 3.91703 4.59685 3.83637C4.65 3.75571 4.71969 3.69085 4.79993 3.64738V3.64738Z" fill="#27346A"/>
<path d="M10.7295 4.38392C10.1517 7.73863 8.17345 8.89894 5.64693 8.89894H4.36049C4.05187 8.89894 3.7912 9.15298 3.74324 9.49741L2.89767 15.556C2.86607 15.7818 3.02057 15.9864 3.2227 15.9864H5.5041C5.63479 15.9863 5.76118 15.9336 5.86053 15.8376C5.95989 15.7417 6.0257 15.6088 6.04612 15.4629L6.06834 15.3315L6.49832 12.2515L6.52603 12.0812C6.54645 11.9354 6.61225 11.8025 6.71159 11.7066C6.81094 11.6106 6.93732 11.5579 7.06799 11.5578H7.40943C9.61945 11.5578 11.3499 10.543 11.8556 7.60814C12.0667 6.38164 11.9575 5.35764 11.3991 4.63839C11.2297 4.42053 11.0194 4.24061 10.7744 4.09375C10.7611 4.18858 10.7467 4.28469 10.7295 4.38392V4.38392Z" fill="#2790C3"/>
<path d="M10.1697 3.82156C10.0796 3.79183 9.98864 3.7655 9.89698 3.74262C9.80101 3.71877 9.70445 3.69803 9.60743 3.68043C9.26018 3.6169 8.88087 3.58692 8.47353 3.58692H5.03717C4.95516 3.58671 4.87417 3.60752 4.80031 3.64779C4.71998 3.69113 4.65021 3.75595 4.59703 3.83663C4.54386 3.91732 4.50889 4.01143 4.49515 4.11084L3.76475 9.34516L3.74365 9.49775C3.7917 9.15332 4.05232 8.89928 4.361 8.89928H5.64743C8.1739 8.89928 10.1521 7.73944 10.73 4.38427C10.7472 4.28503 10.7616 4.18888 10.7749 4.09409C10.6286 4.00678 10.4702 3.93134 10.2996 3.86739C10.2565 3.85126 10.2133 3.83599 10.1697 3.82156" fill="#1F264F"/>
</svg>
