<svg width="1834" height="596" viewBox="0 0 1834 596" fill="none" xmlns="http://www.w3.org/2000/svg">
<g clip-path="url(#clip0_412_2962)">
<path d="M292.81 396.68C269.512 396.697 246.957 388.488 229.12 373.5C211.271 388.486 188.706 396.695 165.4 396.68H160.58C178.306 420.217 201.957 438.633 229.12 450.05C256.334 438.619 280.017 420.154 297.74 396.55C296.12 396.65 294.47 396.68 292.81 396.68Z" fill="#3751AF"/>
<path d="M330.81 297.37C330.852 333.132 319.243 367.935 297.74 396.51C296.12 396.61 294.47 396.64 292.81 396.64C269.512 396.657 246.957 388.448 229.12 373.46C244.737 360.374 255.95 342.8 261.235 323.122C266.521 303.445 265.624 282.617 258.665 263.467C251.707 244.317 239.024 227.772 222.339 216.078C205.654 204.384 185.775 198.107 165.4 198.1C163.75 198.1 162.1 198.1 160.48 198.24C135.048 199.529 111.082 210.532 93.5271 228.978C75.9723 247.424 66.1689 271.906 66.14 297.37V396.64H160.58C178.306 420.177 201.956 438.593 229.12 450.01C208.942 458.466 187.278 462.804 165.4 462.77H66.14V561.71C66.14 570.481 62.6558 578.892 56.454 585.094C50.2522 591.296 41.8407 594.78 33.07 594.78C24.2993 594.78 15.8878 591.296 9.68598 585.094C3.48415 578.892 0 570.481 0 561.71V297.37C0 206.17 74.2 131.97 165.4 131.97C187.278 131.936 208.942 136.274 229.12 144.73C256.279 156.145 279.924 174.561 297.64 198.1C319.192 226.705 330.837 261.554 330.81 297.37Z" fill="#3751AF"/>
<path d="M66.1303 462.81H142.11V396.68H66.1303L66.1303 462.81Z" fill="url(#paint0_linear_412_2962)"/>
<path d="M33.07 595.03C51.3341 595.03 66.14 580.224 66.14 561.96C66.14 543.696 51.3341 528.89 33.07 528.89C14.8059 528.89 0 543.696 0 561.96C0 580.224 14.8059 595.03 33.07 595.03Z" fill="url(#paint1_linear_412_2962)"/>
<path d="M425.15 1.513e-06C420.807 -0.00131241 416.506 0.853171 412.493 2.51463C408.481 4.17609 404.834 6.61195 401.763 9.68305C398.692 12.7541 396.256 16.4003 394.595 20.4131C392.933 24.4259 392.079 28.7268 392.08 33.07V132.01H292.81C270.942 131.981 249.289 136.319 229.12 144.77C256.28 156.185 279.924 174.601 297.64 198.14H392.08V297.37C392.052 322.835 382.248 347.318 364.694 365.766C347.139 384.213 323.173 395.219 297.74 396.51C296.12 396.61 294.47 396.64 292.81 396.64C272.448 396.627 252.583 390.35 235.911 378.661C219.238 366.973 206.565 350.438 199.61 331.3C192.656 312.163 191.758 291.349 197.037 271.683C202.316 252.018 213.517 234.452 229.12 221.37C211.271 206.384 188.707 198.175 165.4 198.19C163.75 198.19 162.1 198.19 160.48 198.33C138.998 226.945 127.392 261.765 127.41 297.547C127.428 333.329 139.069 368.136 160.58 396.73C178.306 420.267 201.957 438.683 229.12 450.1C249.289 458.551 270.942 462.889 292.81 462.86C384.01 462.86 458.21 388.66 458.21 297.46V33.07C458.212 28.7277 457.357 24.4276 455.697 20.4154C454.036 16.4032 451.601 12.7576 448.531 9.68659C445.461 6.61562 441.816 4.17955 437.804 2.5175C433.792 0.855455 429.493 1.31435e-06 425.15 1.513e-06V1.513e-06Z" fill="#FB8C00"/>
<path d="M316.1 198.14H392.08V132.01H316.1V198.14Z" fill="url(#paint2_linear_412_2962)"/>
<path d="M536.69 260.65C558.97 260.65 576.073 264.567 588 272.4C599.927 280.233 605.883 293.06 605.87 310.88C605.87 328.88 599.833 341.85 587.76 349.79C575.687 357.73 558.437 361.73 536.01 361.79H525.48V411.79H491.87V264.53C499.56 263.048 507.335 262.046 515.15 261.53C523.33 260.943 530.51 260.65 536.69 260.65ZM538.87 289.37C536.42 289.37 534.02 289.44 531.64 289.59C529.26 289.74 527.22 289.88 525.5 290.02V333.13H536.06C547.713 333.13 556.483 331.55 562.37 328.39C568.257 325.23 571.203 319.337 571.21 310.71C571.334 307.125 570.546 303.567 568.92 300.37C567.404 297.627 565.167 295.352 562.45 293.79C559.281 292.013 555.808 290.843 552.21 290.34C547.796 289.663 543.335 289.339 538.87 289.37Z" fill="white"/>
<path d="M663.67 265.61C663.67 271.497 661.767 276.13 657.96 279.51C654.229 282.792 649.429 284.603 644.46 284.603C639.491 284.603 634.691 282.792 630.96 279.51C627.153 276.137 625.25 271.503 625.25 265.61C625.25 259.717 627.153 255.08 630.96 251.7C634.691 248.418 639.491 246.607 644.46 246.607C649.429 246.607 654.229 248.418 657.96 251.7C661.773 255.08 663.677 259.717 663.67 265.61ZM660.67 411.78H628.53V298.37H660.66L660.67 411.78Z" fill="white"/>
<path d="M796.26 355.08C796.351 363.171 795.263 371.232 793.03 379.01C791.102 385.748 787.879 392.046 783.54 397.55C779.373 402.723 774.06 406.855 768.02 409.62C761.305 412.603 754.016 414.074 746.67 413.93C742.469 413.956 738.277 413.524 734.17 412.64C730.321 411.792 726.566 410.563 722.96 408.97V451.66H690.87V302.26C693.743 301.387 697.047 300.56 700.78 299.78C704.513 299 708.43 298.317 712.53 297.73C716.63 297.157 720.8 296.69 725.04 296.33C729.27 295.97 733.34 295.79 737.22 295.79C745.74 295.651 754.213 297.074 762.22 299.99C769.183 302.561 775.507 306.606 780.76 311.85C785.914 317.154 789.849 323.519 792.29 330.5C795.038 338.399 796.381 346.718 796.26 355.08V355.08ZM763.49 355.94C763.49 346.02 761.263 338.08 756.81 332.12C752.357 326.16 745.743 323.177 736.97 323.17C734.103 323.17 731.437 323.277 728.97 323.49C726.503 323.703 724.503 323.957 722.97 324.25V382.25C725.422 383.723 728.087 384.809 730.87 385.47C734.068 386.334 737.367 386.771 740.68 386.77C755.887 386.77 763.49 376.493 763.49 355.94Z" fill="white"/>
<path d="M815.66 355.94C815.66 345.88 817.206 337.077 820.3 329.53C823.054 322.487 827.196 316.07 832.48 310.66C837.421 305.688 843.344 301.799 849.87 299.24C856.27 296.685 863.098 295.371 869.99 295.37C886.083 295.37 898.803 300.29 908.15 310.13C917.496 319.97 922.163 334.453 922.15 353.58C922.15 355.45 922.08 357.49 921.94 359.72C921.8 361.95 921.65 363.92 921.51 365.65H848.65C848.934 368.794 849.913 371.835 851.516 374.553C853.119 377.272 855.306 379.6 857.92 381.37C863.38 385.25 870.713 387.19 879.92 387.19C885.741 387.196 891.55 386.654 897.27 385.57C902.04 384.757 906.706 383.415 911.18 381.57L915.49 407.66C913.265 408.712 910.957 409.578 908.59 410.25C905.436 411.174 902.234 411.929 899 412.51C895.473 413.177 891.7 413.717 887.68 414.13C883.667 414.558 879.635 414.771 875.6 414.77C865.4 414.77 856.526 413.263 848.98 410.25C841.894 407.54 835.49 403.307 830.22 397.85C825.211 392.53 821.453 386.158 819.22 379.2C816.797 371.687 815.596 363.834 815.66 355.94ZM891.12 343.65C890.974 340.937 890.504 338.251 889.72 335.65C888.957 333.133 887.711 330.789 886.05 328.75C884.33 326.687 882.202 325.002 879.8 323.8C876.873 322.411 873.657 321.742 870.42 321.85C867.232 321.771 864.066 322.4 861.15 323.69C858.673 324.829 856.467 326.482 854.68 328.54C852.925 330.606 851.569 332.98 850.68 335.54C849.772 338.172 849.103 340.879 848.68 343.63L891.12 343.65Z" fill="white"/>
<path d="M1046.99 408.11C1044.11 408.97 1040.8 409.797 1037.07 410.59C1033.34 411.383 1029.42 412.05 1025.32 412.59C1021.23 413.163 1017.06 413.63 1012.82 413.99C1008.58 414.35 1004.52 414.53 1000.64 414.53C992.129 414.667 983.662 413.278 975.64 410.43C968.668 407.931 962.336 403.918 957.1 398.68C951.96 393.406 948.023 387.081 945.56 380.14C942.796 372.283 941.442 363.999 941.56 355.67C941.447 347.243 942.61 338.848 945.01 330.77C947.028 323.888 950.397 317.476 954.92 311.91C959.194 306.761 964.625 302.697 970.77 300.05C977.559 297.212 984.863 295.816 992.22 295.95C996.258 295.899 1000.29 296.335 1004.22 297.25C1007.88 298.158 1011.45 299.382 1014.89 300.91V249.65L1047.01 244.48L1046.99 408.11ZM974.34 354.21C974.34 364.13 976.567 372.107 981.02 378.14C985.474 384.173 992.084 387.193 1000.85 387.2C1003.73 387.2 1006.38 387.09 1008.85 386.88C1011.32 386.67 1013.3 386.41 1014.85 386.12V327.7C1012.41 326.222 1009.75 325.13 1006.98 324.46C1003.78 323.605 1000.48 323.172 997.17 323.17C981.944 323.17 974.334 333.517 974.34 354.21V354.21Z" fill="white"/>
<path d="M1071.78 355.94C1071.78 345.88 1073.33 337.077 1076.42 329.53C1079.17 322.487 1083.32 316.07 1088.6 310.66C1093.53 305.693 1099.44 301.804 1105.95 299.24C1112.36 296.676 1119.2 295.359 1126.11 295.36C1142.2 295.36 1154.92 300.28 1164.27 310.12C1173.62 319.96 1178.29 334.443 1178.27 353.57C1178.27 355.44 1178.2 357.48 1178.06 359.71C1177.92 361.94 1177.77 363.91 1177.63 365.64H1104.77C1105.05 368.787 1106.03 371.832 1107.63 374.554C1109.24 377.276 1111.42 379.608 1114.04 381.38C1119.5 385.26 1126.83 387.2 1136.04 387.2C1141.86 387.206 1147.67 386.664 1153.39 385.58C1158.16 384.767 1162.83 383.425 1167.3 381.58L1171.61 407.67C1169.38 408.721 1167.08 409.588 1164.71 410.26C1161.56 411.184 1158.35 411.938 1155.12 412.52C1151.59 413.187 1147.82 413.727 1143.8 414.14C1139.79 414.567 1135.75 414.781 1131.72 414.78C1121.52 414.78 1112.65 413.273 1105.1 410.26C1098.01 407.549 1091.61 403.316 1086.34 397.86C1081.33 392.539 1077.57 386.168 1075.34 379.21C1072.92 371.693 1071.71 363.837 1071.78 355.94V355.94ZM1147.24 343.65C1147.09 340.937 1146.62 338.251 1145.84 335.65C1145.08 333.133 1143.83 330.789 1142.17 328.75C1140.45 326.687 1138.32 325.002 1135.92 323.8C1132.99 322.411 1129.78 321.742 1126.54 321.85C1123.35 321.771 1120.19 322.399 1117.27 323.69C1114.79 324.829 1112.59 326.482 1110.8 328.54C1109.05 330.606 1107.69 332.98 1106.8 335.54C1105.89 338.171 1105.22 340.879 1104.8 343.63L1147.24 343.65Z" fill="white"/>
<path d="M1243.87 295.37C1253.36 295.37 1261.26 296.447 1267.59 298.6C1273.34 300.407 1278.55 303.589 1282.79 307.87C1286.66 312.011 1289.43 317.049 1290.87 322.53C1292.51 328.792 1293.31 335.246 1293.24 341.72V408.55C1288.64 409.557 1282.25 410.743 1274.06 412.11C1264.21 413.576 1254.26 414.245 1244.3 414.11C1237.6 414.172 1230.92 413.521 1224.36 412.17C1218.86 411.063 1213.63 408.904 1208.95 405.81C1204.68 402.915 1201.25 398.931 1199.03 394.27C1196.73 389.53 1195.58 383.71 1195.58 376.81C1195.58 370.197 1196.91 364.59 1199.58 359.99C1202.15 355.481 1205.82 351.697 1210.25 348.99C1214.98 346.152 1220.15 344.146 1225.56 343.06C1231.44 341.826 1237.44 341.212 1243.45 341.23C1247.16 341.207 1250.86 341.387 1254.55 341.77C1257.21 342.026 1259.84 342.494 1262.42 343.17V340.17C1262.42 334.71 1260.75 330.327 1257.42 327.02C1254.09 323.713 1248.34 322.047 1240.17 322.02C1234.76 322.018 1229.35 322.415 1224 323.21C1219.3 323.847 1214.67 324.966 1210.2 326.55L1206.1 300.68C1207.97 300.1 1210.3 299.487 1213.1 298.84C1215.9 298.2 1218.95 297.62 1222.26 297.12C1225.57 296.62 1229.05 296.19 1232.72 295.83C1236.39 295.47 1240.08 295.37 1243.87 295.37ZM1246.46 389.37C1249.62 389.37 1252.62 389.3 1255.46 389.16C1257.77 389.074 1260.07 388.857 1262.36 388.51V364.13C1261.07 363.84 1259.13 363.56 1256.54 363.27C1251.33 362.655 1246.07 362.688 1240.87 363.37C1238.44 363.65 1236.08 364.326 1233.87 365.37C1231.95 366.294 1230.31 367.709 1229.12 369.47C1227.91 371.406 1227.31 373.66 1227.4 375.94C1227.4 380.967 1229.09 384.45 1232.46 386.39C1235.83 388.33 1240.48 389.323 1246.41 389.37H1246.46Z" fill="white"/>
<path d="M1367.57 413.93C1358.24 413.79 1350.66 412.79 1344.83 410.93C1339 409.07 1334.4 406.447 1331.03 403.06C1327.64 399.68 1325.26 395.43 1324.13 390.78C1322.85 385.45 1322.24 379.981 1322.3 374.5V249.65L1354.42 244.48V368.01C1354.39 370.611 1354.61 373.209 1355.07 375.77C1355.42 377.882 1356.27 379.878 1357.55 381.59C1358.95 383.313 1360.77 384.649 1362.83 385.47C1365.79 386.628 1368.92 387.283 1372.1 387.41L1367.57 413.93Z" fill="white"/>
<path d="M1421.87 348.18C1421.87 354.64 1419.82 359.563 1415.72 362.95C1411.82 366.217 1406.9 368.008 1401.81 368.008C1396.73 368.008 1391.81 366.217 1387.91 362.95C1383.82 359.57 1381.78 354.646 1381.77 348.18C1381.76 341.713 1383.81 336.79 1387.91 333.41C1391.8 330.135 1396.73 328.339 1401.81 328.339C1406.9 328.339 1411.83 330.135 1415.72 333.41C1419.82 336.79 1421.87 341.713 1421.87 348.18Z" fill="white"/>
<path d="M1438.07 355.08C1438.02 347.178 1439.38 339.329 1442.07 331.9C1444.58 324.823 1448.53 318.343 1453.67 312.87C1458.81 307.396 1465.02 303.048 1471.93 300.1C1479.7 296.824 1488.08 295.21 1496.51 295.36C1502.08 295.316 1507.65 295.855 1513.11 296.97C1518.13 298.049 1523.04 299.603 1527.77 301.61L1521.09 327.26C1517.85 326.054 1514.54 325.052 1511.17 324.26C1507.21 323.352 1503.16 322.915 1499.1 322.96C1489.61 322.96 1482.53 325.907 1477.86 331.8C1473.19 337.694 1470.86 345.457 1470.86 355.09C1470.86 365.29 1473.05 373.194 1477.43 378.8C1481.81 384.407 1489.48 387.21 1500.43 387.21C1504.62 387.184 1508.81 386.823 1512.94 386.13C1517.16 385.477 1521.28 384.319 1525.22 382.68L1529.75 408.98C1525.23 410.8 1520.54 412.173 1515.75 413.08C1509.64 414.276 1503.43 414.852 1497.21 414.8C1486.86 414.8 1477.95 413.257 1470.47 410.17C1463.46 407.398 1457.16 403.089 1452.04 397.56C1447.16 392.134 1443.55 385.687 1441.48 378.69C1439.17 371.035 1438.02 363.076 1438.07 355.08V355.08Z" fill="white"/>
<path d="M1651.93 354.86C1652.03 363.177 1650.72 371.451 1648.05 379.33C1645.69 386.38 1641.87 392.853 1636.84 398.33C1631.92 403.601 1625.93 407.755 1619.27 410.51C1611.97 413.48 1604.15 414.946 1596.27 414.82C1588.48 414.929 1580.74 413.463 1573.53 410.51C1566.87 407.757 1560.88 403.603 1555.96 398.33C1550.91 392.827 1547.03 386.366 1544.53 379.33C1541.72 371.481 1540.33 363.195 1540.43 354.86C1540.32 346.55 1541.75 338.292 1544.64 330.5C1547.22 323.527 1551.18 317.147 1556.28 311.74C1561.28 306.543 1567.3 302.434 1573.96 299.67C1581.03 296.751 1588.62 295.285 1596.27 295.36C1604.02 295.262 1611.7 296.728 1618.87 299.67C1625.51 302.421 1631.49 306.533 1636.44 311.74C1641.48 317.158 1645.37 323.539 1647.87 330.5C1650.67 338.312 1652.05 346.563 1651.93 354.86ZM1619.16 354.86C1619.16 344.94 1617.19 337.143 1613.24 331.47C1609.29 325.797 1603.65 322.957 1596.31 322.95C1588.98 322.95 1583.31 325.79 1579.31 331.47C1575.31 337.15 1573.31 344.947 1573.31 354.86C1573.31 364.78 1575.31 372.65 1579.31 378.47C1583.31 384.29 1588.98 387.2 1596.31 387.2C1603.64 387.2 1609.29 384.29 1613.24 378.47C1617.19 372.65 1619.17 364.78 1619.16 354.86Z" fill="white"/>
<path d="M1739.03 351.63C1739.03 341.283 1737.7 333.95 1735.03 329.63C1732.36 325.31 1727.8 323.153 1721.34 323.16C1719.34 323.16 1717.26 323.267 1715.09 323.48C1712.92 323.693 1710.84 323.947 1708.84 324.24V411.77H1676.72V302.26C1679.44 301.54 1682.64 300.783 1686.31 299.99C1689.98 299.197 1693.86 298.48 1697.95 297.84C1702.05 297.173 1706.25 296.67 1710.56 296.33C1714.87 295.99 1719.11 295.81 1723.28 295.79C1731.48 295.79 1738.13 296.83 1743.23 298.91C1747.82 300.696 1752.09 303.215 1755.87 306.37C1765.41 299.804 1776.64 296.136 1788.21 295.81C1797.26 295.81 1804.7 297.067 1810.52 299.58C1816.02 301.846 1820.82 305.528 1824.43 310.25C1827.99 315.115 1830.42 320.715 1831.54 326.64C1832.89 333.601 1833.54 340.68 1833.48 347.77V411.77H1801.36V351.63C1801.36 341.283 1800.03 333.95 1797.36 329.63C1794.69 325.31 1790.13 323.153 1783.67 323.16C1781.22 323.283 1778.79 323.716 1776.45 324.45C1773.75 325.14 1771.17 326.232 1768.79 327.69C1769.81 331.092 1770.47 334.596 1770.73 338.14C1771.02 341.807 1771.17 345.723 1771.16 349.89V411.77H1739.04L1739.03 351.63Z" fill="white"/>
</g>
<defs>
<linearGradient id="paint0_linear_412_2962" x1="142.11" y1="429.75" x2="66.1303" y2="429.75" gradientUnits="userSpaceOnUse">
<stop stop-color="#241F20" stop-opacity="0"/>
<stop offset="1"/>
</linearGradient>
<linearGradient id="paint1_linear_412_2962" x1="33.07" y1="595.02" x2="33.07" y2="528.89" gradientUnits="userSpaceOnUse">
<stop stop-color="#241F20" stop-opacity="0"/>
<stop offset="1"/>
</linearGradient>
<linearGradient id="paint2_linear_412_2962" x1="316.1" y1="165.08" x2="392.08" y2="165.08" gradientUnits="userSpaceOnUse">
<stop stop-color="#241F20" stop-opacity="0"/>
<stop offset="1"/>
</linearGradient>
<clipPath id="clip0_412_2962">
<rect width="1833.46" height="595.02" fill="white"/>
</clipPath>
</defs>
</svg>
