<svg width="54" height="54" viewBox="0 0 54 54" fill="none" xmlns="http://www.w3.org/2000/svg">
<path d="M37.125 20.25C37.125 22.9353 36.0583 25.5107 34.1595 27.4095C32.2607 29.3083 29.6853 30.375 27 30.375C24.3147 30.375 21.7393 29.3083 19.8405 27.4095C17.9417 25.5107 16.875 22.9353 16.875 20.25C16.875 17.5647 17.9417 14.9893 19.8405 13.0905C21.7393 11.1917 24.3147 10.125 27 10.125C29.6853 10.125 32.2607 11.1917 34.1595 13.0905C36.0583 14.9893 37.125 17.5647 37.125 20.25Z" fill="black" fill-opacity="0.4"/>
<path fill-rule="evenodd" clip-rule="evenodd" d="M0 27C0 19.8392 2.84464 12.9716 7.90812 7.90812C12.9716 2.84464 19.8392 0 27 0C34.1608 0 41.0284 2.84464 46.0919 7.90812C51.1554 12.9716 54 19.8392 54 27C54 34.1608 51.1554 41.0284 46.0919 46.0919C41.0284 51.1554 34.1608 54 27 54C19.8392 54 12.9716 51.1554 7.90812 46.0919C2.84464 41.0284 0 34.1608 0 27ZM27 3.375C22.551 3.37524 18.1925 4.63172 14.4261 6.99984C10.6597 9.36796 7.63858 12.7515 5.71038 16.7609C3.78218 20.7703 3.0253 25.2428 3.52687 29.6634C4.02844 34.084 5.76805 38.2732 8.5455 41.7487C10.9418 37.8877 16.2169 33.75 27 33.75C37.7831 33.75 43.0549 37.8844 45.4545 41.7487C48.2319 38.2732 49.9716 34.084 50.4731 29.6634C50.9747 25.2428 50.2178 20.7703 48.2896 16.7609C46.3614 12.7515 43.3403 9.36796 39.5739 6.99984C35.8075 4.63172 31.449 3.37524 27 3.375Z" fill="black" fill-opacity="0.4"/>
</svg>
