<svg width="26" height="32" viewBox="0 0 26 32" fill="none" xmlns="http://www.w3.org/2000/svg">
<path d="M3.575 0C2.62685 0 1.71754 0.46357 1.04709 1.28873C0.376651 2.11389 0 3.23305 0 4.4V24.4C0 25.567 0.376651 26.6861 1.04709 27.5113C1.71754 28.3364 2.62685 28.8 3.575 28.8H11.7286C11.339 28.052 11.0292 27.2454 10.8069 26.4H3.575C2.678 26.4 1.95 25.504 1.95 24.4V4.4C1.95 3.296 2.678 2.4 3.575 2.4H19.825C20.722 2.4 21.45 3.296 21.45 4.4V13.3008C22.1369 13.5744 22.7922 13.9557 23.4 14.4352V4.4C23.4 3.23305 23.0233 2.11389 22.3529 1.28873C21.6825 0.46357 20.7731 0 19.825 0H3.575ZM19.4441 12.8256C19.4999 12.6439 19.5191 12.4482 19.4998 12.2554C19.4806 12.0626 19.4235 11.8784 19.3336 11.7188C19.2437 11.5591 19.1235 11.4288 18.9836 11.339C18.8436 11.2492 18.688 11.2026 18.5302 11.2032H12.025C11.7664 11.2032 11.5184 11.3296 11.3356 11.5547C11.1527 11.7797 11.05 12.0849 11.05 12.4032C11.05 12.7215 11.1527 13.0267 11.3356 13.2517C11.5184 13.4768 11.7664 13.6032 12.025 13.6032H15.5896C16.8072 12.9759 18.1275 12.7096 19.4441 12.8256ZM6.825 8.8032C6.04924 8.8032 5.30526 9.18248 4.75671 9.85762C4.20817 10.5327 3.9 11.4484 3.9 12.4032C3.9 13.358 4.20817 14.2737 4.75671 14.9488C5.30526 15.6239 6.04924 16.0032 6.825 16.0032C7.60076 16.0032 8.34474 15.6239 8.89329 14.9488C9.44183 14.2737 9.75 13.358 9.75 12.4032C9.75 11.4484 9.44183 10.5327 8.89329 9.85762C8.34474 9.18248 7.60076 8.8032 6.825 8.8032ZM5.85 12.4032C5.85 12.0849 5.95272 11.7797 6.13557 11.5547C6.31842 11.3296 6.56641 11.2032 6.825 11.2032C7.08359 11.2032 7.33158 11.3296 7.51443 11.5547C7.69728 11.7797 7.8 12.0849 7.8 12.4032C7.8 12.7215 7.69728 13.0267 7.51443 13.2517C7.33158 13.4768 7.08359 13.6032 6.825 13.6032C6.56641 13.6032 6.31842 13.4768 6.13557 13.2517C5.95272 13.0267 5.85 12.7215 5.85 12.4032ZM3.9 21.2C3.9 20.7272 3.97566 20.2591 4.12265 19.8223C4.26965 19.3856 4.4851 18.9887 4.75671 18.6544C5.02832 18.3201 5.35077 18.055 5.70565 17.874C6.06053 17.6931 6.44088 17.6 6.825 17.6C7.20912 17.6 7.58947 17.6931 7.94435 17.874C8.29923 18.055 8.62168 18.3201 8.89329 18.6544C9.1649 18.9887 9.38035 19.3856 9.52735 19.8223C9.67434 20.2591 9.75 20.7272 9.75 21.2C9.75 22.1548 9.44183 23.0705 8.89329 23.7456C8.34474 24.4207 7.60076 24.8 6.825 24.8C6.04924 24.8 5.30526 24.4207 4.75671 23.7456C4.20817 23.0705 3.9 22.1548 3.9 21.2ZM6.825 20C6.56641 20 6.31842 20.1264 6.13557 20.3515C5.95272 20.5765 5.85 20.8817 5.85 21.2C5.85 21.5183 5.95272 21.8235 6.13557 22.0485C6.31842 22.2736 6.56641 22.4 6.825 22.4C7.08359 22.4 7.33158 22.2736 7.51443 22.0485C7.69728 21.8235 7.8 21.5183 7.8 21.2C7.8 20.8817 7.69728 20.5765 7.51443 20.3515C7.33158 20.1264 7.08359 20 6.825 20ZM18.5302 7.2H4.8802C4.62161 7.2 4.37362 7.07357 4.19077 6.84853C4.00792 6.62348 3.9052 6.31826 3.9052 6C3.9052 5.68174 4.00792 5.37652 4.19077 5.15147C4.37362 4.92643 4.62161 4.8 4.8802 4.8H18.5302C18.7888 4.8 19.0368 4.92643 19.2196 5.15147C19.4025 5.37652 19.5052 5.68174 19.5052 6C19.5052 6.31826 19.4025 6.62348 19.2196 6.84853C19.0368 7.07357 18.7888 7.2 18.5302 7.2ZM26 23.2C26 20.8661 25.2467 18.6278 23.9058 16.9775C22.5649 15.3271 20.7463 14.4 18.85 14.4C16.9537 14.4 15.1351 15.3271 13.7942 16.9775C12.4533 18.6278 11.7 20.8661 11.7 23.2C11.7 25.5339 12.4533 27.7722 13.7942 29.4225C15.1351 31.0729 16.9537 32 18.85 32C20.7463 32 22.5649 31.0729 23.9058 29.4225C25.2467 27.7722 26 25.5339 26 23.2ZM19.5013 28.0048C19.5013 28.217 19.4328 28.4205 19.3109 28.5705C19.189 28.7205 19.0237 28.8048 18.8513 28.8048C18.6789 28.8048 18.5136 28.7205 18.3917 28.5705C18.2698 28.4205 18.2013 28.217 18.2013 28.0048V24H14.9448C14.7724 24 14.6071 23.9157 14.4852 23.7657C14.3633 23.6157 14.2948 23.4122 14.2948 23.2C14.2948 22.9878 14.3633 22.7843 14.4852 22.6343C14.6071 22.4843 14.7724 22.4 14.9448 22.4H18.2V18.4C18.2 18.1878 18.2685 17.9843 18.3904 17.8343C18.5123 17.6843 18.6776 17.6 18.85 17.6C19.0224 17.6 19.1877 17.6843 19.3096 17.8343C19.4315 17.9843 19.5 18.1878 19.5 18.4V22.4H22.7539C22.9263 22.4 23.0916 22.4843 23.2135 22.6343C23.3354 22.7843 23.4039 22.9878 23.4039 23.2C23.4039 23.4122 23.3354 23.6157 23.2135 23.7657C23.0916 23.9157 22.9263 24 22.7539 24H19.5013V28.0048Z" fill="white"/>
</svg>
