<svg width="284" height="189" viewBox="0 0 284 189" fill="none" xmlns="http://www.w3.org/2000/svg">
<g clip-path="url(#clip0_50_743)">
<path d="M207.631 188.073C199.779 186.843 192.229 185.797 184.982 184.934L187.772 179.349C186.804 179.026 182.606 182.257 182.606 182.257L186.158 166.102C181.314 166.748 179.054 183.226 179.054 183.226L173.564 177.734L176.267 183.952C154.089 181.621 134.951 180.893 118.864 181.06L121.253 176.28C120.284 175.956 116.086 179.187 116.086 179.187L119.638 163.032C114.795 163.679 112.534 180.157 112.534 180.157L107.045 174.664L109.907 181.251C98.8873 181.571 87.8915 182.457 76.9627 183.905C79.3463 176.475 87.6701 169.333 87.6701 169.333C81.2699 171.325 77.9402 174.571 76.2167 177.58C75.8681 162.315 78.215 147.109 83.1494 132.661C83.1494 132.661 70.233 161.74 72.1704 181.126L72.4163 184.57C61.1792 186.324 55.5405 188.073 55.5405 188.073H207.631Z" fill="#3F3D56"/>
<path d="M237.234 148.052C236.467 148.052 235.718 147.825 235.081 147.399C234.444 146.973 233.947 146.367 233.654 145.659C233.36 144.95 233.284 144.17 233.433 143.418C233.583 142.666 233.952 141.975 234.494 141.433C235.036 140.891 235.726 140.522 236.478 140.372C237.229 140.222 238.008 140.299 238.716 140.593C239.425 140.886 240.03 141.383 240.455 142.021C240.881 142.658 241.109 143.408 241.109 144.175C241.107 145.203 240.699 146.188 239.972 146.915C239.246 147.642 238.261 148.051 237.234 148.052ZM237.234 140.944C236.595 140.944 235.971 141.133 235.44 141.488C234.909 141.843 234.495 142.348 234.25 142.938C234.006 143.529 233.942 144.178 234.067 144.805C234.191 145.432 234.499 146.008 234.95 146.459C235.402 146.911 235.977 147.219 236.604 147.344C237.23 147.468 237.879 147.404 238.469 147.16C239.059 146.915 239.564 146.501 239.918 145.97C240.273 145.439 240.463 144.814 240.463 144.175C240.462 143.318 240.121 142.497 239.516 141.891C238.91 141.285 238.09 140.945 237.234 140.944Z" fill="#3F3D56"/>
<path d="M268.177 187.564H261.803V181.186H268.177V187.564ZM262.293 187.073H267.687V181.676H262.293V187.073Z" fill="#3F3D56"/>
<path d="M52.358 187.913L48.01 183.249L52.6716 178.898L57.0196 183.562L52.358 187.913ZM48.7031 183.273L52.3821 187.22L56.3266 183.538L52.6475 179.592L48.7031 183.273Z" fill="#3F3D56"/>
<path d="M284 187.204H6.99829V187.85H284V187.204Z" fill="#3F3D56"/>
<path d="M178.723 43.4554V64.6768C178.722 64.8728 178.644 65.0607 178.506 65.1994C178.367 65.338 178.179 65.4161 177.983 65.4167H177.457V175.966C177.457 179.025 176.242 181.959 174.08 184.122C171.919 186.285 168.987 187.501 165.929 187.501H96.8941C95.3805 187.501 93.8816 187.202 92.4833 186.622C91.0849 186.043 89.8143 185.193 88.7441 184.122C87.6739 183.051 86.8251 181.779 86.2461 180.38C85.667 178.98 85.3692 177.481 85.3694 175.966V69.2939H84.9884C84.8502 69.2941 84.7175 69.2395 84.6194 69.142C84.5214 69.0444 84.4659 68.912 84.4653 68.7737V56.6961C84.4653 56.6274 84.4788 56.5593 84.5051 56.4958C84.5314 56.4323 84.5699 56.3746 84.6185 56.326C84.667 56.2774 84.7247 56.2388 84.7882 56.2125C84.8517 56.1862 84.9197 56.1727 84.9884 56.1727H85.3694V51.6234H84.9852C84.84 51.6229 84.7011 51.5647 84.5988 51.4618C84.4964 51.3588 84.4392 51.2194 84.4395 51.0742V39.1614C84.4398 39.0167 84.4974 38.878 84.5997 38.7757C84.702 38.6734 84.8405 38.6157 84.9852 38.6154H85.3694V32.4054H84.9787C84.9151 32.4054 84.852 32.393 84.7932 32.3686C84.7344 32.3443 84.681 32.3086 84.636 32.2636C84.591 32.2186 84.5553 32.1651 84.531 32.1063C84.5067 32.0474 84.4942 31.9844 84.4943 31.9207V25.4199C84.494 25.291 84.5449 25.1672 84.6357 25.0757C84.7265 24.9843 84.8499 24.9326 84.9787 24.932H85.3694V11.7688C85.3695 8.71052 86.5838 5.77751 88.7451 3.61496C90.9063 1.4524 93.8376 0.237447 96.8941 0.237335H165.929C168.986 0.237321 171.918 1.45214 174.08 3.61462C176.241 5.77711 177.456 8.71019 177.457 11.7688V42.7155H177.983C178.179 42.7161 178.367 42.7942 178.506 42.9328C178.644 43.0715 178.722 43.2594 178.723 43.4554Z" fill="#3F3D56"/>
<path d="M134.738 6.15228H123.52C123.067 6.15228 122.699 6.51999 122.699 6.97357V7.94373C122.699 8.39732 123.067 8.76502 123.52 8.76502H134.738C135.191 8.76502 135.559 8.39732 135.559 7.94373V6.97357C135.559 6.51999 135.191 6.15228 134.738 6.15228Z" fill="#E6E8EC"/>
<path d="M138.984 8.94063C139.802 8.94063 140.465 8.27713 140.465 7.45867C140.465 6.64021 139.802 5.97672 138.984 5.97672C138.166 5.97672 137.503 6.64021 137.503 7.45867C137.503 8.27713 138.166 8.94063 138.984 8.94063Z" fill="#E6E8EC"/>
<path d="M171.937 14.0501V176.923C171.938 177.982 171.709 179.028 171.265 179.989C170.821 180.951 170.173 181.804 169.367 182.49C168.044 183.618 166.362 184.238 164.623 184.238H98.5395C97.3637 184.239 96.2049 183.957 95.1619 183.414C94.9168 183.288 94.6796 183.148 94.4515 182.994C93.4583 182.323 92.6447 181.419 92.0823 180.36C91.5198 179.302 91.2257 178.121 91.2256 176.923V14.0501C91.2255 13.089 91.4147 12.1374 91.7822 11.2495C92.1498 10.3616 92.6885 9.55478 93.3677 8.87521C94.0469 8.19564 94.8532 7.65658 95.7405 7.28882C96.6279 6.92106 97.579 6.7318 98.5395 6.73184H108.43V8.00163C108.43 9.59978 109.065 11.1325 110.194 12.2625C111.324 13.3926 112.855 14.0275 114.453 14.0275H148.061C149.658 14.0275 151.19 13.3926 152.319 12.2625C153.449 11.1325 154.083 9.59978 154.083 8.00163V6.73184H164.623C165.584 6.73153 166.535 6.92061 167.422 7.28827C168.31 7.65594 169.116 8.19499 169.796 8.87461C170.475 9.55424 171.014 10.3611 171.381 11.2492C171.748 12.1372 171.937 13.089 171.937 14.0501Z" fill="#9378FF"/>
<path opacity="0.3" d="M171.937 153.607V176.923C171.938 177.981 171.709 179.028 171.265 179.989C170.821 180.951 170.173 181.804 169.367 182.49C168.044 183.618 166.362 184.238 164.623 184.238H98.5395C97.3637 184.239 96.2049 183.957 95.1619 183.414C94.9168 183.288 94.6796 183.148 94.4515 182.994C93.4583 182.323 92.6447 181.419 92.0823 180.36C91.5198 179.302 91.2257 178.121 91.2256 176.923V153.617C102.307 143.651 116.68 138.136 131.579 138.134C146.479 138.132 160.854 143.644 171.937 153.607Z" fill="white"/>
<path opacity="0.3" d="M168.007 183.407C166.964 183.956 165.802 184.241 164.623 184.238H98.5395C97.3637 184.239 96.2049 183.957 95.1619 183.414C98.1535 176.214 103.209 170.063 109.691 165.735C116.173 161.408 123.79 159.098 131.582 159.097C139.375 159.096 146.993 161.405 153.475 165.731C159.958 170.058 165.014 176.208 168.007 183.407Z" fill="white"/>
<path opacity="0.3" d="M153.625 183.798C152.993 184.13 152.29 184.302 151.577 184.3H111.588C110.877 184.302 110.175 184.13 109.544 183.802C111.355 179.445 114.414 175.723 118.336 173.104C122.258 170.485 126.868 169.088 131.583 169.087C136.298 169.087 140.908 170.484 144.831 173.102C148.754 175.72 151.814 179.442 153.625 183.798Z" fill="white"/>
<path d="M148.392 69.7852C141.763 69.7852 134.488 68.5221 128.809 64.2601C120.902 58.3263 111.16 58.6429 104.38 59.9538C99.8763 60.8318 95.505 62.2886 91.3748 64.2882L91.0762 63.7152C95.2568 61.6896 99.6816 60.2132 104.24 59.3225C111.154 57.9838 121.095 57.6638 129.197 63.7433C144.373 75.1324 171.549 64.9033 171.821 64.799L172.053 65.4023C166.957 67.2198 161.686 68.5037 156.325 69.2333C153.696 69.5922 151.046 69.7766 148.392 69.7852Z" fill="white"/>
<path opacity="0.3" d="M91.2222 64.0017C91.2222 64.0017 113.503 58.6019 129.003 65.9952C144.502 73.3884 171.95 65.9403 171.95 65.9403" fill="white"/>
<path opacity="0.3" d="M112.257 72.3897C109.566 72.3776 106.881 72.1094 104.24 71.5887C99.6816 70.6981 95.2568 69.2216 91.0762 67.1961L91.3748 66.6231C95.505 68.6226 99.8763 70.0795 104.38 70.9575C111.16 72.2682 120.902 72.585 128.809 66.6512C136.903 60.5769 148.241 60.5939 156.325 61.6779C161.686 62.4075 166.957 63.6914 172.053 65.5089L171.821 66.1122C171.549 66.0076 144.374 55.7783 129.197 67.168C123.884 71.1549 117.78 72.3897 112.257 72.3897Z" fill="white"/>
<path opacity="0.3" d="M112.367 69.7878C101.183 69.7878 91.2515 65.7732 91.1025 65.7118L91.3485 65.1142C91.5696 65.2054 113.658 74.1286 128.838 65.1351C144.282 55.9849 171.755 64.1525 172.031 64.2361L171.843 64.8545C171.571 64.7719 144.366 56.6861 129.167 65.691C123.981 68.7641 118.014 69.7878 112.367 69.7878Z" fill="white"/>
<path opacity="0.3" d="M91.2256 64.9161C91.2256 64.9161 113.503 72.3094 129.003 64.9161C144.503 57.5228 171.937 64.2175 171.937 64.2175" fill="white"/>
<path d="M177.688 84.6962V94.1155C177.688 94.1155 178.441 104.665 182.583 109.94C182.583 109.94 189.361 119.548 190.302 117.475L189.143 110.653L185.219 106.926L183.148 95.2458L182.583 84.6962H177.688Z" fill="#FFB8B8"/>
<path d="M219.296 169.847V176.817L213.648 178.889V170.789L219.296 169.847Z" fill="#FFB8B8"/>
<path d="M207.812 169.093L211.577 177.57L206.306 179.831L205.176 171.542L207.812 169.093Z" fill="#FFB8B8"/>
<path d="M217.226 104.1C217.226 104.1 224.757 172.107 221.932 172.296C219.108 172.484 213.648 176.064 213.648 173.615C213.648 171.166 209.318 139.328 209.318 139.328L205.176 122.939V145.545L209.506 171.166C209.506 171.166 205.364 176.629 202.352 173.426L195.951 148.371C195.951 148.371 187.478 110.317 187.855 107.303C187.855 107.303 207.247 90.7245 217.226 104.1Z" fill="#2F2E41"/>
<path d="M215.719 177.194C215.719 177.194 217.226 173.991 220.615 176.064L223.439 179.455C223.439 179.455 230.72 185.488 225.553 186.78C220.228 188.113 217.037 186.695 217.037 186.695C217.037 186.695 216.096 186.13 215.343 186.13C214.59 186.13 212.895 184.811 212.895 184.435C212.895 184.058 213.46 177.382 213.46 177.382C213.673 177.278 213.913 177.241 214.148 177.274C214.383 177.308 214.602 177.411 214.778 177.571C215.343 178.136 215.719 177.194 215.719 177.194Z" fill="#2F2E41"/>
<path d="M204.611 176.064C204.611 176.064 208.188 173.238 209.883 176.44C209.883 176.44 210.95 176.817 211.075 176.44C211.201 176.064 212.142 175.875 212.142 177.947C212.142 180.02 213.165 185.188 212.223 185.377C211.282 185.565 210.34 186.13 210.529 186.884C210.717 187.637 209.506 187.743 205.176 187.555C200.846 187.367 200.657 185.671 200.657 185.671C200.657 185.671 200.657 183.222 201.787 181.904C202.917 180.585 204.611 176.064 204.611 176.064Z" fill="#2F2E41"/>
<path d="M197.645 52.6705C197.645 52.6705 196.704 59.6408 202.728 62.0898C208.753 64.5388 189.361 72.6394 187.478 67.9298C185.595 63.2201 187.855 61.713 187.855 61.713C187.855 61.713 189.738 59.8291 188.043 54.7427L197.645 52.6705Z" fill="#FFB8B8"/>
<path d="M191.62 57.5685C196.195 57.5685 199.904 53.8574 199.904 49.2795C199.904 44.7016 196.195 40.9905 191.62 40.9905C187.045 40.9905 183.336 44.7016 183.336 49.2795C183.336 53.8574 187.045 57.5685 191.62 57.5685Z" fill="#FFB8B8"/>
<path d="M201.222 64.3504C201.222 64.3504 195.574 67.3646 190.114 65.104C184.654 62.8433 184.842 72.6394 184.842 72.6394L187.666 79.9865L207.247 78.1026L205.929 66.7994L201.222 64.3504Z" fill="#F2F2F2"/>
<path d="M198.416 57.9044C199.419 58.1173 200.361 58.5533 201.173 59.1799C201.984 59.8066 202.645 60.6079 203.105 61.5246L212.142 64.3504L214.401 67.553L211.766 90.7245C211.766 90.7245 216.661 95.4342 216.661 98.0716C216.661 100.709 222.686 109.752 219.673 108.621C216.661 107.491 211.201 103.535 211.201 103.535C211.201 103.535 197.457 104.1 193.126 107.868C188.796 111.635 187.102 110.505 187.102 110.505C187.102 110.505 182.583 90.9129 182.395 87.8987C182.207 84.8845 176.935 66.7994 176.935 66.7994L186.349 61.5246L188.746 58.8025L195.386 69.4368L201.411 62.0898C201.411 62.0898 198.434 59.7474 198.416 57.9044Z" fill="#3F3D56"/>
<path d="M217.226 82.0587L218.355 88.0871C218.355 88.0871 223.439 106.926 222.686 113.331C222.686 113.331 223.25 127.648 220.05 125.953C216.849 124.257 218.544 113.896 218.544 113.896L214.025 95.2458L211.577 84.3194L217.226 82.0587Z" fill="#FFB8B8"/>
<path d="M212.519 66.4227L214.401 67.553C214.401 67.553 221.556 82.4355 219.861 83.5658C218.167 84.6961 210.824 87.1452 210.824 87.1452L212.519 66.4227Z" fill="#3F3D56"/>
<path d="M181.453 66.7995L177.029 66.7052L175.993 68.4949L177.311 86.7685L184.089 88.2755L181.453 66.7995Z" fill="#3F3D56"/>
<path d="M198.366 42.2692L199.859 41.7259C199.859 41.7259 196.737 38.602 192.393 38.8736L193.615 37.6512C193.615 37.6512 190.629 36.5646 187.914 39.4169C186.487 40.9163 184.836 42.6787 183.806 44.664H182.207L182.874 45.9996L180.539 47.3352L182.936 47.0953C182.709 48.2484 182.787 49.4408 183.163 50.5543L183.706 52.0483C183.706 52.0483 185.878 47.702 185.878 47.1587V48.517C185.878 48.517 187.371 47.2946 187.371 46.4796L188.185 47.4304L188.593 45.9363L193.615 47.4304L192.801 46.208L195.923 46.6155L194.701 45.1214C194.701 45.1214 198.23 46.8871 198.366 48.3811C198.502 49.8752 199.434 51.8227 199.434 51.8227L200.563 50.504C200.563 50.504 202.303 44.3065 198.366 42.2692Z" fill="#2F2E41"/>
<path d="M198.586 51.0692C198.95 51.0692 199.245 50.3101 199.245 49.3737C199.245 48.4373 198.95 47.6782 198.586 47.6782C198.222 47.6782 197.927 48.4373 197.927 49.3737C197.927 50.3101 198.222 51.0692 198.586 51.0692Z" fill="#FFB8B8"/>
<path d="M13.444 176.979C17.4572 184.427 25.9748 187.623 25.9748 187.623C25.9748 187.623 27.9856 178.746 23.9724 171.299C19.9591 163.852 11.4415 160.655 11.4415 160.655C11.4415 160.655 9.43069 169.532 13.444 176.979Z" fill="#3F3D56"/>
<path d="M16.2025 174.529C23.4481 178.891 26.2387 187.555 26.2387 187.555C26.2387 187.555 17.2817 189.147 10.0361 184.785C2.79051 180.423 0 171.759 0 171.759C0 171.759 8.95693 170.167 16.2025 174.529Z" fill="#9378FF"/>
<path opacity="0.3" d="M91.2256 64.0017C91.2256 64.0017 113.503 52.37 129.003 64.0017C144.503 75.6333 171.937 65.1007 171.937 65.1007" fill="white"/>
<path d="M131.667 182.362C133.628 182.362 135.219 180.771 135.219 178.808C135.219 176.845 133.628 175.254 131.667 175.254C129.705 175.254 128.115 176.845 128.115 178.808C128.115 180.771 129.705 182.362 131.667 182.362Z" fill="white"/>
</g>
<defs>
<clipPath id="clip0_50_743">
<rect width="284" height="187.835" fill="white" transform="translate(0 0.237335)"/>
</clipPath>
</defs>
</svg>
