<svg width="24" height="24" viewBox="0 0 24 24" fill="none" xmlns="http://www.w3.org/2000/svg">
<path d="M20.5343 3.49047C18.3109 1.22817 15.2373 0 12.0983 0C5.42794 0 0.0654375 5.36497 0.130781 11.8934C0.130781 13.9619 0.719344 15.9657 1.70034 17.7756L0 23.9162L6.34341 22.3003C8.10909 23.2699 10.0709 23.7224 12.0329 23.7224C18.6379 23.7224 24.0004 18.3573 24.0004 11.8289C24.0004 8.66159 22.7578 5.68819 20.5344 3.49047H20.5343ZM12.0983 21.7186C10.3326 21.7186 8.56687 21.2662 7.06275 20.3613L6.67041 20.1673L2.87747 21.1369L3.85837 17.4525L3.59681 17.0646C0.719344 12.4754 2.09269 6.3992 6.80119 3.55506C11.5097 0.711012 17.5915 2.06845 20.469 6.72241C23.3464 11.3764 21.973 17.3878 17.2646 20.2319C15.7604 21.2015 13.9294 21.7185 12.0983 21.7185V21.7186ZM17.8531 14.5438L17.1337 14.2206C17.1337 14.2206 16.0875 13.7681 15.4335 13.4449C15.3681 13.4449 15.3027 13.3802 15.2373 13.3802C15.0411 13.3802 14.9103 13.4449 14.7795 13.5096C14.7795 13.5096 14.7142 13.5742 13.7986 14.6084C13.7332 14.7377 13.6024 14.8023 13.4716 14.8023H13.4062C13.3408 14.8023 13.21 14.7377 13.1446 14.6731L12.8176 14.5438C12.0982 14.2206 11.4443 13.8327 10.9211 13.3156C10.7903 13.1864 10.5941 13.0571 10.4633 12.9278C10.0056 12.4754 9.54778 11.9582 9.22087 11.3765L9.15544 11.2472C9.09009 11.1825 9.09009 11.1179 9.02466 10.9887C9.02466 10.8594 9.02466 10.7301 9.09009 10.6655C9.09009 10.6655 9.35166 10.3422 9.54778 10.1484C9.67866 10.019 9.744 9.82517 9.87478 9.69591C10.0056 9.50196 10.071 9.24343 10.0056 9.04948C9.94022 8.72627 9.15544 6.98103 8.95931 6.59324C8.82844 6.39929 8.69775 6.3347 8.50153 6.27002H7.78219C7.65131 6.27002 7.52062 6.3347 7.38975 6.3347L7.32431 6.39929C7.19353 6.46397 7.06275 6.59324 6.93197 6.65782C6.80119 6.78718 6.73575 6.91636 6.60497 7.04571C6.14719 7.62746 5.88562 8.33847 5.88562 9.04948C5.88562 9.56655 6.01641 10.0837 6.21262 10.5362L6.27806 10.7301C6.86663 11.9582 7.65131 13.0571 8.69775 14.0267L8.95931 14.2852C9.15544 14.4791 9.35166 14.6084 9.48244 14.8023C10.8558 15.9658 12.4252 16.8061 14.1909 17.2586C14.3872 17.3232 14.6487 17.3232 14.8449 17.3879H15.4988C15.8258 17.3879 16.2182 17.2586 16.4798 17.1293C16.676 17.0001 16.8068 17.0001 16.9375 16.8708L17.0684 16.7414C17.1992 16.6122 17.33 16.5476 17.4608 16.4183C17.5915 16.2891 17.7223 16.1598 17.7878 16.0304C17.9185 15.7719 17.9839 15.4487 18.0493 15.1256V14.6731C18.0493 14.6731 17.9839 14.6084 17.8531 14.5438Z" fill="white"/>
</svg>
