<svg width="28" height="20" viewBox="0 0 28 20" fill="none" xmlns="http://www.w3.org/2000/svg">
<path d="M3.6875 0.625C2.14531 0.625 0.875 1.89531 0.875 3.4375V16.5625C0.875 18.1047 2.14531 19.375 3.6875 19.375H24.3125C25.8547 19.375 27.125 18.1047 27.125 16.5625V3.4375C27.125 1.89531 25.8547 0.625 24.3125 0.625H3.6875ZM3.6875 2.5H24.3125C24.8431 2.5 25.25 2.90688 25.25 3.4375V16.5625C25.25 17.0931 24.8431 17.5 24.3125 17.5H3.6875C3.15688 17.5 2.75 17.0931 2.75 16.5625V3.4375C2.75 2.90688 3.15688 2.5 3.6875 2.5ZM9.80281 4.375L9.67156 4.39656C9.25906 4.44812 8.85875 4.60281 8.52781 4.855C8.45281 4.89906 8.38906 4.95812 8.315 5.01813C8.3075 5.00312 8.3 4.98906 8.3 4.97406C8.285 4.8925 8.2775 4.80344 8.2625 4.72281C8.24094 4.58969 8.16781 4.52312 8.03469 4.52312H7.68687C7.47406 4.52125 7.4375 4.56719 7.4375 4.77437V11.1719C7.445 11.2675 7.50313 11.3181 7.58375 11.3256H8.22687C8.315 11.3256 8.36562 11.2675 8.37313 11.1719C8.38063 11.1428 8.38062 11.1128 8.38062 11.0837V8.90125C8.40875 8.93031 8.43125 8.94719 8.44625 8.96219C8.98438 9.41219 9.60406 9.55844 10.2838 9.42531C10.9025 9.29969 11.33 8.92469 11.6028 8.3725C11.8166 7.9525 11.9047 7.50063 11.9122 7.0375C11.9272 6.5275 11.8831 6.01844 11.6684 5.53937C11.4191 4.94969 10.9897 4.55875 10.3484 4.42656C10.2528 4.40406 10.1506 4.3975 10.0541 4.3825C9.96594 4.375 9.88531 4.375 9.80281 4.375ZM14.4922 4.375C14.4639 4.38357 14.4346 4.38861 14.405 4.39C14.1115 4.40231 13.82 4.4444 13.535 4.51562C13.3503 4.55969 13.1741 4.62531 12.9969 4.68437C12.8863 4.72187 12.8337 4.8025 12.8337 4.92062C12.8412 5.01625 12.8337 5.11937 12.8337 5.215C12.8412 5.36219 12.9012 5.40156 13.04 5.36406C13.2772 5.305 13.5106 5.2375 13.7469 5.19344C14.116 5.11966 14.4944 5.10479 14.8681 5.14937C15.0669 5.18688 15.2516 5.23844 15.3772 5.40813C15.4822 5.55152 15.5393 5.72443 15.5403 5.90219C15.5478 6.1525 15.5469 6.40281 15.5469 6.65219C15.5469 6.66812 15.5469 6.68219 15.5403 6.68969H15.5028C15.1861 6.61169 14.8628 6.56274 14.5372 6.54344C14.1969 6.5275 13.8594 6.54156 13.5341 6.65969C13.1441 6.79375 12.8272 7.02906 12.6434 7.4125C12.5028 7.70687 12.4822 8.01719 12.5263 8.33406C12.5919 8.76156 12.7981 9.085 13.1741 9.29125C13.535 9.49 13.9184 9.51344 14.3169 9.45438C14.7744 9.38781 15.1794 9.19656 15.5328 8.90125C15.5478 8.88625 15.5609 8.87875 15.5769 8.86469C15.5994 8.98281 15.6125 9.09344 15.635 9.19656C15.65 9.29219 15.71 9.35125 15.7981 9.35875H16.2922C16.3672 9.35875 16.4319 9.29125 16.4319 9.21062C16.4394 9.18812 16.4394 9.16 16.4394 9.13V5.92938C16.4385 5.80125 16.4279 5.67337 16.4075 5.54688C16.3484 5.15594 16.1862 4.8325 15.8328 4.62625C15.63 4.51288 15.4071 4.43997 15.1766 4.41156C15.0669 4.39656 14.9637 4.38906 14.8531 4.375H14.4922ZM20.7875 4.375C20.7369 4.37229 20.6868 4.38572 20.6443 4.41335C20.6018 4.44099 20.5693 4.4814 20.5513 4.52875L20.5072 4.65531L19.4525 7.67125C19.3784 7.885 19.2978 8.10437 19.2238 8.34062L19.1966 8.2675C18.8066 7.19125 18.4231 6.11406 18.0322 5.03781C17.9741 4.86156 17.9066 4.69281 17.84 4.52312C17.8275 4.48257 17.8022 4.44716 17.7679 4.42215C17.7336 4.39715 17.6921 4.3839 17.6497 4.38438C17.4209 4.37688 17.1912 4.37687 16.9559 4.37687C16.8819 4.37687 16.8453 4.4425 16.8603 4.51562C16.8753 4.57469 16.8959 4.64219 16.9184 4.70125C17.5091 6.16 18.1072 7.61875 18.7044 9.08594C18.7316 9.14086 18.7458 9.20134 18.7458 9.26266C18.7458 9.32397 18.7316 9.38445 18.7044 9.43937C18.6087 9.66063 18.5263 9.88938 18.4231 10.1097C18.3836 10.2083 18.3217 10.2964 18.2423 10.367C18.1629 10.4376 18.0682 10.4888 17.9656 10.5166C17.8138 10.5555 17.656 10.565 17.5006 10.5447C17.4266 10.5372 17.3534 10.5241 17.2794 10.5166C17.1762 10.5091 17.1256 10.5522 17.1181 10.6628V10.9572C17.1256 11.1269 17.1772 11.2009 17.3469 11.23C17.5091 11.26 17.6788 11.2834 17.8559 11.2909C18.3716 11.2984 18.7775 11.0913 19.0428 10.6412C19.1534 10.4631 19.2425 10.2794 19.3231 10.0881C20.0369 8.2835 20.7466 6.47724 21.4522 4.66937C21.4742 4.61824 21.4891 4.56428 21.4963 4.50906C21.5112 4.42094 21.4681 4.37594 21.3847 4.375H20.7875ZM9.79812 5.14187C10.2481 5.17937 10.6156 5.39875 10.8069 5.92187C10.925 6.24625 10.955 6.58 10.955 6.91844C10.955 7.23625 10.9316 7.53719 10.8359 7.83906C10.6297 8.48031 10.1591 8.73063 9.55438 8.70156C9.12687 8.67906 8.76594 8.51781 8.42656 8.2825C8.38906 8.26 8.36562 8.22344 8.37313 8.18687V5.64437C8.36562 5.60031 8.39 5.56187 8.42656 5.53937C8.83906 5.25156 9.29656 5.10531 9.79812 5.14187ZM14.3544 7.18563C14.4819 7.17438 14.6094 7.17625 14.7341 7.19125C14.9844 7.21375 15.2366 7.25688 15.4869 7.29438C15.5384 7.30094 15.5525 7.32344 15.5525 7.36938C15.5459 7.51562 15.5525 7.65531 15.5525 7.8025C15.5525 7.94969 15.545 8.08187 15.545 8.22906C15.5525 8.26656 15.5309 8.29562 15.5019 8.31719C15.1718 8.56389 14.7824 8.71911 14.3731 8.76719C14.2044 8.78312 14.0337 8.78312 13.8716 8.71656C13.7814 8.68359 13.7004 8.62968 13.6352 8.55927C13.57 8.48885 13.5225 8.40395 13.4966 8.31156C13.4384 8.12262 13.4351 7.92103 13.4872 7.73031C13.5678 7.47906 13.745 7.3375 13.9812 7.25688C14.1031 7.21938 14.2287 7.19688 14.3553 7.18563H14.3544ZM21.9978 11.4044C21.3416 11.4137 20.5662 11.56 19.9784 11.9725C19.7966 12.0981 19.8303 12.2734 20.0319 12.25C20.6928 12.1712 22.1628 11.9922 22.4263 12.3287C22.6897 12.6662 22.1337 14.0509 21.8881 14.6706C21.8112 14.8553 21.9725 14.9331 22.1431 14.7925C23.2428 13.87 23.5287 11.9397 23.3037 11.6622C23.1912 11.5234 22.6541 11.395 21.9978 11.4044ZM4.76094 11.7728C4.62406 11.7906 4.56406 11.9575 4.7075 12.0897C7.15625 14.2984 10.3897 15.625 13.9812 15.625C16.5434 15.625 19.5181 14.8197 21.5713 13.3047C21.9106 13.0534 21.6228 12.6766 21.275 12.8266C19.0338 13.7708 16.628 14.2628 14.1959 14.2741C10.8237 14.2741 7.55844 13.3497 4.91844 11.8112C4.87166 11.7813 4.81625 11.7678 4.76094 11.7728Z" fill="black"/>
</svg>
