<svg width="28" height="28" viewBox="0 0 28 28" fill="none" xmlns="http://www.w3.org/2000/svg">
<circle cx="14" cy="14" r="14" fill="black"/>
<path d="M18.218 20.9999C17.6078 20.9999 16.7508 20.7793 15.4674 20.0624C13.9068 19.1874 12.6997 18.3795 11.1475 16.8317C9.65091 15.3364 8.92264 14.3682 7.90337 12.5138C6.75188 10.4201 6.94817 9.32255 7.16759 8.85348C7.42889 8.29285 7.8146 7.95753 8.31314 7.62472C8.5963 7.43923 8.89597 7.28022 9.20832 7.14971C9.23958 7.13627 9.26865 7.12346 9.29459 7.1119C9.44931 7.04221 9.68373 6.9369 9.98067 7.0494C10.1788 7.12377 10.3557 7.27596 10.6327 7.5494C11.2006 8.10941 11.9767 9.35661 12.263 9.96912C12.4552 10.3819 12.5824 10.6544 12.5828 10.9601C12.5828 11.3179 12.4027 11.5938 12.1842 11.8916C12.1433 11.9476 12.1027 12.001 12.0633 12.0529C11.8254 12.3654 11.7732 12.4557 11.8076 12.617C11.8773 12.941 12.3971 13.9057 13.2513 14.7579C14.1056 15.6101 15.0426 16.097 15.368 16.1664C15.5362 16.2023 15.6284 16.1479 15.9509 15.9017C15.9972 15.8664 16.0447 15.8298 16.0944 15.7933C16.4276 15.5454 16.6908 15.3701 17.0402 15.3701H17.0421C17.3462 15.3701 17.6066 15.502 18.0379 15.7195C18.6006 16.0033 19.8855 16.7692 20.4491 17.3376C20.7232 17.6139 20.876 17.7902 20.9507 17.988C21.0632 18.2858 20.9573 18.5192 20.8882 18.6755C20.8766 18.7014 20.8638 18.7299 20.8504 18.7614C20.7188 19.0732 20.5588 19.3721 20.3725 19.6546C20.0402 20.1514 19.7036 20.5361 19.1416 20.7977C18.853 20.9342 18.5372 21.0033 18.218 20.9999Z" fill="white"/>
</svg>
