<svg width="28" height="28" viewBox="0 0 28 28" fill="none" xmlns="http://www.w3.org/2000/svg">
<path d="M21.875 11.375C21.875 9.28642 21.0453 7.28338 19.5685 5.80653C18.0916 4.32968 16.0886 3.5 14 3.5C11.9114 3.5 9.90838 4.32968 8.43153 5.80653C6.95468 7.28338 6.125 9.28642 6.125 11.375C6.125 14.6055 8.70975 18.816 14 23.8595C19.2902 18.816 21.875 14.6055 21.875 11.375ZM14 26.25C7.58275 20.4172 4.375 15.4578 4.375 11.375C4.375 8.82229 5.38906 6.37414 7.1941 4.5691C8.99914 2.76406 11.4473 1.75 14 1.75C16.5527 1.75 19.0009 2.76406 20.8059 4.5691C22.6109 6.37414 23.625 8.82229 23.625 11.375C23.625 15.4578 20.4172 20.4172 14 26.25Z" fill="black"/>
<path d="M14 14C14.6962 14 15.3639 13.7234 15.8562 13.2312C16.3484 12.7389 16.625 12.0712 16.625 11.375C16.625 10.6788 16.3484 10.0111 15.8562 9.51884C15.3639 9.02656 14.6962 8.75 14 8.75C13.3038 8.75 12.6361 9.02656 12.1438 9.51884C11.6516 10.0111 11.375 10.6788 11.375 11.375C11.375 12.0712 11.6516 12.7389 12.1438 13.2312C12.6361 13.7234 13.3038 14 14 14ZM14 15.75C12.8397 15.75 11.7269 15.2891 10.9064 14.4686C10.0859 13.6481 9.625 12.5353 9.625 11.375C9.625 10.2147 10.0859 9.10188 10.9064 8.28141C11.7269 7.46094 12.8397 7 14 7C15.1603 7 16.2731 7.46094 17.0936 8.28141C17.9141 9.10188 18.375 10.2147 18.375 11.375C18.375 12.5353 17.9141 13.6481 17.0936 14.4686C16.2731 15.2891 15.1603 15.75 14 15.75Z" fill="black"/>
</svg>
