<svg width="22" height="28" viewBox="0 0 22 28" fill="none" xmlns="http://www.w3.org/2000/svg">
<g clip-path="url(#clip0_43_183)">
<path d="M19.9808 5.41619C17.8109 3.54405 15.0361 4.65647 13.7821 7.89972L10.6212 16.0835C9.70655 18.4468 10.8841 19.2726 12.197 20.4492L15.2386 23.0729C16.2687 23.9609 17.5843 23.4338 18.1784 21.8964L21.4279 13.4858C22.5195 10.6596 21.8718 7.04777 19.9808 5.41619Z" fill="#EA4335"/>
<path d="M16.404 8.80355L13.3625 6.17977C11.6834 4.78671 10.7325 4.69449 10.0432 6.3321L5.55718 17.9436C4.30455 21.1847 5.05014 25.3298 7.21878 27.1979C9.10975 28.8295 11.5265 27.8614 12.6181 25.0352L17.19 13.1992C17.7868 11.6598 17.4341 9.69146 16.404 8.80355Z" fill="#FBBC04"/>
<path d="M16.9895 2.83455L14.8531 0.990277C12.49 -1.04807 9.46846 0.160553 8.10455 3.69228L4.03696 14.2213C3.43617 15.7748 3.79289 17.7632 4.83231 18.659L7.22481 20.7236C8.40628 21.7439 9.91637 21.1384 10.5991 19.3727L15.246 7.34422C16.2089 4.85286 18.34 3.99899 20.0069 5.43816L16.9895 2.83442V2.83455Z" fill="#34A853"/>
<path d="M8.6826 6.70497L6.3732 4.71659C5.34324 3.83061 4.02762 4.35567 3.43353 5.89117L0.662651 13.0468C-0.701177 16.5685 0.107495 21.0744 2.47052 23.1069L4.22871 24.6202L6.36117 26.4561L7.28654 27.2518C5.64368 25.6083 5.12195 22.3151 6.12639 19.7214L6.84397 17.8693L9.47116 11.0844C10.064 9.55301 9.71127 7.59083 8.6826 6.70484V6.70497Z" fill="#4285F4"/>
</g>
<defs>
<clipPath id="clip0_43_183">
<rect width="22" height="28" fill="white"/>
</clipPath>
</defs>
</svg>
