<svg width="26" height="26" viewBox="0 0 26 26" fill="none" xmlns="http://www.w3.org/2000/svg">
<path d="M14.8056 19.8467C14.8056 20.8433 14.04 21.6667 13 21.6667C11.9889 21.6667 11.18 20.8578 11.18 19.8467C11.18 18.8211 11.9889 18.0411 13 18.0411C14.0256 18.0411 14.8056 18.8356 14.8056 19.8467ZM12.9856 4.33333C10.4289 4.33333 8.68111 5.99444 8.03111 7.93L10.4 8.92667C10.7178 7.95889 11.4689 6.78889 13 6.78889C15.34 6.78889 15.8022 8.98444 14.9789 10.1544C14.1989 11.2667 12.8556 12.0178 12.1478 13.2744C11.5844 14.2711 11.7 15.4267 11.7 16.1344H14.3289C14.3289 14.7911 14.43 14.5167 14.6467 14.0978C15.21 13.0578 16.25 12.5667 17.3478 10.9633C18.33 9.51889 17.9544 7.55444 17.3189 6.51444C16.5822 5.30111 15.1233 4.33333 12.9856 4.33333ZM23.1111 2.88889H2.88889V23.1111H23.1111V2.88889ZM23.1111 0C24.7 0 26 1.3 26 2.88889V23.1111C26 24.7 24.7 26 23.1111 26H2.88889C1.3 26 0 24.7 0 23.1111V2.88889C0 1.3 1.3 0 2.88889 0H23.1111Z" fill="white"/>
</svg>
