<svg width="26" height="26" viewBox="0 0 26 26" fill="none" xmlns="http://www.w3.org/2000/svg">
<path d="M1.74998 14.25H2.99998V23C2.99998 24.3788 4.12123 25.5 5.49998 25.5H20.5C21.8787 25.5 23 24.3788 23 23V14.25H24.25C24.4972 14.25 24.7388 14.1766 24.9443 14.0393C25.1498 13.9019 25.31 13.7067 25.4046 13.4783C25.4992 13.25 25.5239 12.9987 25.4757 12.7562C25.4275 12.5138 25.3085 12.2911 25.1337 12.1163L13.8837 0.866257C13.7677 0.750075 13.63 0.657903 13.4783 0.595014C13.3267 0.532126 13.1641 0.499756 13 0.499756C12.8358 0.499756 12.6733 0.532126 12.5216 0.595014C12.37 0.657903 12.2322 0.750075 12.1162 0.866257L0.866228 12.1163C0.691466 12.2911 0.572458 12.5138 0.524248 12.7562C0.476039 12.9987 0.500793 13.25 0.59538 13.4783C0.689968 13.7067 0.850142 13.9019 1.05565 14.0393C1.26117 14.1766 1.50279 14.25 1.74998 14.25ZM10.5 23V16.75H15.5V23H10.5ZM13 3.51751L20.5 11.0175V16.75L20.5012 23H18V16.75C18 15.3713 16.8787 14.25 15.5 14.25H10.5C9.12123 14.25 7.99998 15.3713 7.99998 16.75V23H5.49998V11.0175L13 3.51751Z" fill="white"/>
</svg>
