<svg width="23" height="20" viewBox="0 0 23 20" fill="none" xmlns="http://www.w3.org/2000/svg">
<path d="M22.44 5.86C22.44 6.75333 22.2619 7.61667 21.9057 8.45C21.5495 9.28333 21.0556 10.0133 20.4238 10.64L11.3914 19.52L10.1413 18.3L19.1738 9.42C20.1684 8.46 20.6658 7.27333 20.6658 5.86C20.6658 4.67333 20.2726 3.69 19.4863 2.91C18.7 2.13 17.7087 1.74 16.5125 1.74C15.1415 1.74 13.9318 2.24 12.8833 3.24L2.94361 13.02C2.15058 13.8067 1.75407 14.6933 1.75407 15.68C1.75407 16.44 2.00273 17.0633 2.50005 17.55C2.99738 18.0367 3.62911 18.28 4.39526 18.28C5.40334 18.28 6.3039 17.8867 7.09693 17.1L14.6979 9.66C15.4103 8.92667 15.7665 8.28 15.7665 7.72C15.7665 7.44 15.6589 7.22 15.4439 7.06C15.2288 6.9 14.9734 6.82 14.6777 6.82C14.0326 6.82 13.4546 7.08667 12.9438 7.62L6.08884 14.34L4.85898 13.12L11.6938 6.4C12.5809 5.52 13.5756 5.08 14.6777 5.08C15.4573 5.08 16.1294 5.32667 16.6939 5.82C17.2584 6.31333 17.5407 6.94 17.5407 7.7C17.5407 8.74 17.0098 9.8 15.9479 10.88L8.34695 18.32C7.2179 19.44 5.90066 20 4.39526 20C3.14523 20 2.10018 19.59 1.26011 18.77C0.420036 17.95 0 16.92 0 15.68C0 14.2133 0.564528 12.92 1.69358 11.8L11.6333 2.02C13.0312 0.673333 14.6576 0 16.5125 0C18.1926 0 19.6006 0.56 20.7363 1.68C21.8721 2.8 22.44 4.19333 22.44 5.86Z" fill="#9378FF"/>
</svg>
