<svg width="24" height="30" viewBox="0 0 24 30" fill="none" xmlns="http://www.w3.org/2000/svg">
<path d="M12 0C8.81856 0.00368622 5.76849 1.24658 3.51887 3.45603C1.26925 5.66548 0.003766 8.66108 1.27668e-05 11.7857C-0.00379766 14.3392 0.845445 16.8233 2.41746 18.8571C2.41746 18.8571 2.74474 19.2804 2.79819 19.3414L12 30L21.2062 19.3361C21.2542 19.2793 21.5825 18.8571 21.5825 18.8571L21.5836 18.8539C23.1549 16.821 24.0037 14.338 24 11.7857C23.9962 8.66108 22.7307 5.66548 20.4811 3.45603C18.2315 1.24658 15.1814 0.00368622 12 0V0ZM12 16.0714C11.137 16.0714 10.2933 15.8201 9.5757 15.3492C8.8581 14.8782 8.2988 14.2089 7.96853 13.4258C7.63826 12.6427 7.55184 11.781 7.72021 10.9496C7.88859 10.1183 8.30418 9.35462 8.91445 8.75526C9.52471 8.15589 10.3022 7.74771 11.1487 7.58235C11.9952 7.41698 12.8725 7.50185 13.6699 7.82623C14.4672 8.15061 15.1487 8.69992 15.6282 9.4047C16.1077 10.1095 16.3636 10.9381 16.3636 11.7857C16.3622 12.9219 15.902 14.0112 15.084 14.8146C14.2659 15.618 13.1569 16.07 12 16.0714V16.0714Z" fill="black"/>
</svg>
