<svg width="16" height="22" viewBox="0 0 16 22" fill="none" xmlns="http://www.w3.org/2000/svg">
<g clip-path="url(#clip0_151_2093)">
<path d="M4.16809 16.0538C4.79488 16.8526 5.36533 17.694 5.87533 18.5719C6.31077 19.3976 6.4923 19.9574 6.81053 20.9523C7.00569 21.5019 7.18208 21.666 7.56131 21.666C7.97455 21.666 8.16204 21.3869 8.30689 20.9553C8.6077 20.0158 8.84373 19.2988 9.21611 18.6213C9.94681 17.3133 10.8548 16.151 11.7469 15.0339C11.9885 14.7177 13.55 12.8759 14.253 11.4226C14.253 11.4226 15.1171 9.8261 15.1171 7.5965C15.1171 5.51092 14.2649 4.06445 14.2649 4.06445L11.8117 4.72146L10.3218 8.64549L9.95319 9.18657L9.87949 9.2846L9.78146 9.40731L9.60939 9.6033L9.3635 9.84913L8.03679 10.93L4.71987 12.8452L4.16809 16.0538Z" fill="#34A853"/>
<path d="M0.744751 11.1542C1.55429 13.0033 3.11537 14.6288 4.17156 16.0552L9.78151 9.40992C9.78151 9.40992 8.99117 10.4436 7.55751 10.4436C5.96059 10.4436 4.67049 9.16834 4.67049 7.56037C4.67049 6.45771 5.33387 5.7002 5.33387 5.7002L1.52571 6.7206L0.744751 11.1542V11.1542Z" fill="#FBBC04"/>
<path d="M9.84422 0.341856C11.7074 0.942586 13.3022 2.20375 14.2668 4.06345L9.78328 9.4063C9.78328 9.4063 10.4467 8.63509 10.4467 7.53927C10.4467 5.89387 9.06114 4.66465 7.56437 4.66465C6.14896 4.66465 5.33606 5.69658 5.33606 5.69658V2.33065L9.84422 0.341797V0.341856Z" fill="#4285F4"/>
<path d="M1.77246 2.70249C2.88529 1.37106 4.84343 0 7.54303 0C8.85279 0 9.83954 0.343857 9.83954 0.343857L5.33179 5.69941H2.13799L1.77246 2.70255V2.70249Z" fill="#1A73E8"/>
<path d="M0.744757 11.1545C0.744757 11.1545 0 9.69605 0 7.58319C0 5.58624 0.77629 3.84068 1.77243 2.70264L5.33429 5.70003L0.744757 11.1545Z" fill="#EA4335"/>
</g>
<defs>
<clipPath id="clip0_151_2093">
<rect width="15.1172" height="21.6719" fill="white"/>
</clipPath>
</defs>
</svg>
