<svg width="20" height="26" viewBox="0 0 20 26" fill="none" xmlns="http://www.w3.org/2000/svg">
<path d="M14.5833 11.7812C14.2518 11.7812 13.9339 11.6528 13.6995 11.4243C13.465 11.1957 13.3333 10.8857 13.3333 10.5625C13.3333 10.2393 13.465 9.92927 13.6995 9.70071C13.9339 9.47215 14.2518 9.34375 14.5833 9.34375C14.9149 9.34375 15.2328 9.47215 15.4672 9.70071C15.7016 9.92927 15.8333 10.2393 15.8333 10.5625C15.8333 10.8857 15.7016 11.1957 15.4672 11.4243C15.2328 11.6528 14.9149 11.7812 14.5833 11.7812ZM14.5833 16.6562C14.2518 16.6562 13.9339 16.5278 13.6995 16.2993C13.465 16.0707 13.3333 15.7607 13.3333 15.4375C13.3333 15.1143 13.465 14.8043 13.6995 14.5757C13.9339 14.3472 14.2518 14.2188 14.5833 14.2188C14.9149 14.2188 15.2328 14.3472 15.4672 14.5757C15.7016 14.8043 15.8333 15.1143 15.8333 15.4375C15.8333 15.7607 15.7016 16.0707 15.4672 16.2993C15.2328 16.5278 14.9149 16.6562 14.5833 16.6562ZM13.3333 20.3125C13.3333 20.6357 13.465 20.9457 13.6995 21.1743C13.9339 21.4028 14.2518 21.5312 14.5833 21.5312C14.9149 21.5312 15.2328 21.4028 15.4672 21.1743C15.7016 20.9457 15.8333 20.6357 15.8333 20.3125C15.8333 19.9893 15.7016 19.6793 15.4672 19.4507C15.2328 19.2222 14.9149 19.0938 14.5833 19.0938C14.2518 19.0938 13.9339 19.2222 13.6995 19.4507C13.465 19.6793 13.3333 19.9893 13.3333 20.3125ZM11.6667 10.5625C11.6667 10.347 11.5789 10.1403 11.4226 9.98798C11.2663 9.8356 11.0543 9.75 10.8333 9.75H5C4.77899 9.75 4.56702 9.8356 4.41074 9.98798C4.25446 10.1403 4.16667 10.347 4.16667 10.5625C4.16667 10.778 4.25446 10.9847 4.41074 11.137C4.56702 11.2894 4.77899 11.375 5 11.375H10.8333C11.0543 11.375 11.2663 11.2894 11.4226 11.137C11.5789 10.9847 11.6667 10.778 11.6667 10.5625ZM11.6667 15.4375C11.6667 15.222 11.5789 15.0153 11.4226 14.863C11.2663 14.7106 11.0543 14.625 10.8333 14.625H5C4.77899 14.625 4.56702 14.7106 4.41074 14.863C4.25446 15.0153 4.16667 15.222 4.16667 15.4375C4.16667 15.653 4.25446 15.8597 4.41074 16.012C4.56702 16.1644 4.77899 16.25 5 16.25H10.8333C11.0543 16.25 11.2663 16.1644 11.4226 16.012C11.5789 15.8597 11.6667 15.653 11.6667 15.4375ZM11.6667 20.3125C11.6667 20.097 11.5789 19.8903 11.4226 19.738C11.2663 19.5856 11.0543 19.5 10.8333 19.5H5C4.77899 19.5 4.56702 19.5856 4.41074 19.738C4.25446 19.8903 4.16667 20.097 4.16667 20.3125C4.16667 20.528 4.25446 20.7347 4.41074 20.887C4.56702 21.0394 4.77899 21.125 5 21.125H10.8333C11.0543 21.125 11.2663 21.0394 11.4226 20.887C11.5789 20.7347 11.6667 20.528 11.6667 20.3125ZM7.5 3.35135e-07C6.98279 -0.00026403 6.47823 0.155883 6.05585 0.446921C5.63347 0.737959 5.31407 1.14956 5.14167 1.625H2.5C1.83696 1.625 1.20107 1.88181 0.732233 2.33893C0.263392 2.79605 0 3.41604 0 4.0625V23.5625C0 24.209 0.263392 24.829 0.732233 25.2861C1.20107 25.7432 1.83696 26 2.5 26H17.5C18.163 26 18.7989 25.7432 19.2678 25.2861C19.7366 24.829 20 24.209 20 23.5625V4.0625C20 3.41604 19.7366 2.79605 19.2678 2.33893C18.7989 1.88181 18.163 1.625 17.5 1.625H14.8583C14.6859 1.14956 14.3665 0.737959 13.9442 0.446921C13.5218 0.155883 13.0172 -0.00026403 12.5 3.35135e-07H7.5ZM6.66667 2.4375C6.66667 2.22201 6.75446 2.01535 6.91074 1.86298C7.06702 1.7106 7.27899 1.625 7.5 1.625H12.5C12.721 1.625 12.933 1.7106 13.0893 1.86298C13.2455 2.01535 13.3333 2.22201 13.3333 2.4375C13.3333 2.65299 13.2455 2.85965 13.0893 3.01202C12.933 3.1644 12.721 3.25 12.5 3.25H7.5C7.27899 3.25 7.06702 3.1644 6.91074 3.01202C6.75446 2.85965 6.66667 2.65299 6.66667 2.4375ZM2.5 3.25H5.14167C5.31407 3.72544 5.63347 4.13704 6.05585 4.42808C6.47823 4.71912 6.98279 4.87526 7.5 4.875H12.5C13.0172 4.87526 13.5218 4.71912 13.9442 4.42808C14.3665 4.13704 14.6859 3.72544 14.8583 3.25H17.5C17.721 3.25 17.933 3.3356 18.0893 3.48798C18.2455 3.64035 18.3333 3.84701 18.3333 4.0625V23.5625C18.3333 23.778 18.2455 23.9847 18.0893 24.137C17.933 24.2894 17.721 24.375 17.5 24.375H2.5C2.27899 24.375 2.06702 24.2894 1.91074 24.137C1.75446 23.9847 1.66667 23.778 1.66667 23.5625V4.0625C1.66667 3.84701 1.75446 3.64035 1.91074 3.48798C2.06702 3.3356 2.27899 3.25 2.5 3.25V3.25Z" fill="white"/>
</svg>
