<svg width="22" height="28" viewBox="0 0 22 28" fill="none" xmlns="http://www.w3.org/2000/svg">
<path d="M18.6628 2.17945C17.4654 0.706951 15.3008 0.0756531 12.5316 0.0756531H4.49472C4.22073 0.075664 3.95574 0.18112 3.74738 0.373062C3.53902 0.565004 3.40096 0.830841 3.35802 1.12278L0.0116137 24.0204C-0.054902 24.4719 0.269168 24.8808 0.693356 24.8808H5.65505L6.90114 16.3537L6.86247 16.6207C6.95124 16.0179 7.42905 15.5734 7.99487 15.5734H10.3526C14.9845 15.5734 18.6113 13.5436 19.6708 7.67209C19.7022 7.49843 19.7295 7.32941 19.753 7.16429C19.6193 7.08789 19.6193 7.08789 19.753 7.16429C20.0685 4.9941 19.7509 3.51687 18.6628 2.17945Z" fill="#27346A"/>
<path d="M8.79967 6.38251C8.93532 6.31283 9.08367 6.27672 9.23391 6.27682H15.5347C16.2808 6.27682 16.9767 6.3292 17.6126 6.43962C17.7906 6.47024 17.9676 6.50678 18.1435 6.54921C18.3927 6.60855 18.6391 6.68117 18.8817 6.76682C19.1943 6.87947 19.4855 7.01066 19.7531 7.16429C20.0685 4.99327 19.7509 3.51687 18.6628 2.17945C17.4647 0.706951 15.3008 0.0756531 12.5316 0.0756531H4.49403C3.92813 0.0756531 3.44671 0.52013 3.35802 1.12278L0.0116141 24.0195C-0.0549015 24.4718 0.269169 24.8801 0.692669 24.8801H5.65504L8.2403 7.19284C8.26572 7.01899 8.32991 6.85441 8.42735 6.71325C8.52479 6.57209 8.65256 6.45859 8.79967 6.38251Z" fill="#27346A"/>
<path d="M19.6707 7.67209C18.6112 13.5428 14.9845 15.5734 10.3525 15.5734H7.99408C7.42827 15.5734 6.95037 16.0179 6.86245 16.6207L5.31223 27.2231C5.2543 27.6183 5.53755 27.9764 5.90812 27.9764H10.0907C10.3303 27.9763 10.562 27.884 10.7441 27.7161C10.9263 27.5482 11.0469 27.3156 11.0844 27.0603L11.1251 26.8304L11.9134 21.4403L11.9642 21.1424C12.0017 20.8871 12.1223 20.6546 12.3044 20.4867C12.4866 20.3188 12.7183 20.2265 12.9578 20.2264H13.5838C17.6355 20.2264 20.8081 18.4505 21.7351 13.3145C22.1221 11.1681 21.9219 9.37611 20.8982 8.1174C20.5877 7.73616 20.2021 7.4213 19.7529 7.16429C19.7286 7.33025 19.7022 7.49844 19.6707 7.67209Z" fill="#2790C3"/>
<path d="M18.6444 6.68736C18.4792 6.63532 18.3124 6.58924 18.1444 6.54921C17.9684 6.50747 17.7914 6.47118 17.6135 6.44036C16.9769 6.3292 16.2815 6.27672 15.5347 6.27672H9.23473C9.08437 6.27635 8.9359 6.31278 8.80048 6.38325C8.65321 6.4591 8.5253 6.57253 8.42781 6.71373C8.33033 6.85492 8.26622 7.01963 8.24103 7.19358L6.90195 16.3537L6.86328 16.6207C6.95137 16.0179 7.42918 15.5734 7.99508 15.5734H10.3535C14.9854 15.5734 18.6121 13.5436 19.6716 7.67208C19.7031 7.49843 19.7296 7.33015 19.7539 7.16428C19.4856 7.01149 19.1952 6.87946 18.8825 6.76755C18.8036 6.73933 18.7242 6.7126 18.6445 6.68736" fill="#1F264F"/>
</svg>
