<svg width="43" height="43" viewBox="0 0 43 43" fill="none" xmlns="http://www.w3.org/2000/svg">
<path fill-rule="evenodd" clip-rule="evenodd" d="M11.7346 32.8836C19.0074 31.8211 24.0149 31.9125 31.2973 32.9208C31.8247 32.9973 32.3066 33.262 32.654 33.666C33.0015 34.0701 33.191 34.5862 33.1875 35.1191C33.1875 35.6291 33.0122 36.1243 32.6956 36.511C32.1437 37.1853 31.5783 37.8484 30.9998 38.5H33.8059C33.9823 38.2896 34.1597 38.075 34.3393 37.8572C34.9695 37.0843 35.3133 36.1174 35.3125 35.1202C35.3125 32.9686 33.7421 31.1146 31.5884 30.8171C24.1339 29.7854 18.9234 29.6866 11.4275 30.782C9.2515 31.0997 7.6875 32.9824 7.6875 35.1489C7.6875 36.1104 8.00094 37.0614 8.59488 37.8317C8.77019 38.0591 8.94337 38.2822 9.1155 38.5011H11.8536C11.3153 37.8567 10.7903 37.2013 10.2789 36.5354C9.97502 36.1368 9.81107 35.6491 9.8125 35.1478C9.8125 34.0035 10.6349 33.0441 11.7346 32.8836ZM21.5 22.5625C22.3372 22.5625 23.1662 22.3976 23.9396 22.0772C24.7131 21.7569 25.4158 21.2873 26.0078 20.6953C26.5998 20.1033 27.0694 19.4006 27.3897 18.6271C27.7101 17.8537 27.875 17.0247 27.875 16.1875C27.875 15.3503 27.7101 14.5213 27.3897 13.7479C27.0694 12.9744 26.5998 12.2717 26.0078 11.6797C25.4158 11.0877 24.7131 10.6181 23.9396 10.2978C23.1662 9.9774 22.3372 9.8125 21.5 9.8125C19.8092 9.8125 18.1877 10.4842 16.9922 11.6797C15.7966 12.8752 15.125 14.4967 15.125 16.1875C15.125 17.8783 15.7966 19.4998 16.9922 20.6953C18.1877 21.8909 19.8092 22.5625 21.5 22.5625ZM21.5 24.6875C23.7543 24.6875 25.9164 23.792 27.5104 22.1979C29.1045 20.6039 30 18.4418 30 16.1875C30 13.9332 29.1045 11.7712 27.5104 10.1771C25.9164 8.58303 23.7543 7.6875 21.5 7.6875C19.2457 7.6875 17.0837 8.58303 15.4896 10.1771C13.8955 11.7712 13 13.9332 13 16.1875C13 18.4418 13.8955 20.6039 15.4896 22.1979C17.0837 23.792 19.2457 24.6875 21.5 24.6875Z" fill="black"/>
<path fill-rule="evenodd" clip-rule="evenodd" d="M21.5 40.625C32.0623 40.625 40.625 32.0623 40.625 21.5C40.625 10.9377 32.0623 2.375 21.5 2.375C10.9377 2.375 2.375 10.9377 2.375 21.5C2.375 32.0623 10.9377 40.625 21.5 40.625ZM21.5 42.75C33.2364 42.75 42.75 33.2364 42.75 21.5C42.75 9.76363 33.2364 0.25 21.5 0.25C9.76363 0.25 0.25 9.76363 0.25 21.5C0.25 33.2364 9.76363 42.75 21.5 42.75Z" fill="black"/>
</svg>
