<svg width="30" height="30" viewBox="0 0 30 30" fill="none" xmlns="http://www.w3.org/2000/svg">
<path d="M15.0833 9.16669C11.8333 9.16669 9.25 11.75 9.25 15C9.25 18.25 11.8333 20.8334 15.0833 20.8334C18.3333 20.8334 20.9167 18.25 20.9167 15C20.9167 11.75 18.3333 9.16669 15.0833 9.16669ZM15.0833 19.1667C12.75 19.1667 10.9167 17.3334 10.9167 15C10.9167 12.6667 12.75 10.8334 15.0833 10.8334C17.4167 10.8334 19.25 12.6667 19.25 15C19.25 17.3334 17.4167 19.1667 15.0833 19.1667Z" fill="white"/>
<path d="M27.3333 12.25L25 11.5L24.5 10.25L25.6666 8.08335C25.9166 7.58335 25.8333 6.91669 25.4166 6.50002L23.4166 4.50002C23 4.08335 22.3333 4.00002 21.8333 4.25002L19.6666 5.41669L18.4166 4.91669L17.6666 2.58335C17.5 2.08335 17 1.66669 16.4166 1.66669H13.5833C13 1.66669 12.5 2.08335 12.4166 2.66669L11.6666 5.00002C11.1666 5.08335 10.75 5.25002 10.3333 5.50002L8.16663 4.33335C7.66663 4.08335 6.99996 4.16669 6.58329 4.58335L4.58329 6.58335C4.16663 7.00002 4.08329 7.66669 4.33329 8.16669L5.41663 10.25C5.24996 10.6667 5.08329 11.1667 4.91663 11.5834L2.58329 12.3334C2.08329 12.5 1.66663 13 1.66663 13.5834V16.4167C1.66663 17 2.08329 17.5 2.66663 17.6667L4.99996 18.4167L5.49996 19.6667L4.33329 21.8334C4.08329 22.3334 4.16663 23 4.58329 23.4167L6.58329 25.4167C6.99996 25.8333 7.66663 25.9167 8.16663 25.6667L10.3333 24.5L11.5833 25L12.3333 27.4167C12.5 27.9167 13 28.3333 13.5833 28.3333H16.4166C17 28.3333 17.5 27.9167 17.6666 27.4167L18.4166 25L19.6666 24.5L21.8333 25.6667C22.3333 25.9167 23 25.8333 23.4166 25.4167L25.4166 23.4167C25.8333 23 25.9166 22.3334 25.6666 21.8334L24.5 19.6667L25 18.4167L27.4166 17.6667C27.9166 17.5 28.3333 17 28.3333 16.4167V13.5834C28.3333 13 27.9166 12.4167 27.3333 12.25V12.25ZM26.6666 16.1667L23.6666 17.0834L23.5833 17.5L22.8333 19.25L22.5833 19.6667L24.0833 22.4167L22.4166 24.0833L19.6666 22.5834L19.25 22.8333C18.6666 23.1667 18.0833 23.4167 17.5 23.5833L17.0833 23.6667L16.1666 26.6667H13.8333L12.9166 23.6667L12.5 23.5833L10.75 22.8333L10.3333 22.5834L7.58329 24.0833L5.91663 22.4167L7.41662 19.6667L7.16663 19.25C6.83329 18.6667 6.58329 18.0834 6.41663 17.5L6.33329 17.0834L3.33329 16.1667V13.8334L6.16663 13L6.33329 12.5834C6.49996 11.9167 6.74996 11.3334 7.08329 10.75L7.33329 10.3334L5.91663 7.58335L7.58329 5.91669L10.25 7.41669L10.6666 7.16669C11.25 6.83335 11.8333 6.58335 12.5 6.41669L12.9166 6.25002L13.8333 3.33335H16.1666L17.0833 6.25002L17.5 6.41669C18.0833 6.58335 18.6666 6.83335 19.25 7.16669L19.6666 7.41669L22.4166 5.91669L24.0833 7.58335L22.5833 10.3334L22.8333 10.75C23.1666 11.3334 23.4166 11.9167 23.5833 12.5L23.6666 12.9167L26.6666 13.8334V16.1667V16.1667Z" fill="white"/>
</svg>
