<svg width="18" height="18" viewBox="0 0 18 18" fill="none" xmlns="http://www.w3.org/2000/svg">
<path d="M12.3753 2.81261C12.3752 2.15272 12.6072 1.51381 13.0306 1.00767C13.454 0.501529 14.0419 0.160381 14.6914 0.0439134C15.3409 -0.0725538 16.0107 0.0430767 16.5836 0.370574C17.1565 0.698072 17.596 1.21658 17.8252 1.83539C18.0544 2.45419 18.0587 3.13389 17.8374 3.75555C17.6161 4.37722 17.1832 4.90127 16.6145 5.23602C16.0458 5.57077 15.3776 5.6949 14.7266 5.58669C14.0757 5.47848 13.4835 5.14483 13.0537 4.64411L5.49592 8.15411C5.66967 8.70473 5.66967 9.29549 5.49592 9.84611L13.0537 13.3561C13.508 12.8277 14.1423 12.4868 14.8336 12.3995C15.525 12.3121 16.2242 12.4845 16.7956 12.8833C17.3671 13.282 17.7702 13.8787 17.9268 14.5577C18.0834 15.2368 17.9823 15.9497 17.6432 16.5585C17.3041 17.1673 16.751 17.6284 16.0913 17.8527C15.4315 18.0769 14.712 18.0482 14.0721 17.7722C13.4323 17.4962 12.9177 16.9924 12.6281 16.3586C12.3385 15.7248 12.2945 15.006 12.5047 14.3416L4.94692 10.8316C4.57279 11.2676 4.07409 11.5786 3.51792 11.7227C2.96176 11.8668 2.3748 11.8371 1.836 11.6376C1.29721 11.4382 0.832434 11.0785 0.504194 10.6069C0.175955 10.1354 0 9.57464 0 9.00011C0 8.42557 0.175955 7.86482 0.504194 7.39329C0.832434 6.92175 1.29721 6.56205 1.836 6.36257C2.3748 6.16309 2.96176 6.13341 3.51792 6.27751C4.07409 6.42162 4.57279 6.73259 4.94692 7.16861L12.5047 3.65861C12.4186 3.38486 12.375 3.09956 12.3753 2.81261V2.81261Z" fill="black"/>
</svg>
