<svg width="25" height="29" viewBox="0 0 25 29" fill="none" xmlns="http://www.w3.org/2000/svg">
<path d="M22.9167 10.3571H14.5833V2.07143H2.08333V26.9286H22.9167V10.3571ZM22.0542 8.28571L16.6667 2.929V8.28571H22.0542ZM1.04167 0H16.6667L25 8.28571V27.9643C25 28.239 24.8903 28.5024 24.6949 28.6966C24.4996 28.8909 24.2346 29 23.9583 29H1.04167C0.765399 29 0.500448 28.8909 0.305097 28.6966C0.109747 28.5024 0 28.239 0 27.9643V1.03571C0 0.761026 0.109747 0.497588 0.305097 0.303354C0.500448 0.10912 0.765399 0 1.04167 0ZM6.25 14.5H18.75V16.5714H6.25V14.5ZM6.25 8.28571H11.4583V10.3571H6.25V8.28571ZM6.25 20.7143H18.75V22.7857H6.25V20.7143Z" fill="white"/>
</svg>
